<?xml version="1.0" encoding="UTF-8" standalone="no"?>
<!DOCTYPE svg PUBLIC "-//W3C//DTD SVG 1.1//EN" "http://www.w3.org/Graphics/SVG/1.1/DTD/svg11.dtd">
<svg xmlns="http://www.w3.org/2000/svg" version="1.1" viewBox="0.00 0.00 1024.00 1024.00">
<g stroke-width="2.00" fill="none" stroke-linecap="butt">
<path stroke="#808080" vector-effect="non-scaling-stroke" d="
  M 712.33 192.00
  A 0.33 0.33 0.0 0 1 712.00 191.67
  L 712.00 112.33
  A 0.33 0.33 0.0 0 0 711.67 112.00
  L 312.33 112.00
  A 0.33 0.33 0.0 0 0 312.00 112.33
  L 312.00 191.67
  A 0.33 0.33 0.0 0 1 311.67 192.00
  L 232.33 192.00
  A 0.33 0.33 0.0 0 0 232.00 192.33
  L 232.00 351.67
  A 0.33 0.33 0.0 0 0 232.33 352.00
  L 391.67 352.00
  A 0.33 0.33 0.0 0 0 392.00 351.67
  L 392.00 272.33
  A 0.33 0.33 0.0 0 1 392.33 272.00
  L 631.67 272.00
  A 0.33 0.33 0.0 0 1 632.00 272.33
  L 632.00 431.67
  A 0.33 0.33 0.0 0 1 631.67 432.00
  L 472.33 432.00
  A 0.33 0.33 0.0 0 0 472.00 432.33
  L 472.00 671.67
  A 0.33 0.33 0.0 0 0 472.33 672.00
  L 631.67 672.00
  A 0.33 0.33 0.0 0 0 632.00 671.67
  L 632.00 592.33
  A 0.33 0.33 0.0 0 1 632.33 592.00
  L 711.67 592.00
  A 0.33 0.33 0.0 0 0 712.00 591.67
  L 712.00 512.33
  A 0.33 0.33 0.0 0 1 712.33 512.00
  L 791.67 512.00
  A 0.33 0.33 0.0 0 0 792.00 511.67
  L 792.00 192.33
  A 0.33 0.33 0.0 0 0 791.67 192.00
  L 712.33 192.00"
/>
<path stroke="#808080" vector-effect="non-scaling-stroke" d="
  M 632.00 752.26
  A 0.26 0.26 0.0 0 0 631.74 752.00
  L 472.26 752.00
  A 0.26 0.26 0.0 0 0 472.00 752.26
  L 472.00 911.74
  A 0.26 0.26 0.0 0 0 472.26 912.00
  L 631.74 912.00
  A 0.26 0.26 0.0 0 0 632.00 911.74
  L 632.00 752.26"
/>
</g>
<path fill="#ffffff" d="
  M 672.00 632.53
  L 672.00 951.47
  A 0.53 0.53 0.0 0 1 671.47 952.00
  L 432.53 952.00
  A 0.53 0.53 0.0 0 1 432.00 951.47
  L 432.00 392.53
  A 0.53 0.53 0.0 0 0 431.47 392.00
  L 192.53 392.00
  A 0.53 0.53 0.0 0 1 192.00 391.47
  L 192.00 152.53
  A 0.53 0.53 0.0 0 1 192.53 152.00
  L 271.47 152.00
  A 0.53 0.53 0.0 0 0 272.00 151.47
  L 272.00 72.53
  A 0.53 0.53 0.0 0 1 272.53 72.00
  L 751.47 72.00
  A 0.53 0.53 0.0 0 1 752.00 72.53
  L 752.00 151.47
  A 0.53 0.53 0.0 0 0 752.53 152.00
  L 831.47 152.00
  A 0.53 0.53 0.0 0 1 832.00 152.53
  L 832.00 551.47
  A 0.53 0.53 0.0 0 1 831.47 552.00
  L 752.53 552.00
  A 0.53 0.53 0.0 0 0 752.00 552.53
  L 752.00 631.47
  A 0.53 0.53 0.0 0 1 751.47 632.00
  L 672.53 632.00
  A 0.53 0.53 0.0 0 0 672.00 632.53
  Z
  M 712.33 192.00
  A 0.33 0.33 0.0 0 1 712.00 191.67
  L 712.00 112.33
  A 0.33 0.33 0.0 0 0 711.67 112.00
  L 312.33 112.00
  A 0.33 0.33 0.0 0 0 312.00 112.33
  L 312.00 191.67
  A 0.33 0.33 0.0 0 1 311.67 192.00
  L 232.33 192.00
  A 0.33 0.33 0.0 0 0 232.00 192.33
  L 232.00 351.67
  A 0.33 0.33 0.0 0 0 232.33 352.00
  L 391.67 352.00
  A 0.33 0.33 0.0 0 0 392.00 351.67
  L 392.00 272.33
  A 0.33 0.33 0.0 0 1 392.33 272.00
  L 631.67 272.00
  A 0.33 0.33 0.0 0 1 632.00 272.33
  L 632.00 431.67
  A 0.33 0.33 0.0 0 1 631.67 432.00
  L 472.33 432.00
  A 0.33 0.33 0.0 0 0 472.00 432.33
  L 472.00 671.67
  A 0.33 0.33 0.0 0 0 472.33 672.00
  L 631.67 672.00
  A 0.33 0.33 0.0 0 0 632.00 671.67
  L 632.00 592.33
  A 0.33 0.33 0.0 0 1 632.33 592.00
  L 711.67 592.00
  A 0.33 0.33 0.0 0 0 712.00 591.67
  L 712.00 512.33
  A 0.33 0.33 0.0 0 1 712.33 512.00
  L 791.67 512.00
  A 0.33 0.33 0.0 0 0 792.00 511.67
  L 792.00 192.33
  A 0.33 0.33 0.0 0 0 791.67 192.00
  L 712.33 192.00
  Z
  M 592.00 312.27
  A 0.27 0.27 0.0 0 0 591.73 312.00
  L 432.27 312.00
  A 0.27 0.27 0.0 0 0 432.00 312.27
  L 432.00 391.73
  A 0.27 0.27 0.0 0 0 432.27 392.00
  L 591.73 392.00
  A 0.27 0.27 0.0 0 0 592.00 391.73
  L 592.00 312.27
  Z
  M 632.00 752.26
  A 0.26 0.26 0.0 0 0 631.74 752.00
  L 472.26 752.00
  A 0.26 0.26 0.0 0 0 472.00 752.26
  L 472.00 911.74
  A 0.26 0.26 0.0 0 0 472.26 912.00
  L 631.74 912.00
  A 0.26 0.26 0.0 0 0 632.00 911.74
  L 632.00 752.26
  Z"
/>
<path fill="#000000" d="
  M 712.33 192.00
  L 791.67 192.00
  A 0.33 0.33 0.0 0 1 792.00 192.33
  L 792.00 511.67
  A 0.33 0.33 0.0 0 1 791.67 512.00
  L 712.33 512.00
  A 0.33 0.33 0.0 0 0 712.00 512.33
  L 712.00 591.67
  A 0.33 0.33 0.0 0 1 711.67 592.00
  L 632.33 592.00
  A 0.33 0.33 0.0 0 0 632.00 592.33
  L 632.00 671.67
  A 0.33 0.33 0.0 0 1 631.67 672.00
  L 472.33 672.00
  A 0.33 0.33 0.0 0 1 472.00 671.67
  L 472.00 432.33
  A 0.33 0.33 0.0 0 1 472.33 432.00
  L 631.67 432.00
  A 0.33 0.33 0.0 0 0 632.00 431.67
  L 632.00 272.33
  A 0.33 0.33 0.0 0 0 631.67 272.00
  L 392.33 272.00
  A 0.33 0.33 0.0 0 0 392.00 272.33
  L 392.00 351.67
  A 0.33 0.33 0.0 0 1 391.67 352.00
  L 232.33 352.00
  A 0.33 0.33 0.0 0 1 232.00 351.67
  L 232.00 192.33
  A 0.33 0.33 0.0 0 1 232.33 192.00
  L 311.67 192.00
  A 0.33 0.33 0.0 0 0 312.00 191.67
  L 312.00 112.33
  A 0.33 0.33 0.0 0 1 312.33 112.00
  L 711.67 112.00
  A 0.33 0.33 0.0 0 1 712.00 112.33
  L 712.00 191.67
  A 0.33 0.33 0.0 0 0 712.33 192.00
  Z"
/>
<rect fill="#000000" x="472.00" y="752.00" width="160.00" height="160.00" rx="0.26"/>
</svg>
