<?xml version="1.0" encoding="UTF-8" standalone="no"?>
<!DOCTYPE svg PUBLIC "-//W3C//DTD SVG 1.1//EN" "http://www.w3.org/Graphics/SVG/1.1/DTD/svg11.dtd">
<svg xmlns="http://www.w3.org/2000/svg" version="1.1" viewBox="0.00 0.00 680.00 680.00">
<path fill="#ffffff" d="
  M 32.26 239.20
  C 33.81 227.55 34.50 216.02 36.61 204.42
  C 39.82 186.90 44.79 170.83 56.46 157.46
  C 74.24 137.09 94.48 131.23 120.50 127.98
  C 137.31 125.88 161.26 124.10 181.80 123.07
  C 294.58 117.46 414.17 118.06 519.37 124.37
  C 529.33 124.96 539.16 126.17 549.07 126.92
  C 563.48 128.00 579.96 130.06 592.87 135.34
  C 616.32 144.95 632.29 163.49 639.52 187.69
  C 644.19 203.35 646.01 219.89 647.38 236.15
  C 647.56 238.25 648.34 240.62 648.48 242.50
  C 652.73 296.58 654.74 347.20 651.43 394.50
  C 650.23 411.73 649.70 429.10 647.42 446.26
  C 645.00 464.42 643.30 482.10 637.43 498.94
  C 628.80 523.73 606.00 542.82 580.47 548.45
  C 574.19 549.83 566.52 551.41 559.43 552.12
  C 540.91 553.95 522.36 555.82 503.75 556.77
  C 407.48 561.64 315.34 561.79 221.30 558.76
  C 199.25 558.05 176.77 557.02 154.78 555.19
  C 137.13 553.73 119.03 552.91 101.56 549.00
  C 69.99 541.95 48.34 520.96 39.86 490.14
  Q 35.92 475.85 34.42 461.56
  C 33.28 450.70 31.65 440.04 30.94 430.11
  Q 29.18 405.41 28.73 397.50
  Q 25.22 335.75 29.31 274.07
  C 30.09 262.38 30.71 250.83 32.26 239.20
  Z
  M 436.01 339.49
  Q 434.86 338.49 434.00 338.00
  C 382.12 308.40 330.20 278.89 278.38 249.18
  Q 277.00 248.39 277.00 249.98
  L 277.00 430.68
  A 0.50 0.50 0.0 0 0 277.75 431.12
  Q 356.46 386.22 435.38 341.08
  Q 436.06 340.69 436.18 340.43
  A 0.85 0.76 -58.4 0 0 436.01 339.49
  Z"
/>
</svg>
