<?xml version="1.0" encoding="UTF-8" standalone="no"?>
<!DOCTYPE svg PUBLIC "-//W3C//DTD SVG 1.1//EN" "http://www.w3.org/Graphics/SVG/1.1/DTD/svg11.dtd">
<svg xmlns="http://www.w3.org/2000/svg" version="1.1" viewBox="0.00 0.00 1400.00 1000.00">
<g stroke-width="2.00" fill="none" stroke-linecap="butt">
<path stroke="#19110b" vector-effect="non-scaling-stroke" d="
  M 300.01 200.05
  L 300.01 399.96"
/>
<path stroke="#3b261e" vector-effect="non-scaling-stroke" d="
  M 300.01 399.96
  L 300.01 499.94"
/>
<path stroke="#563e30" vector-effect="non-scaling-stroke" d="
  M 300.01 499.94
  L 300.00 699.98"
/>
<path stroke="#1f1d1c" vector-effect="non-scaling-stroke" d="
  M 300.00 699.98
  L 200.96 700.05
  A 0.96 0.96 0.0 0 0 200.00 701.01
  L 200.00 798.75
  Q 200.00 800.00 201.25 800.00
  L 299.74 800.00
  Q 300.01 800.00 300.17 800.22
  Q 300.27 800.35 300.33 800.47"
/>
<path stroke="#151413" vector-effect="non-scaling-stroke" d="
  M 300.33 800.47
  Q 299.99 800.93 299.99 801.50
  Q 300.00 849.12 299.94 896.75
  Q 299.93 898.01 300.30 899.37
  Q 300.44 899.88 300.98 899.88
  L 400.05 899.98"
/>
<path stroke="#0b0b0a" vector-effect="non-scaling-stroke" d="
  M 400.05 899.98
  L 499.94 899.98"
/>
<path stroke="#3b261e" vector-effect="non-scaling-stroke" d="
  M 499.94 899.98
  L 599.93 900.00"
/>
<path stroke="#4a3525" vector-effect="non-scaling-stroke" d="
  M 599.93 900.00
  L 800.02 900.00"
/>
<path stroke="#3b261e" vector-effect="non-scaling-stroke" d="
  M 800.02 900.00
  L 900.28 899.97"
/>
<path stroke="#0b0b0a" vector-effect="non-scaling-stroke" d="
  M 900.28 899.97
  Q 901.85 900.00 903.50 899.99
  Q 951.31 899.96 999.13 899.99
  Q 999.17 899.66 999.97 899.72"
/>
<path stroke="#151413" vector-effect="non-scaling-stroke" d="
  M 999.97 899.72
  L 1098.31 899.97
  Q 1099.96 899.97 1099.96 898.32
  L 1099.97 800.37"
/>
<path stroke="#1f1d1c" vector-effect="non-scaling-stroke" d="
  M 1099.97 800.37
  Q 1099.51 800.32 1100.11 800.06
  Q 1100.24 800.00 1100.41 800.00
  Q 1149.32 800.00 1198.76 800.00
  A 1.24 1.24 0.0 0 0 1200.00 798.76
  L 1200.00 701.75
  A 1.77 1.77 0.0 0 0 1198.23 699.98
  L 1099.99 699.99"
/>
<path stroke="#563e30" vector-effect="non-scaling-stroke" d="
  M 1099.99 699.99
  L 1099.99 499.93"
/>
<path stroke="#3b261e" vector-effect="non-scaling-stroke" d="
  M 1099.99 499.93
  L 1099.99 399.98"
/>
<path stroke="#19110b" vector-effect="non-scaling-stroke" d="
  M 1099.99 399.98
  L 1099.99 200.02"
/>
<path stroke="#211711" vector-effect="non-scaling-stroke" d="
  M 1099.99 200.02
  L 1099.99 102.07
  A 2.05 2.05 0.0 0 0 1097.94 100.02
  L 899.85 100.01"
/>
<path stroke="#19110b" vector-effect="non-scaling-stroke" d="
  M 899.85 100.01
  L 799.99 100.01"
/>
<path stroke="#211711" vector-effect="non-scaling-stroke" d="
  M 799.99 100.01
  L 699.99 100.01"
/>
<path stroke="#271d12" vector-effect="non-scaling-stroke" d="
  M 699.99 100.01
  L 499.87 100.01"
/>
<path stroke="#19110b" vector-effect="non-scaling-stroke" d="
  M 499.87 100.01
  L 399.99 100.01"
/>
<path stroke="#211711" vector-effect="non-scaling-stroke" d="
  M 399.99 100.01
  L 301.14 100.01
  A 1.13 1.13 0.0 0 0 300.01 101.14
  L 300.01 200.05"
/>
<path stroke="#3a271b" vector-effect="non-scaling-stroke" d="
  M 399.99 100.01
  L 399.99 199.39
  A 0.61 0.61 0.0 0 1 399.38 200.00
  L 300.01 200.05"
/>
<path stroke="#402d1c" vector-effect="non-scaling-stroke" d="
  M 499.87 100.01
  L 500.29 199.99"
/>
<path stroke="#543728" vector-effect="non-scaling-stroke" d="
  M 500.29 199.99
  L 500.01 299.99"
/>
<path stroke="#634630" vector-effect="non-scaling-stroke" d="
  M 500.01 299.99
  L 400.54 299.99
  A 0.54 0.54 0.0 0 0 400.00 300.53
  L 400.00 399.99"
/>
<path stroke="#543728" vector-effect="non-scaling-stroke" d="
  M 400.00 399.99
  L 300.01 399.96"
/>
<path stroke="#855b43" vector-effect="non-scaling-stroke" d="
  M 599.98 200.01
  L 600.03 300.00"
/>
<path stroke="#9c6c52" vector-effect="non-scaling-stroke" d="
  M 600.03 300.00
  Q 600.00 300.01 599.98 300.01"
/>
<path stroke="#90644e" vector-effect="non-scaling-stroke" d="
  M 599.98 300.01
  L 500.71 300.01"
/>
<path stroke="#855b43" vector-effect="non-scaling-stroke" d="
  M 500.71 300.01
  L 500.01 299.99"
/>
<path stroke="#a07355" vector-effect="non-scaling-stroke" d="
  M 500.71 300.01
  L 500.48 300.12
  Q 499.98 300.36 499.98 300.91
  L 500.00 399.50
  A 0.53 0.53 0.0 0 1 499.47 400.03
  L 400.00 400.02"
/>
<path stroke="#855b43" vector-effect="non-scaling-stroke" d="
  M 400.00 400.02
  Q 400.00 400.01 400.00 399.99"
/>
<path stroke="#473322" vector-effect="non-scaling-stroke" d="
  M 699.99 100.01
  L 699.99 200.00"
/>
<path stroke="#715237" vector-effect="non-scaling-stroke" d="
  M 699.99 200.00
  L 599.98 200.01"
/>
<path stroke="#61432f" vector-effect="non-scaling-stroke" d="
  M 599.98 200.01
  L 500.29 199.99"
/>
<path stroke="#baa69d" vector-effect="non-scaling-stroke" d="
  M 399.99 500.00
  Q 399.93 500.37 400.00 500.47"
/>
<path stroke="#90644e" vector-effect="non-scaling-stroke" d="
  M 400.00 500.47
  Q 399.15 500.00 398.75 500.00
  Q 349.46 500.05 300.01 499.94"
/>
<path stroke="#855b43" vector-effect="non-scaling-stroke" d="
  M 800.00 200.00
  L 800.00 300.00"
/>
<path stroke="#a07355" vector-effect="non-scaling-stroke" d="
  M 800.00 300.00
  Q 799.29 300.14 798.79 300.02"
/>
<path stroke="#ab7b59" vector-effect="non-scaling-stroke" d="
  M 798.79 300.02
  L 600.03 300.00"
/>
<path stroke="#b78464" vector-effect="non-scaling-stroke" d="
  M 599.98 300.01
  L 600.00 399.53
  Q 600.00 400.00 599.53 400.00
  L 500.52 399.99
  Q 500.04 399.99 500.04 400.48
  L 500.08 499.99"
/>
<path stroke="#695e57" vector-effect="non-scaling-stroke" d="
  M 500.08 499.99
  Q 500.04 500.00 500.00 500.01"
/>
<path stroke="#d5beb0" vector-effect="non-scaling-stroke" d="
  M 500.00 500.01
  L 399.99 500.00"
/>
<path stroke="#90644e" vector-effect="non-scaling-stroke" d="
  M 399.99 500.00
  L 400.00 400.02"
/>
<path stroke="#b78464" vector-effect="non-scaling-stroke" d="
  M 798.79 300.02
  Q 800.00 300.22 800.00 302.25
  Q 800.00 350.60 800.00 398.76
  A 1.22 1.22 0.0 0 0 801.22 399.98
  L 898.75 400.03
  Q 899.98 400.03 899.98 401.30
  L 899.99 499.98"
/>
<path stroke="#75655b" vector-effect="non-scaling-stroke" d="
  M 899.99 499.98
  L 800.66 500.07
  Q 800.07 500.07 800.07 500.66
  L 800.06 599.96"
/>
<path stroke="#765947" vector-effect="non-scaling-stroke" d="
  M 800.06 599.96
  Q 800.01 599.98 799.97 600.00"
/>
<path stroke="#806250" vector-effect="non-scaling-stroke" d="
  M 799.97 600.00
  L 600.00 600.00"
/>
<path stroke="#75655b" vector-effect="non-scaling-stroke" d="
  M 600.00 600.00
  L 600.00 500.75
  Q 600.00 500.00 599.24 500.00
  L 500.08 499.99"
/>
<path stroke="#3a271b" vector-effect="non-scaling-stroke" d="
  M 799.99 100.01
  L 800.00 200.00"
/>
<path stroke="#6b4c36" vector-effect="non-scaling-stroke" d="
  M 800.00 200.00
  L 699.99 200.00"
/>
<path stroke="#939fa6" vector-effect="non-scaling-stroke" d="
  M 500.00 500.01
  L 500.00 599.99"
/>
<path stroke="#959392" vector-effect="non-scaling-stroke" d="
  M 500.00 599.99
  L 400.00 600.00"
/>
<path stroke="#d5beb0" vector-effect="non-scaling-stroke" d="
  M 400.00 500.47
  L 400.00 600.00"
/>
<path stroke="#6b5243" vector-effect="non-scaling-stroke" d="
  M 400.00 600.00
  L 400.00 700.02"
/>
<path stroke="#745b4c" vector-effect="non-scaling-stroke" d="
  M 400.00 700.02
  L 300.00 699.98"
/>
<path stroke="#855b43" vector-effect="non-scaling-stroke" d="
  M 900.00 299.99
  L 899.03 300.03"
/>
<path stroke="#90644e" vector-effect="non-scaling-stroke" d="
  M 899.03 300.03
  L 800.00 300.00"
/>
<path stroke="#3a271b" vector-effect="non-scaling-stroke" d="
  M 899.85 100.01
  L 899.99 198.67
  Q 899.99 199.98 901.30 199.98
  L 1099.99 200.02"
/>
<path stroke="#543728" vector-effect="non-scaling-stroke" d="
  M 1099.99 399.98
  L 1000.02 400.00"
/>
<path stroke="#6f4f3b" vector-effect="non-scaling-stroke" d="
  M 1000.02 400.00
  Q 1000.00 399.98 999.99 399.97"
/>
<path stroke="#634630" vector-effect="non-scaling-stroke" d="
  M 999.99 399.97
  L 999.99 300.57
  Q 999.99 299.99 999.41 299.99
  L 900.00 299.99"
/>
<path stroke="#543728" vector-effect="non-scaling-stroke" d="
  M 900.00 299.99
  L 900.00 200.80
  A 0.79 0.79 0.0 0 0 899.21 200.01
  L 800.00 200.00"
/>
<path stroke="#a07355" vector-effect="non-scaling-stroke" d="
  M 899.03 300.03
  L 899.44 300.18
  Q 899.99 300.39 899.99 300.97
  L 900.00 398.77
  A 1.22 1.22 0.0 0 0 901.22 399.99
  L 999.99 399.97"
/>
<path stroke="#90644e" vector-effect="non-scaling-stroke" d="
  M 1000.02 400.00
  L 1000.02 499.46
  Q 1000.02 499.97 1000.53 499.97
  L 1099.99 499.93"
/>
<path stroke="#745b4c" vector-effect="non-scaling-stroke" d="
  M 1099.99 699.99
  L 1000.00 700.00"
/>
<path stroke="#5b4435" vector-effect="non-scaling-stroke" d="
  M 1000.00 700.00
  Q 1000.01 650.12 999.97 600.75
  Q 999.97 599.91 999.54 599.99"
/>
<path stroke="#d5beb0" vector-effect="non-scaling-stroke" d="
  M 999.54 599.99
  Q 999.94 599.54 999.94 598.99
  Q 1000.10 549.84 999.96 500.61
  Q 999.96 500.06 999.41 500.06
  L 900.00 500.07"
/>
<path stroke="#695e57" vector-effect="non-scaling-stroke" d="
  M 900.00 500.07
  Q 900.00 500.02 899.99 499.98"
/>
<path stroke="#323c42" vector-effect="non-scaling-stroke" d="
  M 600.00 600.00
  L 500.18 600.27"
/>
<path stroke="#293339" vector-effect="non-scaling-stroke" d="
  M 500.18 600.27
  Q 500.04 599.32 500.00 599.99"
/>
<path stroke="#1b1918" vector-effect="non-scaling-stroke" d="
  M 899.94 599.99
  L 899.99 700.00"
/>
<path stroke="#201e1d" vector-effect="non-scaling-stroke" d="
  M 899.99 700.00
  L 800.00 700.00"
/>
<path stroke="#503a30" vector-effect="non-scaling-stroke" d="
  M 800.00 700.00
  Q 799.98 700.00 799.97 700.00"
/>
<path stroke="#34302e" vector-effect="non-scaling-stroke" d="
  M 799.97 700.00
  L 799.97 600.00"
/>
<path stroke="#594339" vector-effect="non-scaling-stroke" d="
  M 799.97 700.00
  L 599.99 700.00"
/>
<path stroke="#939fa6" vector-effect="non-scaling-stroke" d="
  M 900.00 500.07
  L 900.00 599.54"
/>
<path stroke="#293339" vector-effect="non-scaling-stroke" d="
  M 900.00 599.54
  Q 899.51 599.93 898.94 599.93
  Q 849.48 600.10 800.06 599.96"
/>
<path stroke="#34302e" vector-effect="non-scaling-stroke" d="
  M 500.18 600.27
  L 500.10 699.31
  A 0.68 0.67 -90.0 0 0 500.77 699.99
  L 599.99 700.00"
/>
<path stroke="#503a30" vector-effect="non-scaling-stroke" d="
  M 599.99 700.00
  L 599.99 800.00"
/>
<path stroke="#503a30" vector-effect="non-scaling-stroke" d="
  M 599.99 800.00
  L 499.97 800.02"
/>
<path stroke="#34302e" vector-effect="non-scaling-stroke" d="
  M 499.97 800.02
  L 499.95 700.57
  Q 499.95 700.04 499.42 700.04
  L 400.00 700.02"
/>
<path stroke="#2a2726" vector-effect="non-scaling-stroke" d="
  M 499.97 800.02
  L 399.50 800.37"
/>
<path stroke="#34302e" vector-effect="non-scaling-stroke" d="
  M 399.50 800.37
  Q 399.05 800.03 398.50 800.03
  Q 350.05 800.00 301.59 800.00
  C 301.05 800.00 300.76 800.22 300.33 800.47"
/>
<path stroke="#858585" vector-effect="non-scaling-stroke" d="
  M 999.54 599.99
  L 899.94 599.99"
/>
<path stroke="#959392" vector-effect="non-scaling-stroke" d="
  M 899.94 599.99
  Q 899.91 599.39 900.00 599.54"
/>
<path stroke="#34302e" vector-effect="non-scaling-stroke" d="
  M 1099.97 800.37
  Q 1098.52 800.01 1097.50 800.01
  Q 1049.50 800.02 1001.50 799.98
  Q 1000.62 799.98 1000.36 800.23"
/>
<path stroke="#2a2726" vector-effect="non-scaling-stroke" d="
  M 1000.36 800.23
  Q 1000.23 800.20 1000.13 800.12
  Q 999.96 800.00 999.75 800.00
  L 901.00 800.00
  A 1.00 0.99 0.0 0 1 900.00 799.01
  L 899.99 700.00"
/>
<path stroke="#242221" vector-effect="non-scaling-stroke" d="
  M 1000.00 700.00
  L 899.99 700.00"
/>
<path stroke="#201e1d" vector-effect="non-scaling-stroke" d="
  M 1000.36 800.23
  L 999.97 899.72"
/>
<path stroke="#463128" vector-effect="non-scaling-stroke" d="
  M 900.28 899.97
  L 900.01 800.64
  A 0.64 0.64 0.0 0 0 899.37 800.00
  L 800.01 800.00"
/>
<path stroke="#463128" vector-effect="non-scaling-stroke" d="
  M 800.00 700.00
  L 800.01 800.00"
/>
<path stroke="#855b43" vector-effect="non-scaling-stroke" d="
  M 800.01 800.00
  L 599.99 800.00"
/>
<path stroke="#855b43" vector-effect="non-scaling-stroke" d="
  M 800.01 800.00
  L 800.02 900.00"
/>
<path stroke="#855b43" vector-effect="non-scaling-stroke" d="
  M 599.99 800.00
  L 599.93 900.00"
/>
<path stroke="#463128" vector-effect="non-scaling-stroke" d="
  M 499.97 800.02
  L 499.94 899.98"
/>
<path stroke="#201e1d" vector-effect="non-scaling-stroke" d="
  M 399.50 800.37
  Q 399.61 800.36 399.75 800.54
  Q 399.99 800.81 399.99 801.18
  L 400.05 899.98"
/>
<path stroke="#c69675" vector-effect="non-scaling-stroke" d="
  M 699.98 400.38
  A 0.38 0.38 0.0 0 0 699.60 400.00
  L 600.38 400.00
  A 0.38 0.38 0.0 0 0 600.00 400.38
  L 600.00 499.62
  A 0.38 0.38 0.0 0 0 600.38 500.00
  L 699.60 500.00
  A 0.38 0.38 0.0 0 0 699.98 499.62
  L 699.98 400.38"
/>
</g>
<path fill="#000000" d="
  M 300.33 0.00
  L 1099.89 0.00
  L 1099.95 98.45
  Q 1099.95 100.00 1101.50 100.00
  L 1199.50 100.00
  A 0.50 0.50 0.0 0 1 1200.00 100.50
  L 1200.00 699.00
  A 1.00 1.00 0.0 0 0 1201.00 700.00
  L 1299.50 700.01
  A 0.50 0.49 0.0 0 1 1300.00 700.50
  L 1300.00 799.50
  Q 1300.00 800.00 1299.50 800.00
  L 1200.50 800.00
  Q 1200.00 800.00 1200.00 800.50
  L 1200.00 899.50
  A 0.50 0.50 0.0 0 1 1199.50 900.00
  L 1100.77 900.00
  A 0.79 0.79 0.0 0 0 1099.98 900.79
  L 1099.95 1000.00
  L 299.98 1000.00
  L 299.99 901.22
  A 1.22 1.22 0.0 0 0 298.77 900.00
  L 200.50 900.00
  Q 200.00 900.00 200.00 899.50
  L 200.00 800.75
  A 0.75 0.75 0.0 0 0 199.25 800.00
  L 100.25 800.00
  A 0.25 0.25 0.0 0 1 100.00 799.75
  L 100.00 701.00
  A 1.00 1.00 0.0 0 1 101.00 700.00
  L 199.50 700.00
  Q 200.00 700.00 200.00 699.50
  L 200.00 101.00
  A 1.00 1.00 0.0 0 1 201.00 100.00
  L 299.27 100.00
  A 0.80 0.80 0.0 0 0 300.07 99.20
  L 300.33 0.00
  Z
  M 300.01 200.05
  L 300.01 399.96
  L 300.01 499.94
  L 300.00 699.98
  L 200.96 700.05
  A 0.96 0.96 0.0 0 0 200.00 701.01
  L 200.00 798.75
  Q 200.00 800.00 201.25 800.00
  L 299.74 800.00
  Q 300.01 800.00 300.17 800.22
  Q 300.27 800.35 300.33 800.47
  Q 299.99 800.93 299.99 801.50
  Q 300.00 849.12 299.94 896.75
  Q 299.93 898.01 300.30 899.37
  Q 300.44 899.88 300.98 899.88
  L 400.05 899.98
  L 499.94 899.98
  L 599.93 900.00
  L 800.02 900.00
  L 900.28 899.97
  Q 901.85 900.00 903.50 899.99
  Q 951.31 899.96 999.13 899.99
  Q 999.17 899.66 999.97 899.72
  L 1098.31 899.97
  Q 1099.96 899.97 1099.96 898.32
  L 1099.97 800.37
  Q 1099.51 800.32 1100.11 800.06
  Q 1100.24 800.00 1100.41 800.00
  Q 1149.32 800.00 1198.76 800.00
  A 1.24 1.24 0.0 0 0 1200.00 798.76
  L 1200.00 701.75
  A 1.77 1.77 0.0 0 0 1198.23 699.98
  L 1099.99 699.99
  L 1099.99 499.93
  L 1099.99 399.98
  L 1099.99 200.02
  L 1099.99 102.07
  A 2.05 2.05 0.0 0 0 1097.94 100.02
  L 899.85 100.01
  L 799.99 100.01
  L 699.99 100.01
  L 499.87 100.01
  L 399.99 100.01
  L 301.14 100.01
  A 1.13 1.13 0.0 0 0 300.01 101.14
  L 300.01 200.05
  Z"
/>
<path fill="#412d21" d="
  M 399.99 100.01
  L 399.99 199.39
  A 0.61 0.61 0.0 0 1 399.38 200.00
  L 300.01 200.05
  L 300.01 101.14
  A 1.13 1.13 0.0 0 1 301.14 100.01
  L 399.99 100.01
  Z"
/>
<path fill="#322115" d="
  M 399.99 100.01
  L 499.87 100.01
  L 500.29 199.99
  L 500.01 299.99
  L 400.54 299.99
  A 0.54 0.54 0.0 0 0 400.00 300.53
  L 400.00 399.99
  L 300.01 399.96
  L 300.01 200.05
  L 399.38 200.00
  A 0.61 0.61 0.0 0 0 399.99 199.39
  L 399.99 100.01
  Z"
/>
<path fill="#4d3923" d="
  M 699.99 100.01
  L 699.99 200.00
  L 599.98 200.01
  L 500.29 199.99
  L 499.87 100.01
  L 699.99 100.01
  Z"
/>
<path fill="#412d21" d="
  M 699.99 100.01
  L 799.99 100.01
  L 800.00 200.00
  L 699.99 200.00
  L 699.99 100.01
  Z"
/>
<path fill="#322115" d="
  M 799.99 100.01
  L 899.85 100.01
  L 899.99 198.67
  Q 899.99 199.98 901.30 199.98
  L 1099.99 200.02
  L 1099.99 399.98
  L 1000.02 400.00
  Q 1000.00 399.98 999.99 399.97
  L 999.99 300.57
  Q 999.99 299.99 999.41 299.99
  L 900.00 299.99
  L 900.00 200.80
  A 0.79 0.79 0.0 0 0 899.21 200.01
  L 800.00 200.00
  L 799.99 100.01
  Z"
/>
<path fill="#412d21" d="
  M 899.85 100.01
  L 1097.94 100.02
  A 2.05 2.05 0.0 0 1 1099.99 102.07
  L 1099.99 200.02
  L 901.30 199.98
  Q 899.99 199.98 899.99 198.67
  L 899.85 100.01
  Z"
/>
<path fill="#754c3b" d="
  M 500.29 199.99
  L 599.98 200.01
  L 600.03 300.00
  Q 600.00 300.01 599.98 300.01
  L 500.71 300.01
  L 500.01 299.99
  L 500.29 199.99
  Z"
/>
<path fill="#946a4a" d="
  M 699.99 200.00
  L 800.00 200.00
  L 800.00 300.00
  Q 799.29 300.14 798.79 300.02
  L 600.03 300.00
  L 599.98 200.01
  L 699.99 200.00
  Z"
/>
<path fill="#754c3b" d="
  M 800.00 200.00
  L 899.21 200.01
  A 0.79 0.79 0.0 0 1 900.00 200.80
  L 900.00 299.99
  L 899.03 300.03
  L 800.00 300.00
  L 800.00 200.00
  Z"
/>
<path fill="#946a4a" d="
  M 500.01 299.99
  L 500.71 300.01
  L 500.48 300.12
  Q 499.98 300.36 499.98 300.91
  L 500.00 399.50
  A 0.53 0.53 0.0 0 1 499.47 400.03
  L 400.00 400.02
  Q 400.00 400.01 400.00 399.99
  L 400.00 300.53
  A 0.54 0.54 0.0 0 1 400.54 299.99
  L 500.01 299.99
  Z"
/>
<path fill="#ab7c60" d="
  M 500.71 300.01
  L 599.98 300.01
  L 600.00 399.53
  Q 600.00 400.00 599.53 400.00
  L 500.52 399.99
  Q 500.04 399.99 500.04 400.48
  L 500.08 499.99
  Q 500.04 500.00 500.00 500.01
  L 399.99 500.00
  L 400.00 400.02
  L 499.47 400.03
  A 0.53 0.53 0.0 0 0 500.00 399.50
  L 499.98 300.91
  Q 499.98 300.36 500.48 300.12
  L 500.71 300.01
  Z"
/>
<path fill="#c28b68" d="
  M 599.98 300.01
  Q 600.00 300.01 600.03 300.00
  L 798.79 300.02
  Q 800.00 300.22 800.00 302.25
  Q 800.00 350.60 800.00 398.76
  A 1.22 1.22 0.0 0 0 801.22 399.98
  L 898.75 400.03
  Q 899.98 400.03 899.98 401.30
  L 899.99 499.98
  L 800.66 500.07
  Q 800.07 500.07 800.07 500.66
  L 800.06 599.96
  Q 800.01 599.98 799.97 600.00
  L 600.00 600.00
  L 600.00 500.75
  Q 600.00 500.00 599.24 500.00
  L 500.08 499.99
  L 500.04 400.48
  Q 500.04 399.99 500.52 399.99
  L 599.53 400.00
  Q 600.00 400.00 600.00 399.53
  L 599.98 300.01
  Z
  M 699.98 400.38
  A 0.38 0.38 0.0 0 0 699.60 400.00
  L 600.38 400.00
  A 0.38 0.38 0.0 0 0 600.00 400.38
  L 600.00 499.62
  A 0.38 0.38 0.0 0 0 600.38 500.00
  L 699.60 500.00
  A 0.38 0.38 0.0 0 0 699.98 499.62
  L 699.98 400.38
  Z"
/>
<path fill="#ab7c60" d="
  M 798.79 300.02
  Q 799.29 300.14 800.00 300.00
  L 899.03 300.03
  L 899.44 300.18
  Q 899.99 300.39 899.99 300.97
  L 900.00 398.77
  A 1.22 1.22 0.0 0 0 901.22 399.99
  L 999.99 399.97
  Q 1000.00 399.98 1000.02 400.00
  L 1000.02 499.46
  Q 1000.02 499.97 1000.53 499.97
  L 1099.99 499.93
  L 1099.99 699.99
  L 1000.00 700.00
  Q 1000.01 650.12 999.97 600.75
  Q 999.97 599.91 999.54 599.99
  Q 999.94 599.54 999.94 598.99
  Q 1000.10 549.84 999.96 500.61
  Q 999.96 500.06 999.41 500.06
  L 900.00 500.07
  Q 900.00 500.02 899.99 499.98
  L 899.98 401.30
  Q 899.98 400.03 898.75 400.03
  L 801.22 399.98
  A 1.22 1.22 0.0 0 1 800.00 398.76
  Q 800.00 350.60 800.00 302.25
  Q 800.00 300.22 798.79 300.02
  Z"
/>
<path fill="#946a4a" d="
  M 899.03 300.03
  L 900.00 299.99
  L 999.41 299.99
  Q 999.99 299.99 999.99 300.57
  L 999.99 399.97
  L 901.22 399.99
  A 1.22 1.22 0.0 0 1 900.00 398.77
  L 899.99 300.97
  Q 899.99 300.39 899.44 300.18
  L 899.03 300.03
  Z"
/>
<path fill="#754c3b" d="
  M 300.01 399.96
  L 400.00 399.99
  Q 400.00 400.01 400.00 400.02
  L 399.99 500.00
  Q 399.93 500.37 400.00 500.47
  Q 399.15 500.00 398.75 500.00
  Q 349.46 500.05 300.01 499.94
  L 300.01 399.96
  Z"
/>
<path fill="#754c3b" d="
  M 1099.99 399.98
  L 1099.99 499.93
  L 1000.53 499.97
  Q 1000.02 499.97 1000.02 499.46
  L 1000.02 400.00
  L 1099.99 399.98
  Z"
/>
<rect fill="#caa182" x="600.00" y="400.00" width="99.98" height="100.00" rx="0.38"/>
<path fill="#ab7c60" d="
  M 300.01 499.94
  Q 349.46 500.05 398.75 500.00
  Q 399.15 500.00 400.00 500.47
  L 400.00 600.00
  L 400.00 700.02
  L 300.00 699.98
  L 300.01 499.94
  Z"
/>
<path fill="#273f4d" d="
  M 899.99 499.98
  Q 900.00 500.02 900.00 500.07
  L 900.00 599.54
  Q 899.51 599.93 898.94 599.93
  Q 849.48 600.10 800.06 599.96
  L 800.07 500.66
  Q 800.07 500.07 800.66 500.07
  L 899.99 499.98
  Z"
/>
<path fill="#ffffff" d="
  M 399.99 500.00
  L 500.00 500.01
  L 500.00 599.99
  L 400.00 600.00
  L 400.00 500.47
  Q 399.93 500.37 399.99 500.00
  Z"
/>
<path fill="#273f4d" d="
  M 500.00 500.01
  Q 500.04 500.00 500.08 499.99
  L 599.24 500.00
  Q 600.00 500.00 600.00 500.75
  L 600.00 600.00
  L 500.18 600.27
  Q 500.04 599.32 500.00 599.99
  L 500.00 500.01
  Z"
/>
<path fill="#ffffff" d="
  M 999.54 599.99
  L 899.94 599.99
  Q 899.91 599.39 900.00 599.54
  L 900.00 500.07
  L 999.41 500.06
  Q 999.96 500.06 999.96 500.61
  Q 1000.10 549.84 999.94 598.99
  Q 999.94 599.54 999.54 599.99
  Z"
/>
<path fill="#2a2725" d="
  M 900.00 599.54
  Q 899.91 599.39 899.94 599.99
  L 899.99 700.00
  L 800.00 700.00
  Q 799.98 700.00 799.97 700.00
  L 799.97 600.00
  Q 800.01 599.98 800.06 599.96
  Q 849.48 600.10 898.94 599.93
  Q 899.51 599.93 900.00 599.54
  Z"
/>
<path fill="#2a2725" d="
  M 500.00 599.99
  Q 500.04 599.32 500.18 600.27
  L 500.10 699.31
  A 0.68 0.67 -90.0 0 0 500.77 699.99
  L 599.99 700.00
  L 599.99 800.00
  L 499.97 800.02
  L 499.95 700.57
  Q 499.95 700.04 499.42 700.04
  L 400.00 700.02
  L 400.00 600.00
  L 500.00 599.99
  Z"
/>
<path fill="#3d3937" d="
  M 600.00 600.00
  L 799.97 600.00
  L 799.97 700.00
  L 599.99 700.00
  L 500.77 699.99
  A 0.68 0.67 90.0 0 1 500.10 699.31
  L 500.18 600.27
  L 600.00 600.00
  Z"
/>
<path fill="#0b0b0a" d="
  M 899.94 599.99
  L 999.54 599.99
  Q 999.97 599.91 999.97 600.75
  Q 1000.01 650.12 1000.00 700.00
  L 899.99 700.00
  L 899.94 599.99
  Z"
/>
<path fill="#3d3937" d="
  M 300.00 699.98
  L 400.00 700.02
  L 499.42 700.04
  Q 499.95 700.04 499.95 700.57
  L 499.97 800.02
  L 399.50 800.37
  Q 399.05 800.03 398.50 800.03
  Q 350.05 800.00 301.59 800.00
  C 301.05 800.00 300.76 800.22 300.33 800.47
  Q 300.27 800.35 300.17 800.22
  Q 300.01 800.00 299.74 800.00
  L 201.25 800.00
  Q 200.00 800.00 200.00 798.75
  L 200.00 701.01
  A 0.96 0.96 0.0 0 1 200.96 700.05
  L 300.00 699.98
  Z"
/>
<path fill="#3d3937" d="
  M 1000.00 700.00
  L 1099.99 699.99
  L 1198.23 699.98
  A 1.77 1.77 0.0 0 1 1200.00 701.75
  L 1200.00 798.76
  A 1.24 1.24 0.0 0 1 1198.76 800.00
  Q 1149.32 800.00 1100.41 800.00
  Q 1100.24 800.00 1100.11 800.06
  Q 1099.51 800.32 1099.97 800.37
  Q 1098.52 800.01 1097.50 800.01
  Q 1049.50 800.02 1001.50 799.98
  Q 1000.62 799.98 1000.36 800.23
  Q 1000.23 800.20 1000.13 800.12
  Q 999.96 800.00 999.75 800.00
  L 901.00 800.00
  A 1.00 0.99 0.0 0 1 900.00 799.01
  L 899.99 700.00
  L 1000.00 700.00
  Z"
/>
<path fill="#754c3b" d="
  M 799.97 700.00
  Q 799.98 700.00 800.00 700.00
  L 800.01 800.00
  L 599.99 800.00
  L 599.99 700.00
  L 799.97 700.00
  Z"
/>
<path fill="#161514" d="
  M 800.00 700.00
  L 899.99 700.00
  L 900.00 799.01
  A 1.00 0.99 -0.0 0 0 901.00 800.00
  L 999.75 800.00
  Q 999.96 800.00 1000.13 800.12
  Q 1000.23 800.20 1000.36 800.23
  L 999.97 899.72
  Q 999.17 899.66 999.13 899.99
  Q 951.31 899.96 903.50 899.99
  Q 901.85 900.00 900.28 899.97
  L 900.01 800.64
  A 0.64 0.64 0.0 0 0 899.37 800.00
  L 800.01 800.00
  L 800.00 700.00
  Z"
/>
<path fill="#2a2725" d="
  M 399.50 800.37
  Q 399.61 800.36 399.75 800.54
  Q 399.99 800.81 399.99 801.18
  L 400.05 899.98
  L 300.98 899.88
  Q 300.44 899.88 300.30 899.37
  Q 299.93 898.01 299.94 896.75
  Q 300.00 849.12 299.99 801.50
  Q 299.99 800.93 300.33 800.47
  C 300.76 800.22 301.05 800.00 301.59 800.00
  Q 350.05 800.00 398.50 800.03
  Q 399.05 800.03 399.50 800.37
  Z"
/>
<path fill="#161514" d="
  M 499.97 800.02
  L 499.94 899.98
  L 400.05 899.98
  L 399.99 801.18
  Q 399.99 800.81 399.75 800.54
  Q 399.61 800.36 399.50 800.37
  L 499.97 800.02
  Z"
/>
<path fill="#754c3b" d="
  M 499.97 800.02
  L 599.99 800.00
  L 599.93 900.00
  L 499.94 899.98
  L 499.97 800.02
  Z"
/>
<path fill="#946a4a" d="
  M 599.99 800.00
  L 800.01 800.00
  L 800.02 900.00
  L 599.93 900.00
  L 599.99 800.00
  Z"
/>
<path fill="#754c3b" d="
  M 800.01 800.00
  L 899.37 800.00
  A 0.64 0.64 0.0 0 1 900.01 800.64
  L 900.28 899.97
  L 800.02 900.00
  L 800.01 800.00
  Z"
/>
<path fill="#2a2725" d="
  M 1099.97 800.37
  L 1099.96 898.32
  Q 1099.96 899.97 1098.31 899.97
  L 999.97 899.72
  L 1000.36 800.23
  Q 1000.62 799.98 1001.50 799.98
  Q 1049.50 800.02 1097.50 800.01
  Q 1098.52 800.01 1099.97 800.37
  Z"
/>
</svg>
