<?xml version="1.0" encoding="UTF-8" standalone="no"?>
<!DOCTYPE svg PUBLIC "-//W3C//DTD SVG 1.1//EN" "http://www.w3.org/Graphics/SVG/1.1/DTD/svg11.dtd">
<svg xmlns="http://www.w3.org/2000/svg" version="1.1" viewBox="0.00 0.00 1400.00 1000.00">
<g stroke-width="2.00" fill="none" stroke-linecap="butt">
<path stroke="#593a2e" vector-effect="non-scaling-stroke" d="
  M 300.00 400.00
  L 200.50 400.01
  Q 200.00 400.01 200.00 400.51
  L 200.00 499.02
  A 0.99 0.99 0.0 0 0 200.99 500.01
  L 300.10 500.00"
/>
<path stroke="#0f0e12" vector-effect="non-scaling-stroke" d="
  M 300.10 500.00
  L 300.00 599.19
  Q 300.00 599.39 300.16 599.52
  Q 300.26 599.61 300.28 599.77"
/>
<path stroke="#161518" vector-effect="non-scaling-stroke" d="
  M 300.28 599.77
  Q 300.32 600.31 300.06 600.56
  Q 299.93 650.23 300.03 700.00"
/>
<path stroke="#766f80" vector-effect="non-scaling-stroke" d="
  M 300.03 700.00
  L 300.01 800.01"
/>
<path stroke="#5f586b" vector-effect="non-scaling-stroke" d="
  M 300.01 800.01
  L 200.51 800.00
  A 0.51 0.51 0.0 0 0 200.00 800.51
  L 200.00 899.25
  A 0.74 0.74 0.0 0 0 200.74 899.99
  L 400.00 899.99"
/>
<path stroke="#161518" vector-effect="non-scaling-stroke" d="
  M 400.00 899.99
  L 500.00 899.98"
/>
<path stroke="#766f80" vector-effect="non-scaling-stroke" d="
  M 500.00 899.98
  Q 500.02 899.97 500.03 899.96
  Q 500.06 899.94 500.10 899.94
  L 900.00 899.97"
/>
<path stroke="#161518" vector-effect="non-scaling-stroke" d="
  M 900.00 899.97
  L 1000.00 899.97"
/>
<path stroke="#5f586b" vector-effect="non-scaling-stroke" d="
  M 1000.00 899.97
  L 1199.49 900.00
  A 0.51 0.51 0.0 0 0 1200.00 899.49
  L 1200.00 800.51
  Q 1200.00 800.01 1199.50 800.01
  L 1099.98 800.02"
/>
<path stroke="#766f80" vector-effect="non-scaling-stroke" d="
  M 1099.98 800.02
  L 1099.94 700.24
  Q 1099.94 700.09 1099.84 699.97
  Q 1099.75 699.87 1099.71 699.73"
/>
<path stroke="#161518" vector-effect="non-scaling-stroke" d="
  M 1099.71 699.73
  L 1100.00 600.09
  Q 1100.00 600.06 1099.97 600.06
  Q 1099.96 600.05 1099.95 600.05"
/>
<path stroke="#0f0e12" vector-effect="non-scaling-stroke" d="
  M 1099.95 600.05
  L 1099.93 500.00"
/>
<path stroke="#593a2e" vector-effect="non-scaling-stroke" d="
  M 1099.93 500.00
  L 1199.46 500.01
  A 0.54 0.54 0.0 0 0 1200.00 499.47
  L 1200.00 400.51
  A 0.52 0.51 -90.0 0 0 1199.49 399.99
  L 1099.97 400.00"
/>
<path stroke="#0f0e12" vector-effect="non-scaling-stroke" d="
  M 1099.97 400.00
  L 1099.99 102.73
  Q 1099.99 100.00 1097.26 100.00
  L 902.00 100.00
  A 2.00 1.99 90.0 0 0 900.01 102.00
  L 900.00 199.22
  A 0.78 0.78 0.0 0 1 899.22 200.00
  L 800.50 200.00
  Q 800.34 200.00 800.25 200.13
  Q 800.16 200.25 800.00 200.30"
/>
<path stroke="#77563e" vector-effect="non-scaling-stroke" d="
  M 800.00 200.30
  L 600.00 200.01"
/>
<path stroke="#0f0e12" vector-effect="non-scaling-stroke" d="
  M 600.00 200.01
  L 500.54 200.00
  Q 500.37 200.00 500.26 200.14
  Q 500.18 200.23 500.00 200.25"
/>
<path stroke="#5f586b" vector-effect="non-scaling-stroke" d="
  M 500.00 200.25
  Q 499.51 199.82 499.95 200.02"
/>
<path stroke="#0f0e12" vector-effect="non-scaling-stroke" d="
  M 499.95 200.02
  L 499.94 102.50
  Q 499.94 100.00 497.44 100.00
  L 302.01 100.00
  A 2.01 2.01 0.0 0 0 300.00 102.01
  L 300.00 400.00"
/>
<path stroke="#6e667c" vector-effect="non-scaling-stroke" d="
  M 499.95 200.02
  L 400.57 200.03
  Q 400.03 200.03 400.03 200.57
  L 400.01 299.95"
/>
<path stroke="#847d91" vector-effect="non-scaling-stroke" d="
  M 400.01 299.95
  L 400.00 400.01"
/>
<path stroke="#67483f" vector-effect="non-scaling-stroke" d="
  M 400.00 400.01
  L 300.00 400.00"
/>
<path stroke="#6e667c" vector-effect="non-scaling-stroke" d="
  M 500.00 200.25
  L 500.00 299.95"
/>
<path stroke="#d5c7ea" vector-effect="non-scaling-stroke" d="
  M 500.00 299.95
  L 400.01 299.95"
/>
<path stroke="#be8362" vector-effect="non-scaling-stroke" d="
  M 500.02 400.00
  L 500.00 500.00"
/>
<path stroke="#b99594" vector-effect="non-scaling-stroke" d="
  M 500.00 500.00
  L 400.00 500.00"
/>
<path stroke="#67483f" vector-effect="non-scaling-stroke" d="
  M 400.00 500.00
  L 300.10 500.00"
/>
<path stroke="#968fa0" vector-effect="non-scaling-stroke" d="
  M 500.00 300.50
  L 500.00 400.00"
/>
<path stroke="#cea9ad" vector-effect="non-scaling-stroke" d="
  M 500.00 400.00
  L 400.00 400.01"
/>
<path stroke="#856450" vector-effect="non-scaling-stroke" d="
  M 600.00 200.01
  L 600.01 300.01"
/>
<path stroke="#2f2e32" vector-effect="non-scaling-stroke" d="
  M 600.01 300.01
  L 501.63 300.00
  A 1.17 1.13 26.0 0 0 500.95 300.22
  Q 500.49 300.55 500.00 300.50"
/>
<path stroke="#847d91" vector-effect="non-scaling-stroke" d="
  M 500.00 300.50
  L 500.00 299.95"
/>
<path stroke="#856955" vector-effect="non-scaling-stroke" d="
  M 900.01 400.00
  L 500.02 400.00"
/>
<path stroke="#795a4e" vector-effect="non-scaling-stroke" d="
  M 500.02 400.00
  Q 500.01 400.00 500.00 400.00"
/>
<path stroke="#292e6f" vector-effect="non-scaling-stroke" d="
  M 599.99 500.00
  L 600.00 600.01"
/>
<path stroke="#3750c3" vector-effect="non-scaling-stroke" d="
  M 600.00 600.01
  Q 550.53 599.95 501.06 600.06
  Q 500.72 600.36 500.00 600.25"
/>
<path stroke="#9a9fdd" vector-effect="non-scaling-stroke" d="
  M 500.00 600.25
  Q 499.93 599.42 500.00 599.96"
/>
<path stroke="#be8362" vector-effect="non-scaling-stroke" d="
  M 900.01 400.00
  L 900.06 499.40
  Q 900.06 499.65 900.29 499.74
  Q 900.49 499.82 900.50 500.00"
/>
<path stroke="#c5a59b" vector-effect="non-scaling-stroke" d="
  M 900.50 500.00
  L 900.00 500.00"
/>
<path stroke="#7f6992" vector-effect="non-scaling-stroke" d="
  M 900.00 500.00
  L 800.01 500.00"
/>
<path stroke="#745746" vector-effect="non-scaling-stroke" d="
  M 800.01 500.00
  L 599.99 500.00"
/>
<path stroke="#7f6992" vector-effect="non-scaling-stroke" d="
  M 599.99 500.00
  L 500.00 500.00"
/>
<path stroke="#6f6a78" vector-effect="non-scaling-stroke" d="
  M 400.00 500.00
  L 400.00 599.96"
/>
<path stroke="#8e8e91" vector-effect="non-scaling-stroke" d="
  M 400.00 599.96
  Q 399.92 600.49 400.00 600.05"
/>
<path stroke="#25232a" vector-effect="non-scaling-stroke" d="
  M 400.00 600.05
  L 300.28 599.77"
/>
<path stroke="#7a7bc3" vector-effect="non-scaling-stroke" d="
  M 500.00 500.00
  L 500.00 599.96"
/>
<path stroke="#e0dbe6" vector-effect="non-scaling-stroke" d="
  M 500.00 599.96
  L 400.00 599.96"
/>
<path stroke="#97765e" vector-effect="non-scaling-stroke" d="
  M 800.00 300.01
  L 600.01 300.01"
/>
<path stroke="#67483f" vector-effect="non-scaling-stroke" d="
  M 1099.97 400.00
  L 1000.00 400.00"
/>
<path stroke="#847d91" vector-effect="non-scaling-stroke" d="
  M 1000.00 400.00
  L 1000.00 299.94"
/>
<path stroke="#6e667c" vector-effect="non-scaling-stroke" d="
  M 1000.00 299.94
  L 999.99 200.75
  A 0.75 0.75 0.0 0 0 999.24 200.00
  L 900.51 200.00
  Q 900.02 200.00 900.02 200.50
  L 900.01 299.95"
/>
<path stroke="#847d91" vector-effect="non-scaling-stroke" d="
  M 900.01 299.95
  L 900.00 300.52"
/>
<path stroke="#2f2e32" vector-effect="non-scaling-stroke" d="
  M 900.00 300.52
  Q 898.53 300.00 896.50 300.00
  Q 848.25 300.00 800.00 300.01"
/>
<path stroke="#856450" vector-effect="non-scaling-stroke" d="
  M 800.00 300.01
  L 800.00 200.30"
/>
<path stroke="#cea9ad" vector-effect="non-scaling-stroke" d="
  M 1000.00 400.00
  L 900.01 400.00"
/>
<path stroke="#968fa0" vector-effect="non-scaling-stroke" d="
  M 900.01 400.00
  L 900.00 300.52"
/>
<path stroke="#67483f" vector-effect="non-scaling-stroke" d="
  M 1099.93 500.00
  L 1000.00 500.00"
/>
<path stroke="#b99594" vector-effect="non-scaling-stroke" d="
  M 1000.00 500.00
  L 900.50 500.00"
/>
<path stroke="#9cb0e6" vector-effect="non-scaling-stroke" d="
  M 500.00 600.25
  L 500.00 700.00"
/>
<path stroke="#dfd8ea" vector-effect="non-scaling-stroke" d="
  M 500.00 700.00
  L 400.01 700.00"
/>
<path stroke="#33457e" vector-effect="non-scaling-stroke" d="
  M 600.00 600.01
  L 600.01 700.00"
/>
<path stroke="#33457e" vector-effect="non-scaling-stroke" d="
  M 600.01 700.00
  L 500.00 700.00"
/>
<path stroke="#764e73" vector-effect="non-scaling-stroke" d="
  M 800.00 700.00
  L 600.01 700.00"
/>
<path stroke="#292e6f" vector-effect="non-scaling-stroke" d="
  M 800.01 500.00
  L 800.01 599.94"
/>
<path stroke="#2b3e78" vector-effect="non-scaling-stroke" d="
  M 800.01 599.94
  Q 800.00 599.97 800.00 600.01"
/>
<path stroke="#25232a" vector-effect="non-scaling-stroke" d="
  M 800.00 600.01
  L 600.00 600.01"
/>
<path stroke="#6f6a78" vector-effect="non-scaling-stroke" d="
  M 1000.00 500.00
  L 1000.00 599.95"
/>
<path stroke="#e0dbe6" vector-effect="non-scaling-stroke" d="
  M 1000.00 599.95
  L 900.00 599.95"
/>
<path stroke="#7a7bc3" vector-effect="non-scaling-stroke" d="
  M 900.00 500.00
  L 900.00 599.95"
/>
<path stroke="#3750c3" vector-effect="non-scaling-stroke" d="
  M 900.00 599.95
  L 800.01 599.94"
/>
<path stroke="#969498" vector-effect="non-scaling-stroke" d="
  M 400.00 600.05
  L 400.01 700.00"
/>
<path stroke="#8c8498" vector-effect="non-scaling-stroke" d="
  M 400.01 700.00
  L 300.03 700.00"
/>
<path stroke="#d5c7ea" vector-effect="non-scaling-stroke" d="
  M 1000.00 299.94
  L 900.01 299.95"
/>
<path stroke="#25232a" vector-effect="non-scaling-stroke" d="
  M 1099.95 600.05
  L 1000.00 600.07"
/>
<path stroke="#8e8e91" vector-effect="non-scaling-stroke" d="
  M 1000.00 600.07
  L 1000.00 599.95"
/>
<path stroke="#d5c7ea" vector-effect="non-scaling-stroke" d="
  M 400.01 700.00
  L 400.03 800.00"
/>
<path stroke="#8c8498" vector-effect="non-scaling-stroke" d="
  M 400.03 800.00
  Q 400.02 800.00 400.00 800.00"
/>
<path stroke="#d5c7ea" vector-effect="non-scaling-stroke" d="
  M 400.00 800.00
  L 300.01 800.01"
/>
<path stroke="#764e73" vector-effect="non-scaling-stroke" d="
  M 600.01 700.00
  L 600.06 799.27
  Q 600.06 799.38 600.18 799.56
  Q 600.23 799.62 600.25 799.71"
/>
<path stroke="#8c8498" vector-effect="non-scaling-stroke" d="
  M 600.25 799.71
  L 500.00 800.00"
/>
<path stroke="#756d83" vector-effect="non-scaling-stroke" d="
  M 500.00 700.00
  L 500.00 800.00"
/>
<path stroke="#756d83" vector-effect="non-scaling-stroke" d="
  M 500.00 800.00
  L 400.03 800.00"
/>
<path stroke="#764e73" vector-effect="non-scaling-stroke" d="
  M 800.00 700.00
  L 799.98 799.75"
/>
<path stroke="#d5a8db" vector-effect="non-scaling-stroke" d="
  M 799.98 799.75
  Q 799.07 799.70 798.75 800.00
  Q 699.93 800.00 601.10 800.00
  Q 600.88 800.00 600.71 799.84
  Q 600.55 799.70 600.25 799.71"
/>
<path stroke="#756d83" vector-effect="non-scaling-stroke" d="
  M 900.00 700.03
  L 900.00 799.99"
/>
<path stroke="#8c8498" vector-effect="non-scaling-stroke" d="
  M 900.00 799.99
  L 799.82 799.97
  Q 799.78 799.97 799.81 799.94
  Q 799.90 799.85 799.98 799.75"
/>
<path stroke="#9cb0e6" vector-effect="non-scaling-stroke" d="
  M 900.00 599.95
  L 900.00 700.00"
/>
<path stroke="#33457e" vector-effect="non-scaling-stroke" d="
  M 900.00 700.00
  L 800.00 700.00"
/>
<path stroke="#33457e" vector-effect="non-scaling-stroke" d="
  M 800.00 700.00
  L 800.00 600.01"
/>
<path stroke="#969498" vector-effect="non-scaling-stroke" d="
  M 1000.00 600.07
  L 1000.00 700.03"
/>
<path stroke="#dfd8ea" vector-effect="non-scaling-stroke" d="
  M 1000.00 700.03
  L 900.00 700.03"
/>
<path stroke="#969498" vector-effect="non-scaling-stroke" d="
  M 900.00 700.03
  Q 900.00 700.02 900.00 700.00"
/>
<path stroke="#8c8498" vector-effect="non-scaling-stroke" d="
  M 1099.71 699.73
  L 1000.02 700.00"
/>
<path stroke="#756d83" vector-effect="non-scaling-stroke" d="
  M 1000.02 700.00
  Q 1000.01 700.01 1000.00 700.03"
/>
<path stroke="#756d83" vector-effect="non-scaling-stroke" d="
  M 400.00 800.00
  L 400.00 899.99"
/>
<path stroke="#8c8498" vector-effect="non-scaling-stroke" d="
  M 900.00 799.99
  L 900.00 899.97"
/>
<path stroke="#8c8498" vector-effect="non-scaling-stroke" d="
  M 500.00 899.98
  L 500.00 800.00"
/>
<path stroke="#756d83" vector-effect="non-scaling-stroke" d="
  M 1000.00 800.00
  L 900.00 799.99"
/>
<path stroke="#756d83" vector-effect="non-scaling-stroke" d="
  M 1000.00 800.03
  L 1000.00 899.97"
/>
<path stroke="#d5c7ea" vector-effect="non-scaling-stroke" d="
  M 1099.98 800.02
  L 1000.00 800.03"
/>
<path stroke="#8c8498" vector-effect="non-scaling-stroke" d="
  M 1000.00 800.03
  Q 1000.00 800.01 1000.00 800.00"
/>
<path stroke="#d5c7ea" vector-effect="non-scaling-stroke" d="
  M 1000.00 800.00
  L 1000.02 700.00"
/>
</g>
<path fill="#000000" d="
  M 300.05 0.00
  L 500.02 0.00
  L 500.01 99.49
  A 0.51 0.51 0.0 0 0 500.52 100.00
  L 899.49 100.00
  A 0.52 0.52 0.0 0 0 900.01 99.48
  L 900.06 0.00
  L 1100.02 0.00
  L 1100.01 99.49
  A 0.51 0.51 0.0 0 0 1100.52 100.00
  L 1199.50 100.00
  Q 1200.00 100.00 1200.00 100.50
  L 1200.00 399.50
  Q 1200.00 400.00 1200.50 400.00
  L 1299.50 400.00
  Q 1300.00 400.00 1300.00 400.50
  L 1300.00 499.50
  A 0.50 0.50 0.0 0 1 1299.50 500.00
  L 1200.50 500.00
  A 0.50 0.50 0.0 0 0 1200.00 500.50
  L 1200.00 799.50
  A 0.50 0.50 0.0 0 0 1200.50 800.00
  L 1299.50 800.00
  Q 1300.00 800.00 1300.00 800.50
  L 1300.00 899.50
  A 0.50 0.50 0.0 0 1 1299.50 900.00
  L 1200.50 900.00
  A 0.53 0.53 0.0 0 0 1199.97 900.53
  L 1199.87 1000.00
  L 200.10 1000.00
  L 200.02 900.52
  Q 200.02 900.00 199.50 900.00
  L 100.50 900.00
  A 0.50 0.50 0.0 0 1 100.00 899.50
  L 100.00 800.50
  A 0.50 0.50 0.0 0 1 100.50 800.00
  L 199.50 800.00
  A 0.50 0.50 0.0 0 0 200.00 799.50
  L 200.00 500.50
  A 0.50 0.50 0.0 0 0 199.50 500.00
  L 100.50 500.00
  A 0.50 0.50 0.0 0 1 100.00 499.50
  L 100.00 400.50
  A 0.50 0.50 0.0 0 1 100.50 400.00
  L 199.50 400.00
  A 0.50 0.50 0.0 0 0 200.00 399.50
  L 200.00 100.50
  A 0.50 0.50 0.0 0 1 200.50 100.00
  L 299.49 100.00
  A 0.52 0.51 -0.0 0 0 300.01 99.49
  L 300.05 0.00
  Z
  M 300.00 400.00
  L 200.50 400.01
  Q 200.00 400.01 200.00 400.51
  L 200.00 499.02
  A 0.99 0.99 0.0 0 0 200.99 500.01
  L 300.10 500.00
  L 300.00 599.19
  Q 300.00 599.39 300.16 599.52
  Q 300.26 599.61 300.28 599.77
  Q 300.32 600.31 300.06 600.56
  Q 299.93 650.23 300.03 700.00
  L 300.01 800.01
  L 200.51 800.00
  A 0.51 0.51 0.0 0 0 200.00 800.51
  L 200.00 899.25
  A 0.74 0.74 0.0 0 0 200.74 899.99
  L 400.00 899.99
  L 500.00 899.98
  Q 500.02 899.97 500.03 899.96
  Q 500.06 899.94 500.10 899.94
  L 900.00 899.97
  L 1000.00 899.97
  L 1199.49 900.00
  A 0.51 0.51 0.0 0 0 1200.00 899.49
  L 1200.00 800.51
  Q 1200.00 800.01 1199.50 800.01
  L 1099.98 800.02
  L 1099.94 700.24
  Q 1099.94 700.09 1099.84 699.97
  Q 1099.75 699.87 1099.71 699.73
  L 1100.00 600.09
  Q 1100.00 600.06 1099.97 600.06
  Q 1099.96 600.05 1099.95 600.05
  L 1099.93 500.00
  L 1199.46 500.01
  A 0.54 0.54 0.0 0 0 1200.00 499.47
  L 1200.00 400.51
  A 0.52 0.51 -90.0 0 0 1199.49 399.99
  L 1099.97 400.00
  L 1099.99 102.73
  Q 1099.99 100.00 1097.26 100.00
  L 902.00 100.00
  A 2.00 1.99 90.0 0 0 900.01 102.00
  L 900.00 199.22
  A 0.78 0.78 0.0 0 1 899.22 200.00
  L 800.50 200.00
  Q 800.34 200.00 800.25 200.13
  Q 800.16 200.25 800.00 200.30
  L 600.00 200.01
  L 500.54 200.00
  Q 500.37 200.00 500.26 200.14
  Q 500.18 200.23 500.00 200.25
  Q 499.51 199.82 499.95 200.02
  L 499.94 102.50
  Q 499.94 100.00 497.44 100.00
  L 302.01 100.00
  A 2.01 2.01 0.0 0 0 300.00 102.01
  L 300.00 400.00
  Z"
/>
<path fill="#1d1c23" d="
  M 499.95 200.02
  L 400.57 200.03
  Q 400.03 200.03 400.03 200.57
  L 400.01 299.95
  L 400.00 400.01
  L 300.00 400.00
  L 300.00 102.01
  A 2.01 2.01 0.0 0 1 302.01 100.00
  L 497.44 100.00
  Q 499.94 100.00 499.94 102.50
  L 499.95 200.02
  Z"
/>
<path fill="#1d1c23" d="
  M 1099.97 400.00
  L 1000.00 400.00
  L 1000.00 299.94
  L 999.99 200.75
  A 0.75 0.75 0.0 0 0 999.24 200.00
  L 900.51 200.00
  Q 900.02 200.00 900.02 200.50
  L 900.01 299.95
  L 900.00 300.52
  Q 898.53 300.00 896.50 300.00
  Q 848.25 300.00 800.00 300.01
  L 800.00 200.30
  Q 800.16 200.25 800.25 200.13
  Q 800.34 200.00 800.50 200.00
  L 899.22 200.00
  A 0.78 0.78 0.0 0 0 900.00 199.22
  L 900.01 102.00
  A 2.00 1.99 -90.0 0 1 902.00 100.00
  L 1097.26 100.00
  Q 1099.99 100.00 1099.99 102.73
  L 1099.97 400.00
  Z"
/>
<path fill="#beb0d5" d="
  M 499.95 200.02
  Q 499.51 199.82 500.00 200.25
  L 500.00 299.95
  L 400.01 299.95
  L 400.03 200.57
  Q 400.03 200.03 400.57 200.03
  L 499.95 200.02
  Z"
/>
<path fill="#1d1c23" d="
  M 600.00 200.01
  L 600.01 300.01
  L 501.63 300.00
  A 1.17 1.13 26.0 0 0 500.95 300.22
  Q 500.49 300.55 500.00 300.50
  L 500.00 299.95
  L 500.00 200.25
  Q 500.18 200.23 500.26 200.14
  Q 500.37 200.00 500.54 200.00
  L 600.00 200.01
  Z"
/>
<path fill="#edab7c" d="
  M 800.00 200.30
  L 800.00 300.01
  L 600.01 300.01
  L 600.00 200.01
  L 800.00 200.30
  Z"
/>
<path fill="#beb0d5" d="
  M 1000.00 299.94
  L 900.01 299.95
  L 900.02 200.50
  Q 900.02 200.00 900.51 200.00
  L 999.24 200.00
  A 0.75 0.75 0.0 0 1 999.99 200.75
  L 1000.00 299.94
  Z"
/>
<path fill="#ebdeff" d="
  M 400.01 299.95
  L 500.00 299.95
  L 500.00 300.50
  L 500.00 400.00
  L 400.00 400.01
  L 400.01 299.95
  Z"
/>
<path fill="#ebdeff" d="
  M 900.01 299.95
  L 1000.00 299.94
  L 1000.00 400.00
  L 900.01 400.00
  L 900.00 300.52
  L 900.01 299.95
  Z"
/>
<path fill="#404040" d="
  M 600.01 300.01
  L 800.00 300.01
  Q 848.25 300.00 896.50 300.00
  Q 898.53 300.00 900.00 300.52
  L 900.01 400.00
  L 500.02 400.00
  Q 500.01 400.00 500.00 400.00
  L 500.00 300.50
  Q 500.49 300.55 500.95 300.22
  A 1.17 1.13 26.0 0 1 501.63 300.00
  L 600.01 300.01
  Z"
/>
<path fill="#b1735b" d="
  M 300.00 400.00
  L 400.00 400.01
  L 500.00 400.00
  Q 500.01 400.00 500.02 400.00
  L 500.00 500.00
  L 400.00 500.00
  L 300.10 500.00
  L 200.99 500.01
  A 0.99 0.99 0.0 0 1 200.00 499.02
  L 200.00 400.51
  Q 200.00 400.01 200.50 400.01
  L 300.00 400.00
  Z"
/>
<path fill="#ca9269" d="
  M 500.02 400.00
  L 900.01 400.00
  L 900.06 499.40
  Q 900.06 499.65 900.29 499.74
  Q 900.49 499.82 900.50 500.00
  L 900.00 500.00
  L 800.01 500.00
  L 599.99 500.00
  L 500.00 500.00
  L 500.02 400.00
  Z"
/>
<path fill="#b1735b" d="
  M 900.01 400.00
  L 1000.00 400.00
  L 1099.97 400.00
  L 1199.49 399.99
  A 0.52 0.51 90.0 0 1 1200.00 400.51
  L 1200.00 499.47
  A 0.54 0.54 0.0 0 1 1199.46 500.01
  L 1099.93 500.00
  L 1000.00 500.00
  L 900.50 500.00
  Q 900.49 499.82 900.29 499.74
  Q 900.06 499.65 900.06 499.40
  L 900.01 400.00
  Z"
/>
<path fill="#1d1c23" d="
  M 300.10 500.00
  L 400.00 500.00
  L 400.00 599.96
  Q 399.92 600.49 400.00 600.05
  L 300.28 599.77
  Q 300.26 599.61 300.16 599.52
  Q 300.00 599.39 300.00 599.19
  L 300.10 500.00
  Z"
/>
<path fill="#c0b7cc" d="
  M 400.00 500.00
  L 500.00 500.00
  L 500.00 599.96
  L 400.00 599.96
  L 400.00 500.00
  Z"
/>
<path fill="#343fba" d="
  M 500.00 500.00
  L 599.99 500.00
  L 600.00 600.01
  Q 550.53 599.95 501.06 600.06
  Q 500.72 600.36 500.00 600.25
  Q 499.93 599.42 500.00 599.96
  L 500.00 500.00
  Z"
/>
<path fill="#1d1c23" d="
  M 599.99 500.00
  L 800.01 500.00
  L 800.01 599.94
  Q 800.00 599.97 800.00 600.01
  L 600.00 600.01
  L 599.99 500.00
  Z"
/>
<path fill="#343fba" d="
  M 800.01 500.00
  L 900.00 500.00
  L 900.00 599.95
  L 800.01 599.94
  L 800.01 500.00
  Z"
/>
<path fill="#c0b7cc" d="
  M 900.00 500.00
  L 900.50 500.00
  L 1000.00 500.00
  L 1000.00 599.95
  L 900.00 599.95
  L 900.00 500.00
  Z"
/>
<path fill="#1d1c23" d="
  M 1000.00 500.00
  L 1099.93 500.00
  L 1099.95 600.05
  L 1000.00 600.07
  L 1000.00 599.95
  L 1000.00 500.00
  Z"
/>
<path fill="#2c2930" d="
  M 300.28 599.77
  L 400.00 600.05
  L 400.01 700.00
  L 300.03 700.00
  Q 299.93 650.23 300.06 600.56
  Q 300.32 600.31 300.28 599.77
  Z"
/>
<path fill="#ffffff" d="
  M 400.00 599.96
  L 500.00 599.96
  Q 499.93 599.42 500.00 600.25
  L 500.00 700.00
  L 400.01 700.00
  L 400.00 600.05
  Q 399.92 600.49 400.00 599.96
  Z"
/>
<path fill="#3960cc" d="
  M 800.01 599.94
  L 900.00 599.95
  L 900.00 700.00
  L 800.00 700.00
  L 800.00 600.01
  Q 800.00 599.97 800.01 599.94
  Z"
/>
<path fill="#ffffff" d="
  M 900.00 599.95
  L 1000.00 599.95
  L 1000.00 600.07
  L 1000.00 700.03
  L 900.00 700.03
  Q 900.00 700.02 900.00 700.00
  L 900.00 599.95
  Z"
/>
<path fill="#3960cc" d="
  M 600.00 600.01
  L 600.01 700.00
  L 500.00 700.00
  L 500.00 600.25
  Q 500.72 600.36 501.06 600.06
  Q 550.53 599.95 600.00 600.01
  Z"
/>
<path fill="#2c2930" d="
  M 600.00 600.01
  L 800.00 600.01
  L 800.00 700.00
  L 600.01 700.00
  L 600.00 600.01
  Z"
/>
<path fill="#2c2930" d="
  M 1099.95 600.05
  Q 1099.96 600.05 1099.97 600.06
  Q 1100.00 600.06 1100.00 600.09
  L 1099.71 699.73
  L 1000.02 700.00
  Q 1000.01 700.01 1000.00 700.03
  L 1000.00 600.07
  L 1099.95 600.05
  Z"
/>
<path fill="#ebdeff" d="
  M 1099.71 699.73
  Q 1099.75 699.87 1099.84 699.97
  Q 1099.94 700.09 1099.94 700.24
  L 1099.98 800.02
  L 1000.00 800.03
  Q 1000.00 800.01 1000.00 800.00
  L 1000.02 700.00
  L 1099.71 699.73
  Z"
/>
<path fill="#ebdeff" d="
  M 300.03 700.00
  L 400.01 700.00
  L 400.03 800.00
  Q 400.02 800.00 400.00 800.00
  L 300.01 800.01
  L 300.03 700.00
  Z"
/>
<path fill="#beb0d5" d="
  M 400.01 700.00
  L 500.00 700.00
  L 500.00 800.00
  L 400.03 800.00
  L 400.01 700.00
  Z"
/>
<path fill="#2c2930" d="
  M 500.00 700.00
  L 600.01 700.00
  L 600.06 799.27
  Q 600.06 799.38 600.18 799.56
  Q 600.23 799.62 600.25 799.71
  L 500.00 800.00
  L 500.00 700.00
  Z"
/>
<path fill="#bf72b6" d="
  M 600.01 700.00
  L 800.00 700.00
  L 799.98 799.75
  Q 799.07 799.70 798.75 800.00
  Q 699.93 800.00 601.10 800.00
  Q 600.88 800.00 600.71 799.84
  Q 600.55 799.70 600.25 799.71
  Q 600.23 799.62 600.18 799.56
  Q 600.06 799.38 600.06 799.27
  L 600.01 700.00
  Z"
/>
<path fill="#2c2930" d="
  M 800.00 700.00
  L 900.00 700.00
  Q 900.00 700.02 900.00 700.03
  L 900.00 799.99
  L 799.82 799.97
  Q 799.78 799.97 799.81 799.94
  Q 799.90 799.85 799.98 799.75
  L 800.00 700.00
  Z"
/>
<path fill="#beb0d5" d="
  M 1000.00 700.03
  Q 1000.01 700.01 1000.02 700.00
  L 1000.00 800.00
  L 900.00 799.99
  L 900.00 700.03
  L 1000.00 700.03
  Z"
/>
<path fill="#ebdeff" d="
  M 600.25 799.71
  Q 600.55 799.70 600.71 799.84
  Q 600.88 800.00 601.10 800.00
  Q 699.93 800.00 798.75 800.00
  Q 799.07 799.70 799.98 799.75
  Q 799.90 799.85 799.81 799.94
  Q 799.78 799.97 799.82 799.97
  L 900.00 799.99
  L 900.00 899.97
  L 500.10 899.94
  Q 500.06 899.94 500.03 899.96
  Q 500.02 899.97 500.00 899.98
  L 500.00 800.00
  L 600.25 799.71
  Z"
/>
<path fill="#beb0d5" d="
  M 300.01 800.01
  L 400.00 800.00
  L 400.00 899.99
  L 200.74 899.99
  A 0.74 0.74 0.0 0 1 200.00 899.25
  L 200.00 800.51
  A 0.51 0.51 0.0 0 1 200.51 800.00
  L 300.01 800.01
  Z"
/>
<path fill="#2c2930" d="
  M 400.00 800.00
  Q 400.02 800.00 400.03 800.00
  L 500.00 800.00
  L 500.00 899.98
  L 400.00 899.99
  L 400.00 800.00
  Z"
/>
<path fill="#2c2930" d="
  M 900.00 799.99
  L 1000.00 800.00
  Q 1000.00 800.01 1000.00 800.03
  L 1000.00 899.97
  L 900.00 899.97
  L 900.00 799.99
  Z"
/>
<path fill="#beb0d5" d="
  M 1099.98 800.02
  L 1199.50 800.01
  Q 1200.00 800.01 1200.00 800.51
  L 1200.00 899.49
  A 0.51 0.51 0.0 0 1 1199.49 900.00
  L 1000.00 899.97
  L 1000.00 800.03
  L 1099.98 800.02
  Z"
/>
</svg>
