<?xml version="1.0" encoding="UTF-8"?>
<!DOCTYPE svg PUBLIC "-//W3C//DTD SVG 1.1//EN" "http://www.w3.org/Graphics/SVG/1.1/DTD/svg11.dtd">
<svg xmlns="http://www.w3.org/2000/svg" version="1.1" width="1400px" height="1400px" style="shape-rendering:geometricPrecision; text-rendering:geometricPrecision; image-rendering:optimizeQuality; fill-rule:evenodd; clip-rule:evenodd" xmlns:xlink="http://www.w3.org/1999/xlink">
<g><path style="opacity:1" fill="#000000" d="M 1099.5,299.5 C 1032.83,299.5 966.167,299.5 899.5,299.5C 866.167,299.5 832.833,299.5 799.5,299.5C 766.167,299.5 732.833,299.5 699.5,299.5C 632.833,299.5 566.167,299.5 499.5,299.5C 466.167,299.5 432.833,299.5 399.5,299.5C 366.167,299.5 332.833,299.5 299.5,299.5C 299.5,266.167 299.5,232.833 299.5,199.5C 566.167,199.5 832.833,199.5 1099.5,199.5C 1099.5,232.833 1099.5,266.167 1099.5,299.5 Z"/></g>
<g><path style="opacity:1" fill="#000000" d="M 299.5,299.5 C 299.5,332.833 299.5,366.167 299.5,399.5C 299.5,466.167 299.5,532.833 299.5,599.5C 299.5,632.833 299.5,666.167 299.5,699.5C 299.5,766.167 299.5,832.833 299.5,899.5C 266.167,899.5 232.833,899.5 199.5,899.5C 199.5,699.5 199.5,499.5 199.5,299.5C 232.833,299.5 266.167,299.5 299.5,299.5 Z"/></g>
<g><path style="opacity:1" fill="#402d20" d="M 299.5,299.5 C 332.833,299.5 366.167,299.5 399.5,299.5C 399.5,332.833 399.5,366.167 399.5,399.5C 366.167,399.5 332.833,399.5 299.5,399.5C 299.5,366.167 299.5,332.833 299.5,299.5 Z"/></g>
<g><path style="opacity:1" fill="#312114" d="M 399.5,299.5 C 432.833,299.5 466.167,299.5 499.5,299.5C 499.5,332.833 499.5,366.167 499.5,399.5C 499.5,432.833 499.5,466.167 499.5,499.5C 466.167,499.5 432.833,499.5 399.5,499.5C 399.5,532.833 399.5,566.167 399.5,599.5C 366.167,599.5 332.833,599.5 299.5,599.5C 299.5,532.833 299.5,466.167 299.5,399.5C 332.833,399.5 366.167,399.5 399.5,399.5C 399.5,366.167 399.5,332.833 399.5,299.5 Z"/></g>
<g><path style="opacity:1" fill="#4c3922" d="M 499.5,299.5 C 566.167,299.5 632.833,299.5 699.5,299.5C 699.5,332.833 699.5,366.167 699.5,399.5C 666.167,399.5 632.833,399.5 599.5,399.5C 566.167,399.5 532.833,399.5 499.5,399.5C 499.5,366.167 499.5,332.833 499.5,299.5 Z"/></g>
<g><path style="opacity:1" fill="#402d20" d="M 699.5,299.5 C 732.833,299.5 766.167,299.5 799.5,299.5C 799.5,332.833 799.5,366.167 799.5,399.5C 766.167,399.5 732.833,399.5 699.5,399.5C 699.5,366.167 699.5,332.833 699.5,299.5 Z"/></g>
<g><path style="opacity:1" fill="#312114" d="M 799.5,299.5 C 832.833,299.5 866.167,299.5 899.5,299.5C 899.5,332.833 899.5,366.167 899.5,399.5C 866.167,399.5 832.833,399.5 799.5,399.5C 799.5,366.167 799.5,332.833 799.5,299.5 Z"/></g>
<g><path style="opacity:1" fill="#402d20" d="M 899.5,299.5 C 966.167,299.5 1032.83,299.5 1099.5,299.5C 1099.5,332.833 1099.5,366.167 1099.5,399.5C 1032.83,399.5 966.167,399.5 899.5,399.5C 899.5,366.167 899.5,332.833 899.5,299.5 Z"/></g>
<g><path style="opacity:1" fill="#000000" d="M 1099.5,299.5 C 1132.83,299.5 1166.17,299.5 1199.5,299.5C 1199.5,499.5 1199.5,699.5 1199.5,899.5C 1166.17,899.5 1132.83,899.5 1099.5,899.5C 1099.5,832.833 1099.5,766.167 1099.5,699.5C 1099.5,666.167 1099.5,632.833 1099.5,599.5C 1099.5,532.833 1099.5,466.167 1099.5,399.5C 1099.5,366.167 1099.5,332.833 1099.5,299.5 Z"/></g>
<g><path style="opacity:1" fill="#744c3a" d="M 499.5,399.5 C 532.833,399.5 566.167,399.5 599.5,399.5C 599.5,432.833 599.5,466.167 599.5,499.5C 566.167,499.5 532.833,499.5 499.5,499.5C 499.5,466.167 499.5,432.833 499.5,399.5 Z"/></g>
<g><path style="opacity:1" fill="#936a49" d="M 599.5,399.5 C 632.833,399.5 666.167,399.5 699.5,399.5C 732.833,399.5 766.167,399.5 799.5,399.5C 799.5,432.833 799.5,466.167 799.5,499.5C 732.833,499.5 666.167,499.5 599.5,499.5C 599.5,466.167 599.5,432.833 599.5,399.5 Z"/></g>
<g><path style="opacity:1" fill="#744c3a" d="M 799.5,399.5 C 832.833,399.5 866.167,399.5 899.5,399.5C 899.5,432.833 899.5,466.167 899.5,499.5C 866.167,499.5 832.833,499.5 799.5,499.5C 799.5,466.167 799.5,432.833 799.5,399.5 Z"/></g>
<g><path style="opacity:1" fill="#312114" d="M 899.5,399.5 C 966.167,399.5 1032.83,399.5 1099.5,399.5C 1099.5,466.167 1099.5,532.833 1099.5,599.5C 1066.17,599.5 1032.83,599.5 999.5,599.5C 999.5,566.167 999.5,532.833 999.5,499.5C 966.167,499.5 932.833,499.5 899.5,499.5C 899.5,466.167 899.5,432.833 899.5,399.5 Z"/></g>
<g><path style="opacity:1" fill="#936a49" d="M 499.5,499.5 C 499.5,532.833 499.5,566.167 499.5,599.5C 466.167,599.5 432.833,599.5 399.5,599.5C 399.5,566.167 399.5,532.833 399.5,499.5C 432.833,499.5 466.167,499.5 499.5,499.5 Z"/></g>
<g><path style="opacity:1" fill="#aa7c5f" d="M 499.5,499.5 C 532.833,499.5 566.167,499.5 599.5,499.5C 599.5,532.833 599.5,566.167 599.5,599.5C 566.167,599.5 532.833,599.5 499.5,599.5C 499.5,566.167 499.5,532.833 499.5,499.5 Z"/></g>
<g><path style="opacity:1" fill="#c18b67" d="M 599.5,499.5 C 666.167,499.5 732.833,499.5 799.5,499.5C 799.5,532.833 799.5,566.167 799.5,599.5C 832.833,599.5 866.167,599.5 899.5,599.5C 899.5,632.833 899.5,666.167 899.5,699.5C 866.167,699.5 832.833,699.5 799.5,699.5C 799.5,732.833 799.5,766.167 799.5,799.5C 732.833,799.5 666.167,799.5 599.5,799.5C 599.5,766.167 599.5,732.833 599.5,699.5C 632.833,699.5 666.167,699.5 699.5,699.5C 699.5,666.167 699.5,632.833 699.5,599.5C 666.167,599.5 632.833,599.5 599.5,599.5C 599.5,566.167 599.5,532.833 599.5,499.5 Z"/></g>
<g><path style="opacity:1" fill="#aa7c5f" d="M 799.5,499.5 C 832.833,499.5 866.167,499.5 899.5,499.5C 899.5,532.833 899.5,566.167 899.5,599.5C 866.167,599.5 832.833,599.5 799.5,599.5C 799.5,566.167 799.5,532.833 799.5,499.5 Z"/></g>
<g><path style="opacity:1" fill="#936a49" d="M 899.5,499.5 C 932.833,499.5 966.167,499.5 999.5,499.5C 999.5,532.833 999.5,566.167 999.5,599.5C 966.167,599.5 932.833,599.5 899.5,599.5C 899.5,566.167 899.5,532.833 899.5,499.5 Z"/></g>
<g><path style="opacity:1" fill="#744c3a" d="M 299.5,599.5 C 332.833,599.5 366.167,599.5 399.5,599.5C 399.5,632.833 399.5,666.167 399.5,699.5C 366.167,699.5 332.833,699.5 299.5,699.5C 299.5,666.167 299.5,632.833 299.5,599.5 Z"/></g>
<g><path style="opacity:1" fill="#aa7c5f" d="M 399.5,599.5 C 432.833,599.5 466.167,599.5 499.5,599.5C 499.5,632.833 499.5,666.167 499.5,699.5C 466.167,699.5 432.833,699.5 399.5,699.5C 399.5,666.167 399.5,632.833 399.5,599.5 Z"/></g>
<g><path style="opacity:1" fill="#c18b67" d="M 499.5,599.5 C 532.833,599.5 566.167,599.5 599.5,599.5C 599.5,632.833 599.5,666.167 599.5,699.5C 566.167,699.5 532.833,699.5 499.5,699.5C 499.5,666.167 499.5,632.833 499.5,599.5 Z"/></g>
<g><path style="opacity:1" fill="#c9a181" d="M 599.5,599.5 C 632.833,599.5 666.167,599.5 699.5,599.5C 699.5,632.833 699.5,666.167 699.5,699.5C 666.167,699.5 632.833,699.5 599.5,699.5C 599.5,666.167 599.5,632.833 599.5,599.5 Z"/></g>
<g><path style="opacity:1" fill="#aa7c5f" d="M 899.5,599.5 C 932.833,599.5 966.167,599.5 999.5,599.5C 999.5,632.833 999.5,666.167 999.5,699.5C 966.167,699.5 932.833,699.5 899.5,699.5C 899.5,666.167 899.5,632.833 899.5,599.5 Z"/></g>
<g><path style="opacity:1" fill="#744c3a" d="M 999.5,599.5 C 1032.83,599.5 1066.17,599.5 1099.5,599.5C 1099.5,632.833 1099.5,666.167 1099.5,699.5C 1066.17,699.5 1032.83,699.5 999.5,699.5C 999.5,666.167 999.5,632.833 999.5,599.5 Z"/></g>
<g><path style="opacity:1" fill="#aa7c5f" d="M 299.5,699.5 C 332.833,699.5 366.167,699.5 399.5,699.5C 399.5,732.833 399.5,766.167 399.5,799.5C 399.5,832.833 399.5,866.167 399.5,899.5C 366.167,899.5 332.833,899.5 299.5,899.5C 299.5,832.833 299.5,766.167 299.5,699.5 Z"/></g>
<g><path style="opacity:1" fill="#fefffe" d="M 399.5,699.5 C 432.833,699.5 466.167,699.5 499.5,699.5C 499.5,732.833 499.5,766.167 499.5,799.5C 466.167,799.5 432.833,799.5 399.5,799.5C 399.5,766.167 399.5,732.833 399.5,699.5 Z"/></g>
<g><path style="opacity:1" fill="#273f4d" d="M 499.5,699.5 C 532.833,699.5 566.167,699.5 599.5,699.5C 599.5,732.833 599.5,766.167 599.5,799.5C 566.167,799.5 532.833,799.5 499.5,799.5C 499.5,766.167 499.5,732.833 499.5,699.5 Z"/></g>
<g><path style="opacity:1" fill="#273f4d" d="M 899.5,699.5 C 899.5,732.833 899.5,766.167 899.5,799.5C 866.167,799.5 832.833,799.5 799.5,799.5C 799.5,766.167 799.5,732.833 799.5,699.5C 832.833,699.5 866.167,699.5 899.5,699.5 Z"/></g>
<g><path style="opacity:1" fill="#fefffe" d="M 899.5,699.5 C 932.833,699.5 966.167,699.5 999.5,699.5C 999.5,732.833 999.5,766.167 999.5,799.5C 966.167,799.5 932.833,799.5 899.5,799.5C 899.5,766.167 899.5,732.833 899.5,699.5 Z"/></g>
<g><path style="opacity:1" fill="#aa7c5f" d="M 999.5,699.5 C 1032.83,699.5 1066.17,699.5 1099.5,699.5C 1099.5,766.167 1099.5,832.833 1099.5,899.5C 1066.17,899.5 1032.83,899.5 999.5,899.5C 999.5,866.167 999.5,832.833 999.5,799.5C 999.5,766.167 999.5,732.833 999.5,699.5 Z"/></g>
<g><path style="opacity:1" fill="#292724" d="M 399.5,799.5 C 432.833,799.5 466.167,799.5 499.5,799.5C 499.5,832.833 499.5,866.167 499.5,899.5C 466.167,899.5 432.833,899.5 399.5,899.5C 399.5,866.167 399.5,832.833 399.5,799.5 Z"/></g>
<g><path style="opacity:1" fill="#3c3936" d="M 499.5,799.5 C 532.833,799.5 566.167,799.5 599.5,799.5C 666.167,799.5 732.833,799.5 799.5,799.5C 799.5,832.833 799.5,866.167 799.5,899.5C 732.833,899.5 666.167,899.5 599.5,899.5C 566.167,899.5 532.833,899.5 499.5,899.5C 499.5,866.167 499.5,832.833 499.5,799.5 Z"/></g>
<g><path style="opacity:1" fill="#292724" d="M 799.5,799.5 C 832.833,799.5 866.167,799.5 899.5,799.5C 899.5,832.833 899.5,866.167 899.5,899.5C 866.167,899.5 832.833,899.5 799.5,899.5C 799.5,866.167 799.5,832.833 799.5,799.5 Z"/></g>
<g><path style="opacity:1" fill="#0a0b09" d="M 899.5,799.5 C 932.833,799.5 966.167,799.5 999.5,799.5C 999.5,832.833 999.5,866.167 999.5,899.5C 966.167,899.5 932.833,899.5 899.5,899.5C 899.5,866.167 899.5,832.833 899.5,799.5 Z"/></g>
<g><path style="opacity:1" fill="#000000" d="M 199.5,899.5 C 199.5,932.833 199.5,966.167 199.5,999.5C 166.167,999.5 132.833,999.5 99.5,999.5C 99.5,966.167 99.5,932.833 99.5,899.5C 132.833,899.5 166.167,899.5 199.5,899.5 Z"/></g>
<g><path style="opacity:1" fill="#3c3936" d="M 199.5,899.5 C 232.833,899.5 266.167,899.5 299.5,899.5C 332.833,899.5 366.167,899.5 399.5,899.5C 432.833,899.5 466.167,899.5 499.5,899.5C 499.5,932.833 499.5,966.167 499.5,999.5C 466.167,999.5 432.833,999.5 399.5,999.5C 366.167,999.5 332.833,999.5 299.5,999.5C 266.167,999.5 232.833,999.5 199.5,999.5C 199.5,966.167 199.5,932.833 199.5,899.5 Z"/></g>
<g><path style="opacity:1" fill="#292724" d="M 499.5,899.5 C 532.833,899.5 566.167,899.5 599.5,899.5C 599.5,932.833 599.5,966.167 599.5,999.5C 566.167,999.5 532.833,999.5 499.5,999.5C 499.5,966.167 499.5,932.833 499.5,899.5 Z"/></g>
<g><path style="opacity:1" fill="#744c3a" d="M 599.5,899.5 C 666.167,899.5 732.833,899.5 799.5,899.5C 799.5,932.833 799.5,966.167 799.5,999.5C 732.833,999.5 666.167,999.5 599.5,999.5C 599.5,966.167 599.5,932.833 599.5,899.5 Z"/></g>
<g><path style="opacity:1" fill="#151513" d="M 799.5,899.5 C 832.833,899.5 866.167,899.5 899.5,899.5C 899.5,932.833 899.5,966.167 899.5,999.5C 866.167,999.5 832.833,999.5 799.5,999.5C 799.5,966.167 799.5,932.833 799.5,899.5 Z"/></g>
<g><path style="opacity:1" fill="#3c3936" d="M 899.5,899.5 C 932.833,899.5 966.167,899.5 999.5,899.5C 1032.83,899.5 1066.17,899.5 1099.5,899.5C 1132.83,899.5 1166.17,899.5 1199.5,899.5C 1199.5,932.833 1199.5,966.167 1199.5,999.5C 1166.17,999.5 1132.83,999.5 1099.5,999.5C 1066.17,999.5 1032.83,999.5 999.5,999.5C 966.167,999.5 932.833,999.5 899.5,999.5C 899.5,966.167 899.5,932.833 899.5,899.5 Z"/></g>
<g><path style="opacity:1" fill="#000000" d="M 1199.5,899.5 C 1232.83,899.5 1266.17,899.5 1299.5,899.5C 1299.5,932.833 1299.5,966.167 1299.5,999.5C 1266.17,999.5 1232.83,999.5 1199.5,999.5C 1199.5,966.167 1199.5,932.833 1199.5,899.5 Z"/></g>
<g><path style="opacity:1" fill="#000000" d="M 199.5,999.5 C 232.833,999.5 266.167,999.5 299.5,999.5C 299.5,1032.83 299.5,1066.17 299.5,1099.5C 266.167,1099.5 232.833,1099.5 199.5,1099.5C 199.5,1066.17 199.5,1032.83 199.5,999.5 Z"/></g>
<g><path style="opacity:1" fill="#292724" d="M 299.5,999.5 C 332.833,999.5 366.167,999.5 399.5,999.5C 399.5,1032.83 399.5,1066.17 399.5,1099.5C 366.167,1099.5 332.833,1099.5 299.5,1099.5C 299.5,1066.17 299.5,1032.83 299.5,999.5 Z"/></g>
<g><path style="opacity:1" fill="#151513" d="M 399.5,999.5 C 432.833,999.5 466.167,999.5 499.5,999.5C 499.5,1032.83 499.5,1066.17 499.5,1099.5C 466.167,1099.5 432.833,1099.5 399.5,1099.5C 399.5,1066.17 399.5,1032.83 399.5,999.5 Z"/></g>
<g><path style="opacity:1" fill="#744c3a" d="M 499.5,999.5 C 532.833,999.5 566.167,999.5 599.5,999.5C 599.5,1032.83 599.5,1066.17 599.5,1099.5C 566.167,1099.5 532.833,1099.5 499.5,1099.5C 499.5,1066.17 499.5,1032.83 499.5,999.5 Z"/></g>
<g><path style="opacity:1" fill="#936a49" d="M 599.5,999.5 C 666.167,999.5 732.833,999.5 799.5,999.5C 799.5,1032.83 799.5,1066.17 799.5,1099.5C 732.833,1099.5 666.167,1099.5 599.5,1099.5C 599.5,1066.17 599.5,1032.83 599.5,999.5 Z"/></g>
<g><path style="opacity:1" fill="#744c3a" d="M 799.5,999.5 C 832.833,999.5 866.167,999.5 899.5,999.5C 899.5,1032.83 899.5,1066.17 899.5,1099.5C 866.167,1099.5 832.833,1099.5 799.5,1099.5C 799.5,1066.17 799.5,1032.83 799.5,999.5 Z"/></g>
<g><path style="opacity:1" fill="#151513" d="M 899.5,999.5 C 932.833,999.5 966.167,999.5 999.5,999.5C 999.5,1032.83 999.5,1066.17 999.5,1099.5C 966.167,1099.5 932.833,1099.5 899.5,1099.5C 899.5,1066.17 899.5,1032.83 899.5,999.5 Z"/></g>
<g><path style="opacity:1" fill="#292724" d="M 999.5,999.5 C 1032.83,999.5 1066.17,999.5 1099.5,999.5C 1099.5,1032.83 1099.5,1066.17 1099.5,1099.5C 1066.17,1099.5 1032.83,1099.5 999.5,1099.5C 999.5,1066.17 999.5,1032.83 999.5,999.5 Z"/></g>
<g><path style="opacity:1" fill="#000000" d="M 1099.5,999.5 C 1132.83,999.5 1166.17,999.5 1199.5,999.5C 1199.5,1032.83 1199.5,1066.17 1199.5,1099.5C 1166.17,1099.5 1132.83,1099.5 1099.5,1099.5C 1099.5,1066.17 1099.5,1032.83 1099.5,999.5 Z"/></g>
<g><path style="opacity:1" fill="#000000" d="M 299.5,1099.5 C 332.833,1099.5 366.167,1099.5 399.5,1099.5C 432.833,1099.5 466.167,1099.5 499.5,1099.5C 532.833,1099.5 566.167,1099.5 599.5,1099.5C 666.167,1099.5 732.833,1099.5 799.5,1099.5C 832.833,1099.5 866.167,1099.5 899.5,1099.5C 932.833,1099.5 966.167,1099.5 999.5,1099.5C 1032.83,1099.5 1066.17,1099.5 1099.5,1099.5C 1099.5,1132.83 1099.5,1166.17 1099.5,1199.5C 832.833,1199.5 566.167,1199.5 299.5,1199.5C 299.5,1166.17 299.5,1132.83 299.5,1099.5 Z"/></g>
</svg>
