<?xml version="1.0" encoding="UTF-8" standalone="no"?>
<!DOCTYPE svg PUBLIC "-//W3C//DTD SVG 1.1//EN" "http://www.w3.org/Graphics/SVG/1.1/DTD/svg11.dtd">
<svg xmlns="http://www.w3.org/2000/svg" version="1.1" viewBox="0.00 0.00 1400.00 1000.00">
<g stroke-width="2.00" fill="none" stroke-linecap="butt">
<path stroke="#712520" vector-effect="non-scaling-stroke" d="
  M 800.00 99.99
  L 799.98 199.51
  Q 799.98 200.00 799.49 200.00
  L 600.50 200.00
  Q 600.00 200.00 600.00 199.50
  L 600.00 100.51
  A 0.51 0.51 0.0 0 0 599.49 100.00
  L 300.01 100.00"
/>
<path stroke="#712520" vector-effect="non-scaling-stroke" d="
  M 300.01 100.00
  L 300.00 399.44
  A 0.56 0.56 0.0 0 0 300.56 400.00
  L 600.00 400.00"
/>
<path stroke="#723a2a" vector-effect="non-scaling-stroke" d="
  M 600.00 400.00
  Q 600.00 400.01 600.01 400.02"
/>
<path stroke="#712520" vector-effect="non-scaling-stroke" d="
  M 600.01 400.02
  L 600.01 599.47
  A 0.53 0.52 90.0 0 0 600.53 600.00
  L 799.71 600.00"
/>
<path stroke="#631e2c" vector-effect="non-scaling-stroke" d="
  M 799.71 600.00
  Q 799.76 600.13 799.85 600.24
  Q 799.94 600.32 799.94 600.45
  L 799.99 700.00"
/>
<path stroke="#6d6f6e" vector-effect="non-scaling-stroke" d="
  M 799.99 700.00
  L 599.98 699.99"
/>
<path stroke="#631e2c" vector-effect="non-scaling-stroke" d="
  M 599.98 699.99
  L 599.99 600.53
  A 0.53 0.52 90.0 0 0 599.47 600.00
  Q 550.03 600.00 500.56 600.00
  Q 500.52 600.29 500.04 600.29"
/>
<path stroke="#6d6f6e" vector-effect="non-scaling-stroke" d="
  M 500.04 600.29
  L 400.10 599.98
  Q 399.87 599.98 399.69 599.84
  Q 399.29 599.51 399.28 599.99"
/>
<path stroke="#3f141d" vector-effect="non-scaling-stroke" d="
  M 399.28 599.99
  Q 399.31 599.56 399.63 599.30
  Q 400.00 599.00 400.00 598.53
  L 400.00 500.50
  A 0.50 0.50 0.0 0 0 399.50 500.00
  L 300.51 500.00
  A 0.51 0.51 0.0 0 0 300.00 500.51
  Q 300.00 549.96 300.00 599.44
  Q 300.28 599.45 300.29 599.98"
/>
<path stroke="#6d6f6e" vector-effect="non-scaling-stroke" d="
  M 300.29 599.98
  L 300.00 800.08"
/>
<path stroke="#616463" vector-effect="non-scaling-stroke" d="
  M 300.00 800.08
  L 300.01 899.43
  A 0.56 0.56 0.0 0 0 300.57 899.99
  L 399.94 900.00"
/>
<path stroke="#6d6f6e" vector-effect="non-scaling-stroke" d="
  M 399.94 900.00
  L 499.89 900.00"
/>
<path stroke="#7d7d7d" vector-effect="non-scaling-stroke" d="
  M 499.89 900.00
  L 900.03 900.00"
/>
<path stroke="#6d6f6e" vector-effect="non-scaling-stroke" d="
  M 900.03 900.00
  L 1000.08 900.00"
/>
<path stroke="#616463" vector-effect="non-scaling-stroke" d="
  M 1000.08 900.00
  L 1099.43 899.99
  A 0.56 0.56 0.0 0 0 1099.99 899.43
  L 1099.98 800.03"
/>
<path stroke="#6d6f6e" vector-effect="non-scaling-stroke" d="
  M 1099.98 800.03
  L 1099.94 600.23
  Q 1099.94 600.08 1099.84 599.97
  Q 1099.75 599.87 1099.70 599.74"
/>
<path stroke="#3f141d" vector-effect="non-scaling-stroke" d="
  M 1099.70 599.74
  L 1099.99 500.50
  A 0.50 0.49 -90.0 0 0 1099.50 500.00
  L 1000.51 500.00
  A 0.51 0.51 0.0 0 0 1000.00 500.51
  L 1000.00 599.99"
/>
<path stroke="#6d6f6e" vector-effect="non-scaling-stroke" d="
  M 1000.00 599.99
  L 899.98 600.00"
/>
<path stroke="#631e2c" vector-effect="non-scaling-stroke" d="
  M 899.98 600.00
  Q 849.95 600.00 800.50 600.00
  Q 800.12 600.00 800.00 599.50"
/>
<path stroke="#712520" vector-effect="non-scaling-stroke" d="
  M 800.00 599.50
  L 800.00 400.00"
/>
<path stroke="#723a2a" vector-effect="non-scaling-stroke" d="
  M 800.00 400.00
  Q 800.00 400.00 800.01 400.00"
/>
<path stroke="#712520" vector-effect="non-scaling-stroke" d="
  M 800.01 400.00
  L 1099.50 400.00
  A 0.50 0.50 0.0 0 0 1100.00 399.50
  L 1100.00 100.51
  A 0.51 0.51 0.0 0 0 1099.49 100.00
  L 800.00 99.99"
/>
<path stroke="#e35f49" vector-effect="non-scaling-stroke" d="
  M 800.01 400.00
  L 800.01 301.01
  A 1.01 1.01 0.0 0 0 799.00 300.00
  L 601.01 300.00
  A 1.01 1.01 0.0 0 0 600.00 301.01
  L 600.00 400.00"
/>
<path stroke="#af393c" vector-effect="non-scaling-stroke" d="
  M 500.00 200.42
  A 0.42 0.42 0.0 0 0 499.58 200.00
  L 400.42 200.00
  A 0.42 0.42 0.0 0 0 400.00 200.42
  L 400.00 299.58
  A 0.42 0.42 0.0 0 0 400.42 300.00
  L 499.58 300.00
  A 0.42 0.42 0.0 0 0 500.00 299.58
  L 500.00 200.42"
/>
<path stroke="#af393c" vector-effect="non-scaling-stroke" d="
  M 1000.00 200.53
  A 0.53 0.53 0.0 0 0 999.47 200.00
  L 900.53 200.00
  A 0.53 0.53 0.0 0 0 900.00 200.53
  L 900.00 299.47
  A 0.53 0.53 0.0 0 0 900.53 300.00
  L 999.47 300.00
  A 0.53 0.53 0.0 0 0 1000.00 299.47
  L 1000.00 200.53"
/>
<path stroke="#e35f49" vector-effect="non-scaling-stroke" d="
  M 800.00 400.00
  L 600.01 400.02"
/>
<path stroke="#d3434b" vector-effect="non-scaling-stroke" d="
  M 800.00 599.50
  Q 799.73 599.47 799.71 600.00"
/>
<path stroke="#ab838b" vector-effect="non-scaling-stroke" d="
  M 399.28 599.99
  L 300.29 599.98"
/>
<path stroke="#ab838b" vector-effect="non-scaling-stroke" d="
  M 1099.70 599.74
  L 1099.01 599.91
  Q 1098.66 600.00 1098.30 600.00
  L 1000.00 599.99"
/>
<path stroke="#cf8c9a" vector-effect="non-scaling-stroke" d="
  M 899.98 600.00
  L 899.99 699.47
  A 0.52 0.52 0.0 0 1 899.47 699.99
  L 799.99 700.00"
/>
<path stroke="#cf8c9a" vector-effect="non-scaling-stroke" d="
  M 500.04 600.29
  L 500.04 699.46
  Q 500.04 699.99 500.56 699.99
  L 599.98 699.99"
/>
<path stroke="#ced2d1" vector-effect="non-scaling-stroke" d="
  M 1099.98 800.03
  L 1000.59 799.99
  Q 1000.07 799.99 1000.07 800.51
  L 1000.08 900.00"
/>
<path stroke="#e9ebeb" vector-effect="non-scaling-stroke" d="
  M 900.03 900.00
  L 900.00 800.98
  A 0.98 0.98 0.0 0 0 899.02 800.00
  L 500.51 800.00
  A 0.53 0.53 0.0 0 0 499.98 800.53
  L 499.89 900.00"
/>
<path stroke="#ced2d1" vector-effect="non-scaling-stroke" d="
  M 399.94 900.00
  L 399.99 800.72
  A 0.72 0.71 0.0 0 0 399.27 800.01
  L 300.00 800.08"
/>
</g>
<path fill="#000000" d="
  M 300.06 0.00
  L 600.03 0.00
  L 600.03 99.44
  Q 600.03 99.98 600.56 99.98
  L 800.00 99.99
  L 799.98 199.51
  Q 799.98 200.00 799.49 200.00
  L 600.50 200.00
  Q 600.00 200.00 600.00 199.50
  L 600.00 100.51
  A 0.51 0.51 0.0 0 0 599.49 100.00
  L 300.01 100.00
  L 300.06 0.00
  Z"
/>
<path fill="#000000" d="
  M 800.05 0.00
  L 1100.03 0.00
  L 1100.03 99.51
  Q 1100.03 100.00 1100.51 100.00
  L 1199.50 100.00
  Q 1200.00 100.00 1200.00 100.50
  L 1200.00 899.50
  A 0.50 0.50 0.0 0 1 1199.50 900.00
  L 1100.50 900.00
  A 0.53 0.52 90.0 0 0 1099.98 900.53
  L 1099.88 1000.00
  L 300.09 1000.00
  L 300.02 900.52
  Q 300.02 900.00 299.50 900.00
  L 200.50 900.00
  A 0.50 0.50 0.0 0 1 200.00 899.50
  L 200.00 100.51
  A 0.51 0.51 0.0 0 1 200.51 100.00
  L 300.01 100.00
  L 300.00 399.44
  A 0.56 0.56 0.0 0 0 300.56 400.00
  L 600.00 400.00
  Q 600.00 400.01 600.01 400.02
  L 600.01 599.47
  A 0.53 0.52 90.0 0 0 600.53 600.00
  L 799.71 600.00
  Q 799.76 600.13 799.85 600.24
  Q 799.94 600.32 799.94 600.45
  L 799.99 700.00
  L 599.98 699.99
  L 599.99 600.53
  A 0.53 0.52 90.0 0 0 599.47 600.00
  Q 550.03 600.00 500.56 600.00
  Q 500.52 600.29 500.04 600.29
  L 400.10 599.98
  Q 399.87 599.98 399.69 599.84
  Q 399.29 599.51 399.28 599.99
  Q 399.31 599.56 399.63 599.30
  Q 400.00 599.00 400.00 598.53
  L 400.00 500.50
  A 0.50 0.50 0.0 0 0 399.50 500.00
  L 300.51 500.00
  A 0.51 0.51 0.0 0 0 300.00 500.51
  Q 300.00 549.96 300.00 599.44
  Q 300.28 599.45 300.29 599.98
  L 300.00 800.08
  L 300.01 899.43
  A 0.56 0.56 0.0 0 0 300.57 899.99
  L 399.94 900.00
  L 499.89 900.00
  L 900.03 900.00
  L 1000.08 900.00
  L 1099.43 899.99
  A 0.56 0.56 0.0 0 0 1099.99 899.43
  L 1099.98 800.03
  L 1099.94 600.23
  Q 1099.94 600.08 1099.84 599.97
  Q 1099.75 599.87 1099.70 599.74
  L 1099.99 500.50
  A 0.50 0.49 -90.0 0 0 1099.50 500.00
  L 1000.51 500.00
  A 0.51 0.51 0.0 0 0 1000.00 500.51
  L 1000.00 599.99
  L 899.98 600.00
  Q 849.95 600.00 800.50 600.00
  Q 800.12 600.00 800.00 599.50
  L 800.00 400.00
  Q 800.00 400.00 800.01 400.00
  L 1099.50 400.00
  A 0.50 0.50 0.0 0 0 1100.00 399.50
  L 1100.00 100.51
  A 0.51 0.51 0.0 0 0 1099.49 100.00
  L 800.00 99.99
  L 800.05 0.00
  Z"
/>
<path fill="#e14a3f" d="
  M 300.01 100.00
  L 599.49 100.00
  A 0.51 0.51 0.0 0 1 600.00 100.51
  L 600.00 199.50
  Q 600.00 200.00 600.50 200.00
  L 799.49 200.00
  Q 799.98 200.00 799.98 199.51
  L 800.00 99.99
  L 1099.49 100.00
  A 0.51 0.51 0.0 0 1 1100.00 100.51
  L 1100.00 399.50
  A 0.50 0.50 0.0 0 1 1099.50 400.00
  L 800.01 400.00
  L 800.01 301.01
  A 1.01 1.01 0.0 0 0 799.00 300.00
  L 601.01 300.00
  A 1.01 1.01 0.0 0 0 600.00 301.01
  L 600.00 400.00
  L 300.56 400.00
  A 0.56 0.56 0.0 0 1 300.00 399.44
  L 300.01 100.00
  Z
  M 500.00 200.42
  A 0.42 0.42 0.0 0 0 499.58 200.00
  L 400.42 200.00
  A 0.42 0.42 0.0 0 0 400.00 200.42
  L 400.00 299.58
  A 0.42 0.42 0.0 0 0 400.42 300.00
  L 499.58 300.00
  A 0.42 0.42 0.0 0 0 500.00 299.58
  L 500.00 200.42
  Z
  M 1000.00 200.53
  A 0.53 0.53 0.0 0 0 999.47 200.00
  L 900.53 200.00
  A 0.53 0.53 0.0 0 0 900.00 200.53
  L 900.00 299.47
  A 0.53 0.53 0.0 0 0 900.53 300.00
  L 999.47 300.00
  A 0.53 0.53 0.0 0 0 1000.00 299.47
  L 1000.00 200.53
  Z"
/>
<rect fill="#7d2839" x="400.00" y="200.00" width="100.00" height="100.00" rx="0.42"/>
<rect fill="#7d2839" x="900.00" y="200.00" width="100.00" height="100.00" rx="0.53"/>
<path fill="#e47353" d="
  M 800.01 400.00
  Q 800.00 400.00 800.00 400.00
  L 600.01 400.02
  Q 600.00 400.01 600.00 400.00
  L 600.00 301.01
  A 1.01 1.01 0.0 0 1 601.01 300.00
  L 799.00 300.00
  A 1.01 1.01 0.0 0 1 800.01 301.01
  L 800.01 400.00
  Z"
/>
<path fill="#e14a3f" d="
  M 800.00 400.00
  L 800.00 599.50
  Q 799.73 599.47 799.71 600.00
  L 600.53 600.00
  A 0.53 0.52 -90.0 0 1 600.01 599.47
  L 600.01 400.02
  L 800.00 400.00
  Z"
/>
<path fill="#7d2839" d="
  M 399.28 599.99
  L 300.29 599.98
  Q 300.28 599.45 300.00 599.44
  Q 300.00 549.96 300.00 500.51
  A 0.51 0.51 0.0 0 1 300.51 500.00
  L 399.50 500.00
  A 0.50 0.50 0.0 0 1 400.00 500.50
  L 400.00 598.53
  Q 400.00 599.00 399.63 599.30
  Q 399.31 599.56 399.28 599.99
  Z"
/>
<path fill="#7d2839" d="
  M 1099.70 599.74
  L 1099.01 599.91
  Q 1098.66 600.00 1098.30 600.00
  L 1000.00 599.99
  L 1000.00 500.51
  A 0.51 0.51 0.0 0 1 1000.51 500.00
  L 1099.50 500.00
  A 0.50 0.49 90.0 0 1 1099.99 500.50
  L 1099.70 599.74
  Z"
/>
<path fill="#c53b57" d="
  M 800.00 599.50
  Q 800.12 600.00 800.50 600.00
  Q 849.95 600.00 899.98 600.00
  L 899.99 699.47
  A 0.52 0.52 0.0 0 1 899.47 699.99
  L 799.99 700.00
  L 799.94 600.45
  Q 799.94 600.32 799.85 600.24
  Q 799.76 600.13 799.71 600.00
  Q 799.73 599.47 800.00 599.50
  Z"
/>
<path fill="#d9dddc" d="
  M 300.29 599.98
  L 399.28 599.99
  Q 399.29 599.51 399.69 599.84
  Q 399.87 599.98 400.10 599.98
  L 500.04 600.29
  L 500.04 699.46
  Q 500.04 699.99 500.56 699.99
  L 599.98 699.99
  L 799.99 700.00
  L 899.47 699.99
  A 0.52 0.52 0.0 0 0 899.99 699.47
  L 899.98 600.00
  L 1000.00 599.99
  L 1098.30 600.00
  Q 1098.66 600.00 1099.01 599.91
  L 1099.70 599.74
  Q 1099.75 599.87 1099.84 599.97
  Q 1099.94 600.08 1099.94 600.23
  L 1099.98 800.03
  L 1000.59 799.99
  Q 1000.07 799.99 1000.07 800.51
  L 1000.08 900.00
  L 900.03 900.00
  L 900.00 800.98
  A 0.98 0.98 0.0 0 0 899.02 800.00
  L 500.51 800.00
  A 0.53 0.53 0.0 0 0 499.98 800.53
  L 499.89 900.00
  L 399.94 900.00
  L 399.99 800.72
  A 0.72 0.71 0.0 0 0 399.27 800.01
  L 300.00 800.08
  L 300.29 599.98
  Z"
/>
<path fill="#c53b57" d="
  M 599.98 699.99
  L 500.56 699.99
  Q 500.04 699.99 500.04 699.46
  L 500.04 600.29
  Q 500.52 600.29 500.56 600.00
  Q 550.03 600.00 599.47 600.00
  A 0.53 0.52 -90.0 0 1 599.99 600.53
  L 599.98 699.99
  Z"
/>
<path fill="#c2c7c6" d="
  M 399.94 900.00
  L 300.57 899.99
  A 0.56 0.56 0.0 0 1 300.01 899.43
  L 300.00 800.08
  L 399.27 800.01
  A 0.72 0.71 -0.0 0 1 399.99 800.72
  L 399.94 900.00
  Z"
/>
<path fill="#f9f9f9" d="
  M 900.03 900.00
  L 499.89 900.00
  L 499.98 800.53
  A 0.53 0.53 0.0 0 1 500.51 800.00
  L 899.02 800.00
  A 0.98 0.98 0.0 0 1 900.00 800.98
  L 900.03 900.00
  Z"
/>
<path fill="#c2c7c6" d="
  M 1099.98 800.03
  L 1099.99 899.43
  A 0.56 0.56 0.0 0 1 1099.43 899.99
  L 1000.08 900.00
  L 1000.07 800.51
  Q 1000.07 799.99 1000.59 799.99
  L 1099.98 800.03
  Z"
/>
</svg>
