<?xml version="1.0" encoding="UTF-8" standalone="no"?>
<!DOCTYPE svg PUBLIC "-//W3C//DTD SVG 1.1//EN" "http://www.w3.org/Graphics/SVG/1.1/DTD/svg11.dtd">
<svg xmlns="http://www.w3.org/2000/svg" version="1.1" viewBox="0.00 0.00 680.00 680.00">
<path fill="#ffffff" d="
  M 605.91 187.09
  C 627.53 208.92 645.62 238.28 650.07 269.10
  Q 659.17 332.23 669.02 414.25
  C 671.19 432.26 673.45 448.91 672.94 465.56
  C 671.77 503.33 657.96 543.37 626.05 565.79
  C 606.76 579.34 581.06 580.41 558.00 574.70
  C 510.40 562.92 472.74 525.24 456.49 479.90
  Q 452.79 469.58 450.88 465.82
  C 429.60 423.98 380.05 395.18 333.69 397.56
  C 290.11 399.79 244.89 429.18 226.57 469.32
  Q 224.97 472.83 221.71 482.02
  C 203.74 532.76 155.88 573.52 101.44 577.90
  C 55.51 581.60 23.30 546.03 12.11 505.04
  C 5.30 480.07 5.32 452.28 8.36 426.93
  Q 16.63 358.03 25.75 289.25
  Q 26.26 285.38 28.22 273.58
  C 38.79 209.78 85.78 161.76 147.25 143.75
  C 153.87 141.81 158.54 140.78 165.70 140.60
  C 251.92 138.41 323.29 138.87 434.24 139.04
  C 460.23 139.09 486.28 139.88 512.25 140.71
  Q 521.75 141.01 530.91 143.49
  Q 574.35 155.23 605.91 187.09
  Z
  M 120.11 343.88
  C 148.96 374.08 195.81 379.62 231.13 358.54
  C 255.07 344.24 271.17 319.32 274.25 291.58
  C 281.45 226.81 220.58 175.95 158.42 194.70
  C 93.70 214.21 73.82 295.43 120.11 343.88
  Z
  M 520.05 229.32
  A 25.68 25.68 0.0 0 0 494.37 203.64
  A 25.68 25.68 0.0 0 0 468.69 229.32
  A 25.68 25.68 0.0 0 0 494.37 255.00
  A 25.68 25.68 0.0 0 0 520.05 229.32
  Z
  M 418.80 272.33
  C 410.91 293.54 434.26 315.08 454.57 303.86
  C 468.92 295.93 473.31 276.33 461.96 263.80
  C 448.59 249.06 425.67 253.88 418.80 272.33
  Z
  M 544.6780 306.6023
  A 25.74 25.62 93.1 0 0 571.6525 282.2855
  A 25.74 25.62 93.1 0 0 547.4620 255.1977
  A 25.74 25.62 93.1 0 0 520.4875 279.5145
  A 25.74 25.62 93.1 0 0 544.6780 306.6023
  Z
  M 478.19 352.31
  C 502.83 373.29 533.64 338.54 513.66 315.48
  Q 508.73 309.79 501.58 307.90
  C 474.90 300.84 456.91 334.20 478.19 352.31
  Z
  M 279.10 341.90
  Q 282.23 344.95 285.58 345.40
  Q 297.52 346.99 311.76 345.86
  C 318.51 345.33 323.33 343.54 325.82 337.29
  C 328.09 331.62 325.60 326.64 321.66 322.69
  C 317.03 318.04 300.36 319.69 288.06 320.08
  C 276.22 320.46 270.73 333.77 279.10 341.90
  Z
  M 390.69 319.99
  C 382.19 319.66 373.56 320.03 365.03 320.00
  C 349.85 319.96 348.17 343.19 363.50 345.52
  Q 375.65 347.36 391.35 345.62
  C 408.40 343.73 408.34 320.68 390.69 319.99
  Z"
/>
<path fill="#ffffff" d="
  M 176.18 216.90
  C 207.56 214.37 232.58 229.51 244.83 258.44
  C 249.53 269.53 249.26 284.25 247.72 294.99
  C 247.02 299.90 244.50 305.02 241.95 309.88
  Q 230.47 331.77 208.01 341.02
  C 197.17 345.48 185.21 345.84 173.63 344.33
  C 144.33 340.50 121.14 312.11 120.42 283.23
  C 119.93 263.49 128.17 244.62 143.41 232.05
  C 151.98 224.99 164.72 217.82 176.18 216.90
  Z
  M 198.59 294.12
  C 204.81 294.49 212.85 294.81 217.98 291.49
  C 224.65 287.19 225.56 275.17 218.22 270.60
  C 213.60 267.73 205.20 267.80 199.64 268.04
  Q 198.20 268.11 198.22 266.67
  C 198.30 261.22 198.36 252.72 195.32 248.20
  C 190.36 240.82 179.98 239.90 174.67 247.53
  C 171.06 252.70 171.92 261.04 172.02 267.00
  A 1.00 0.99 -0.3 0 1 171.01 268.01
  C 160.53 267.90 143.18 267.45 146.25 283.68
  C 148.34 294.71 162.08 294.93 170.87 293.91
  A 1.04 1.04 0.0 0 1 172.03 294.98
  C 171.76 305.37 170.83 320.84 185.85 319.84
  C 198.01 319.04 198.39 303.87 197.93 294.77
  A 0.62 0.62 0.0 0 1 198.59 294.12
  Z"
/>
</svg>
