<?xml version="1.0" encoding="UTF-8" standalone="no"?>
<!DOCTYPE svg PUBLIC "-//W3C//DTD SVG 1.1//EN" "http://www.w3.org/Graphics/SVG/1.1/DTD/svg11.dtd">
<svg xmlns="http://www.w3.org/2000/svg" version="1.1" viewBox="0.00 0.00 680.00 680.00">
<path fill="#ffffff" d="
  M 223.37 0.00
  L 227.01 0.00
  Q 230.17 1.15 232.03 4.47
  Q 246.38 30.10 260.09 55.11
  Q 260.95 56.67 262.50 55.81
  Q 268.43 52.53 274.51 50.43
  C 284.74 46.92 294.94 43.83 305.17 42.02
  Q 337.10 36.36 369.41 41.32
  Q 384.65 43.66 403.51 50.15
  C 408.32 51.80 412.63 54.14 417.26 55.99
  A 1.11 1.09 -64.2 0 0 418.63 55.50
  Q 433.23 29.34 447.36 3.59
  Q 448.80 0.96 452.14 0.00
  L 455.48 0.00
  Q 460.77 1.69 461.21 5.85
  Q 461.48 8.52 459.04 12.90
  Q 444.46 39.03 432.57 60.63
  C 432.29 61.14 431.78 61.47 431.51 61.92
  A 1.34 1.34 0.0 0 0 432.09 63.84
  C 439.79 67.41 446.42 72.42 453.04 77.44
  C 477.84 96.23 497.35 121.00 510.20 149.28
  Q 518.82 168.24 522.64 187.32
  C 523.11 189.71 523.26 192.30 522.34 194.55
  C 518.44 204.13 512.11 203.97 502.68 204.01
  Q 495.01 204.04 488.00 204.04
  Q 325.45 203.95 171.12 204.04
  C 164.90 204.04 160.01 202.26 157.41 196.09
  C 155.19 190.80 156.31 187.07 157.87 180.63
  C 162.81 160.17 171.72 141.08 183.15 123.15
  Q 193.52 106.88 212.11 89.24
  Q 227.98 74.16 246.22 63.81
  A 1.80 1.79 -22.0 0 0 247.08 61.79
  C 246.56 59.82 245.18 58.26 244.18 56.47
  Q 232.83 36.02 222.08 16.58
  C 218.35 9.83 214.46 4.26 223.37 0.00
  Z
  M 269.7775 123.3723
  A 15.97 15.78 -10.6 0 0 251.1772 110.7993
  A 15.97 15.78 -10.6 0 0 238.3825 129.2477
  A 15.97 15.78 -10.6 0 0 256.9828 141.8207
  A 15.97 15.78 -10.6 0 0 269.7775 123.3723
  Z
  M 440.69 126.33
  A 15.84 15.84 0.0 0 0 424.85 110.49
  A 15.84 15.84 0.0 0 0 409.01 126.33
  A 15.84 15.84 0.0 0 0 424.85 142.17
  A 15.84 15.84 0.0 0 0 440.69 126.33
  Z"
/>
<path fill="#ffffff" d="
  M 88.84 472.61
  C 81.11 471.11 74.67 468.68 68.45 463.33
  Q 57.20 453.67 54.60 439.96
  Q 53.72 435.33 53.80 421.97
  Q 54.28 345.81 53.85 265.41
  Q 53.80 256.77 57.06 249.13
  Q 60.29 241.58 66.29 235.88
  Q 81.13 221.76 102.90 225.34
  Q 107.58 226.11 112.22 228.41
  Q 129.49 236.96 134.31 255.02
  Q 135.93 261.06 135.93 271.25
  Q 135.99 347.63 136.01 427.53
  C 136.01 430.41 135.69 433.45 135.39 436.36
  Q 134.11 448.83 126.82 457.57
  Q 115.87 470.68 98.46 472.97
  Q 93.83 473.58 88.84 472.61
  Z"
/>
<path fill="#ffffff" d="
  M 415.86 680.00
  L 401.76 680.00
  Q 386.41 676.46 377.07 664.84
  C 370.61 656.81 367.95 646.85 367.96 636.42
  Q 367.99 590.72 368.02 543.06
  Q 368.02 542.00 366.96 542.00
  L 311.47 542.00
  A 0.47 0.47 0.0 0 0 311.00 542.47
  Q 310.97 586.00 311.05 631.19
  Q 311.06 639.29 310.23 645.26
  C 307.73 663.06 294.60 676.24 276.60 680.00
  L 262.76 680.00
  Q 252.62 677.67 245.69 672.83
  Q 239.24 668.32 234.08 659.46
  Q 228.68 650.21 228.78 638.68
  Q 229.17 589.84 228.95 542.86
  A 0.89 0.89 0.0 0 0 228.06 541.97
  Q 198.66 542.06 168.57 541.97
  Q 155.88 541.93 153.31 529.79
  Q 152.93 528.01 152.93 523.25
  Q 153.05 395.41 152.99 276.00
  C 152.98 263.45 152.20 250.12 153.16 238.17
  C 153.56 233.20 157.77 225.29 163.74 225.14
  Q 170.16 224.98 176.13 224.98
  Q 327.03 225.00 474.74 224.97
  C 488.46 224.96 502.33 224.52 516.24 225.14
  Q 518.24 225.23 520.14 226.56
  C 526.78 231.19 527.08 237.62 527.07 245.00
  Q 526.95 386.70 526.99 525.50
  Q 526.99 532.64 522.49 537.68
  Q 520.42 539.99 517.12 540.89
  Q 513.31 541.92 509.90 541.94
  Q 480.31 542.09 450.48 541.97
  A 0.46 0.46 0.0 0 0 450.02 542.42
  Q 449.90 591.54 450.11 637.08
  C 450.16 647.05 448.09 656.12 441.98 664.14
  Q 432.41 676.71 415.86 680.00
  Z"
/>
<path fill="#ffffff" d="
  M 626.07 275.95
  Q 625.88 353.18 626.11 430.75
  Q 626.18 451.77 609.81 464.66
  Q 605.29 468.21 600.07 470.12
  Q 590.51 473.61 583.39 473.17
  C 576.86 472.77 569.61 470.62 563.83 466.94
  Q 544.57 454.69 544.02 430.83
  Q 543.79 420.86 543.84 410.54
  Q 544.20 340.99 543.87 269.50
  C 543.82 258.13 546.38 247.23 553.99 238.57
  Q 564.75 226.33 580.72 224.87
  C 592.01 223.84 603.32 226.62 611.81 234.21
  Q 622.80 244.03 625.23 257.31
  C 626.31 263.20 626.09 269.66 626.07 275.95
  Z"
/>
</svg>
