<?xml version="1.0" encoding="UTF-8" standalone="no"?>
<!DOCTYPE svg PUBLIC "-//W3C//DTD SVG 1.1//EN" "http://www.w3.org/Graphics/SVG/1.1/DTD/svg11.dtd">
<svg xmlns="http://www.w3.org/2000/svg" version="1.1" viewBox="0.00 0.00 680.00 680.00">
<path fill="#ffffff" d="
  M 680.00 436.57
  L 680.00 476.31
  L 677.58 517.67
  A 1.15 1.13 -17.8 0 1 677.14 518.50
  Q 624.44 558.16 564.14 584.77
  C 546.40 592.59 528.40 598.96 509.55 605.53
  Q 507.52 606.24 505.57 606.28
  A 1.16 1.14 -21.2 0 1 504.69 605.90
  Q 502.77 603.82 500.16 600.08
  C 487.46 581.86 478.29 564.99 468.15 546.56
  Q 467.54 545.44 468.73 545.00
  Q 497.97 534.13 524.60 517.89
  A 0.74 0.74 0.0 0 0 524.69 516.69
  Q 519.31 512.18 513.70 507.53
  Q 512.25 506.33 510.59 507.11
  C 455.63 532.89 392.60 547.73 331.75 545.74
  Q 248.79 543.03 173.08 508.67
  Q 170.39 507.45 167.34 507.21
  Q 166.86 507.17 166.49 507.48
  L 155.40 516.72
  Q 154.65 517.34 155.48 517.85
  Q 182.05 534.25 211.31 545.15
  A 0.92 0.92 0.0 0 1 211.81 546.44
  Q 196.53 576.32 176.89 604.08
  C 175.89 605.50 175.14 606.92 173.05 606.24
  C 112.69 586.75 55.75 558.00 4.80 520.24
  Q 2.74 518.71 2.49 516.25
  Q 0.14 493.26 0.00 468.43
  L 0.00 433.95
  Q 1.92 396.49 5.01 375.50
  Q 19.46 276.99 65.25 188.72
  Q 81.69 157.02 101.04 127.03
  C 105.02 120.85 116.18 117.99 122.66 115.14
  C 157.95 99.65 195.97 88.58 233.77 81.23
  C 237.13 80.57 240.45 80.26 243.81 79.93
  Q 244.34 79.87 244.66 80.31
  Q 246.15 82.35 247.00 84.00
  Q 254.73 98.97 262.38 116.44
  Q 262.59 116.92 263.10 116.83
  Q 283.53 113.44 304.07 111.93
  C 318.89 110.84 335.06 111.17 350.50 111.04
  C 372.66 110.86 394.77 113.30 416.83 116.78
  A 1.18 1.18 0.0 0 0 418.11 116.07
  Q 425.43 98.12 434.52 81.00
  A 2.00 1.98 -72.6 0 1 436.51 79.95
  C 453.79 81.93 471.96 86.59 488.56 91.21
  Q 528.91 102.45 569.81 120.45
  C 574.04 122.31 576.44 123.18 579.00 127.28
  Q 582.74 133.26 586.53 139.20
  C 622.28 195.25 650.10 258.39 665.07 323.22
  C 674.01 361.95 678.41 396.10 680.00 436.57
  Z
  M 226.8979 438.4596
  A 69.37 60.99 90.2 0 0 288.1296 369.3029
  A 69.37 60.99 90.2 0 0 227.3821 299.7204
  A 69.37 60.99 90.2 0 0 166.1504 368.8771
  A 69.37 60.99 90.2 0 0 226.8979 438.4596
  Z
  M 425.33 430.83
  C 451.86 446.42 484.47 436.79 501.17 411.88
  C 524.78 376.68 515.72 319.99 472.31 303.36
  C 436.19 289.53 402.23 316.50 394.27 350.79
  C 387.34 380.67 398.10 414.82 425.33 430.83
  Z"
/>
</svg>
