<?xml version="1.0" encoding="UTF-8" standalone="no"?>
<!DOCTYPE svg PUBLIC "-//W3C//DTD SVG 1.1//EN" "http://www.w3.org/Graphics/SVG/1.1/DTD/svg11.dtd">
<svg xmlns="http://www.w3.org/2000/svg" version="1.1" viewBox="0.00 0.00 1091.00 1091.00">
<path fill="#ffffff" d="
  M 1091.00 223.05
  L 1091.00 278.81
  C 1087.65 315.07 1066.75 346.84 1036.51 366.76
  Q 1018.82 378.41 1001.44 381.69
  C 941.62 393.00 881.26 345.59 875.25 285.57
  Q 874.45 277.58 873.82 285.58
  C 870.92 322.68 845.60 356.64 812.14 372.78
  C 777.74 389.37 735.50 386.37 704.44 363.97
  Q 665.04 335.57 658.53 285.52
  C 658.38 284.39 658.54 282.78 658.15 281.38
  A 0.06 0.06 0.0 0 0 658.03 281.39
  C 651.09 357.88 569.47 404.80 499.81 373.72
  C 462.67 357.15 436.07 321.87 432.94 280.57
  Q 432.93 280.43 432.79 280.28
  Q 432.53 279.99 432.53 280.38
  C 432.22 310.53 415.63 339.89 393.59 358.57
  C 353.54 392.53 292.89 391.16 254.05 356.45
  Q 220.97 326.88 216.74 283.12
  Q 216.54 280.99 216.29 283.11
  C 209.71 338.42 166.40 380.32 110.51 383.16
  C 70.14 385.21 32.91 357.09 13.83 323.20
  Q 2.09 302.35 0.00 278.44
  L 0.00 222.88
  Q 3.97 209.49 13.20 195.68
  C 37.34 159.54 66.29 126.66 97.68 96.68
  C 111.01 83.94 125.12 71.66 140.41 62.03
  C 143.40 60.15 149.38 60.28 152.90 60.14
  Q 205.68 58.01 250.31 57.31
  Q 448.20 54.19 659.56 55.18
  Q 807.51 55.87 946.75 60.88
  C 952.86 61.10 971.01 76.62 975.34 80.42
  Q 1027.11 125.83 1067.99 181.26
  C 1076.99 193.47 1087.31 208.19 1091.00 223.05
  Z"
/>
<path fill="#ffffff" d="
  M 878.01 356.19
  C 902.05 394.61 942.04 417.35 987.25 418.81
  Q 992.25 418.97 999.95 416.35
  Q 1000.49 416.17 1000.55 416.74
  C 1004.96 464.47 1007.98 512.75 1008.17 560.69
  Q 1008.49 642.35 1008.74 724.00
  Q 1008.77 735.49 1008.66 743.99
  C 1007.91 799.66 1005.79 856.21 997.25 910.75
  C 992.30 942.29 983.84 980.90 962.09 1005.56
  A 1.53 1.53 0.0 0 1 961.27 1006.05
  C 918.34 1015.64 874.20 1021.00 830.43 1024.89
  Q 771.28 1030.15 711.93 1032.64
  C 589.57 1037.77 460.11 1037.53 334.43 1030.38
  C 265.90 1026.48 195.15 1019.80 130.09 1006.36
  A 1.65 1.62 74.5 0 1 129.24 1005.87
  Q 119.93 995.56 114.10 983.12
  C 102.86 959.14 96.95 932.27 93.02 905.50
  C 87.00 864.62 84.39 824.96 83.28 784.50
  C 81.25 710.47 82.75 636.36 82.81 562.31
  C 82.85 513.90 86.02 465.01 90.44 416.85
  A 0.47 0.46 11.4 0 1 91.05 416.45
  C 95.90 418.02 100.42 418.87 105.72 418.67
  C 150.39 417.02 189.13 393.71 213.10 356.17
  A 0.40 0.40 0.0 0 1 213.79 356.19
  C 231.02 386.96 261.27 408.23 295.26 415.73
  C 344.23 426.54 394.86 407.08 424.73 366.41
  C 426.96 363.37 429.49 359.24 431.80 355.59
  Q 432.17 354.99 432.53 355.60
  C 454.15 392.62 490.95 415.07 533.81 418.43
  C 584.70 422.43 632.05 400.61 658.54 355.69
  A 0.40 0.39 -45.4 0 1 659.22 355.68
  C 684.58 397.41 729.25 422.35 778.97 418.00
  C 819.82 414.43 857.10 392.45 877.18 356.21
  A 0.48 0.48 0.0 0 1 878.01 356.19
  Z
  M 715.83 791.83
  Q 716.26 796.26 716.58 800.67
  C 722.25 877.45 786.00 927.18 860.50 928.72
  C 880.09 929.13 904.52 928.63 921.70 919.72
  C 966.47 896.52 939.71 811.58 929.75 775.75
  Q 907.55 695.92 885.20 616.12
  Q 882.10 605.03 879.05 597.13
  C 858.36 543.49 820.59 475.84 754.75 473.49
  Q 738.38 472.91 722.07 474.11
  C 690.05 476.46 664.41 491.99 642.81 516.18
  Q 642.45 516.58 641.92 516.52
  Q 545.66 506.86 449.41 516.49
  Q 448.89 516.54 448.53 516.17
  C 426.10 492.96 403.94 477.63 371.31 474.28
  C 361.41 473.27 344.42 472.48 334.30 473.28
  C 289.72 476.77 257.99 508.77 236.62 545.35
  C 223.42 567.94 212.61 591.92 205.53 617.13
  Q 181.38 703.24 157.49 789.42
  C 152.18 808.57 148.02 827.39 145.49 847.00
  C 142.57 869.60 142.97 900.47 163.33 915.84
  C 172.80 922.99 186.25 926.37 198.50 927.49
  C 226.94 930.10 253.18 929.16 280.72 919.91
  C 337.09 900.98 373.75 851.50 375.10 791.69
  A 0.33 0.32 5.4 0 1 375.48 791.38
  C 460.70 804.82 548.74 806.89 634.69 800.67
  Q 675.16 797.74 715.25 791.38
  Q 715.78 791.30 715.83 791.83
  Z"
/>
<path fill="#ffffff" d="
  M 596.75 696.97
  L 596.75 750.77
  Q 596.75 752.81 594.72 752.97
  C 574.96 754.56 555.32 751.75 535.52 752.71
  C 522.35 753.35 508.50 754.29 495.41 752.76
  A 1.31 1.31 0.0 0 1 494.25 751.46
  L 494.25 697.22
  A 0.75 0.75 0.0 0 0 493.47 696.47
  L 431.27 698.97
  A 0.56 0.56 0.0 0 1 430.78 698.09
  Q 443.40 679.84 458.72 663.47
  Q 500.27 619.08 545.17 578.08
  Q 545.54 577.74 545.92 578.08
  Q 584.61 613.71 621.15 651.60
  C 634.97 665.94 649.51 681.40 660.15 698.29
  A 0.45 0.44 -14.9 0 1 659.75 698.97
  L 597.28 696.47
  Q 596.75 696.44 596.75 696.97
  Z"
/>
</svg>
