<?xml version="1.0" encoding="UTF-8" standalone="no"?>
<!DOCTYPE svg PUBLIC "-//W3C//DTD SVG 1.1//EN" "http://www.w3.org/Graphics/SVG/1.1/DTD/svg11.dtd">
<svg xmlns="http://www.w3.org/2000/svg" version="1.1" viewBox="0.00 0.00 180.00 180.00">
<g stroke-width="2.00" fill="none" stroke-linecap="butt">
<path stroke="#808080" vector-effect="non-scaling-stroke" d="
  M 148.94 25.89
  L 142.07 25.96
  Q 141.00 25.97 141.00 27.04
  L 141.00 33.34
  A 0.65 0.65 0.0 0 1 140.35 33.99
  L 134.25 34.00
  A 1.26 1.25 -0.2 0 0 133.00 35.25
  L 133.00 41.00
  A 1.00 1.00 0.0 0 1 132.00 42.00
  L 125.75 42.00
  Q 125.00 42.00 125.00 42.75
  L 125.00 49.50
  A 0.50 0.50 0.0 0 1 124.50 50.00
  L 117.75 50.00
  Q 117.00 50.00 117.00 50.75
  L 117.00 57.31
  Q 117.00 57.99 117.68 57.99
  L 133.01 58.01"
/>
<path stroke="#808080" vector-effect="non-scaling-stroke" d="
  M 140.90 65.85
  L 134.28 65.97
  A 1.30 1.30 0.0 0 0 133.00 67.27
  L 133.00 73.34
  A 0.65 0.65 0.0 0 1 132.35 73.99
  L 125.66 74.00
  A 0.66 0.65 -0.4 0 0 125.01 74.65
  L 125.00 81.34
  A 0.66 0.65 -89.6 0 1 124.35 81.99
  L 117.66 82.00
  A 0.66 0.65 -0.4 0 0 117.01 82.65
  L 117.00 89.27
  A 0.71 0.71 0.0 0 1 116.30 89.97
  L 109.65 90.02
  A 0.64 0.64 0.0 0 0 109.01 90.66
  L 109.00 97.27
  A 0.71 0.71 0.0 0 1 108.30 97.97
  L 101.65 98.02
  A 0.64 0.64 0.0 0 0 101.01 98.66
  L 101.00 105.27
  A 0.71 0.71 0.0 0 1 100.30 105.97
  L 93.65 106.02
  A 0.64 0.64 0.0 0 0 93.01 106.66
  L 93.00 113.34
  A 0.66 0.65 -89.6 0 1 92.35 113.99
  L 85.66 114.00
  A 0.66 0.65 -0.4 0 0 85.01 114.65
  L 85.00 121.34
  A 0.66 0.65 -89.6 0 1 84.35 121.99
  L 77.66 122.00
  A 0.66 0.65 -0.4 0 0 77.01 122.65
  L 77.00 129.27
  A 0.71 0.71 0.0 0 1 76.30 129.97
  L 69.65 130.02
  A 0.64 0.64 0.0 0 0 69.01 130.66
  L 69.00 137.35
  A 0.60 0.60 0.0 0 1 68.41 137.94
  L 61.64 138.03
  A 0.64 0.64 0.0 0 0 61.01 138.67
  L 61.00 145.29
  Q 61.00 145.84 60.45 145.84
  L 53.07 145.86"
/>
<path stroke="#808080" vector-effect="non-scaling-stroke" d="
  M 68.96 106.10
  L 68.99 98.93
  A 0.93 0.93 0.0 0 0 68.06 98.00
  L 28.90 97.99"
/>
<path stroke="#808080" vector-effect="non-scaling-stroke" d="
  M 52.67 153.95
  L 52.84 146.08"
/>
<path stroke="#97bfb7" vector-effect="non-scaling-stroke" d="
  M 53.01 66.04
  L 45.68 66.07
  Q 45.08 66.07 45.08 66.67
  L 45.13 74.14"
/>
<path stroke="#e6ff80" vector-effect="non-scaling-stroke" d="
  M 45.13 74.14
  L 45.04 81.30
  Q 45.03 81.88 45.62 81.88
  L 52.86 81.85"
/>
<path stroke="#97bfb7" vector-effect="non-scaling-stroke" d="
  M 52.86 81.85
  L 61.03 81.89"
/>
<path stroke="#e6ff80" vector-effect="non-scaling-stroke" d="
  M 61.03 81.89
  L 68.86 81.85"
/>
<path stroke="#97bfb7" vector-effect="non-scaling-stroke" d="
  M 68.86 81.85
  L 77.03 81.91"
/>
<path stroke="#e6ff80" vector-effect="non-scaling-stroke" d="
  M 77.03 81.91
  L 85.01 81.96"
/>
<path stroke="#e6ff80" vector-effect="non-scaling-stroke" d="
  M 85.01 81.96
  L 85.03 97.49
  Q 85.03 98.00 85.54 98.00
  L 92.38 98.00
  Q 93.00 98.00 93.00 97.37
  L 93.00 91.00
  A 1.00 1.00 0.0 0 1 94.00 90.00
  L 100.49 90.00
  A 0.50 0.50 0.0 0 0 100.99 89.51
  L 101.07 81.97"
/>
<path stroke="#97bfb7" vector-effect="non-scaling-stroke" d="
  M 101.07 81.97
  L 108.37 81.94
  Q 109.00 81.93 109.00 81.30
  L 109.00 74.71
  Q 109.00 74.04 108.33 74.04
  L 101.02 74.03"
/>
<path stroke="#e6ff80" vector-effect="non-scaling-stroke" d="
  M 101.02 74.03
  L 92.96 73.99"
/>
<path stroke="#e6ff80" vector-effect="non-scaling-stroke" d="
  M 92.96 73.99
  L 92.89 66.03"
/>
<path stroke="#97bfb7" vector-effect="non-scaling-stroke" d="
  M 92.89 66.03
  L 93.01 58.49
  A 0.50 0.50 0.0 0 1 93.51 58.00
  L 100.35 57.99
  A 0.65 0.65 0.0 0 0 101.00 57.34
  L 101.00 50.75
  Q 101.00 50.00 101.75 50.00
  L 108.50 50.00
  A 0.50 0.50 0.0 0 0 109.00 49.50
  L 109.00 42.63
  Q 109.00 42.01 109.62 42.00
  L 116.35 41.99
  A 0.65 0.65 0.0 0 0 117.00 41.34
  L 117.00 34.75
  Q 117.00 34.00 116.25 34.00
  L 61.75 34.00
  Q 61.00 34.00 61.00 34.75
  L 61.00 49.37
  Q 61.00 50.00 60.37 50.00
  L 53.99 50.00
  Q 53.00 50.00 53.00 50.99
  L 53.01 66.04"
/>
<path stroke="#7ebf38" vector-effect="non-scaling-stroke" d="
  M 92.89 66.03
  L 85.49 66.04
  Q 85.00 66.04 85.00 66.53
  L 85.00 73.46
  Q 85.00 73.95 85.49 73.95
  L 92.96 73.99"
/>
<path stroke="#7ebf38" vector-effect="non-scaling-stroke" d="
  M 92.96 73.99
  L 92.93 81.32
  Q 92.93 81.93 92.32 81.93
  L 85.01 81.96"
/>
<path stroke="#7ebf38" vector-effect="non-scaling-stroke" d="
  M 85.01 81.96
  L 84.99 74.50
  Q 84.99 74.00 84.49 74.00
  L 77.51 74.00
  Q 77.02 74.00 77.02 74.49
  L 77.03 81.91"
/>
<path stroke="#7ebf38" vector-effect="non-scaling-stroke" d="
  M 68.86 81.85
  L 68.96 74.47
  Q 68.96 74.00 68.49 74.00
  L 61.51 74.00
  Q 61.02 74.00 61.02 74.49
  L 61.03 81.89"
/>
<path stroke="#7ebf38" vector-effect="non-scaling-stroke" d="
  M 52.86 81.85
  L 52.96 74.54
  Q 52.97 74.03 52.46 74.04
  L 45.13 74.14"
/>
<path stroke="#7ebf38" vector-effect="non-scaling-stroke" d="
  M 53.01 66.04
  L 53.05 73.51
  Q 53.05 74.00 53.54 74.00
  L 60.37 74.00
  Q 61.00 74.00 61.00 73.37
  L 61.00 66.54
  Q 61.00 66.05 60.51 66.05
  L 53.01 66.04"
/>
<path stroke="#7ebf38" vector-effect="non-scaling-stroke" d="
  M 101.02 74.03
  L 101.07 81.97"
/>
<path stroke="#7ebf38" vector-effect="non-scaling-stroke" d="
  M 76.9881 66.5861
  A 0.60 0.60 0.0 0 0 76.3860 65.9882
  L 69.5861 66.0119
  A 0.60 0.60 0.0 0 0 68.9882 66.6140
  L 69.0119 73.4139
  A 0.60 0.60 0.0 0 0 69.6140 74.0118
  L 76.4139 73.9881
  A 0.60 0.60 0.0 0 0 77.0118 73.3860
  L 76.9881 66.5861"
/>
</g>
<path fill="#ffffff" d="
  M 148.94 25.89
  L 142.07 25.96
  Q 141.00 25.97 141.00 27.04
  L 141.00 33.34
  A 0.65 0.65 0.0 0 1 140.35 33.99
  L 134.25 34.00
  A 1.26 1.25 -0.2 0 0 133.00 35.25
  L 133.00 41.00
  A 1.00 1.00 0.0 0 1 132.00 42.00
  L 125.75 42.00
  Q 125.00 42.00 125.00 42.75
  L 125.00 49.50
  A 0.50 0.50 0.0 0 1 124.50 50.00
  L 117.75 50.00
  Q 117.00 50.00 117.00 50.75
  L 117.00 57.31
  Q 117.00 57.99 117.68 57.99
  L 133.01 58.01
  L 140.16 58.07
  Q 140.82 58.07 140.83 58.74
  L 140.90 65.85
  L 134.28 65.97
  A 1.30 1.30 0.0 0 0 133.00 67.27
  L 133.00 73.34
  A 0.65 0.65 0.0 0 1 132.35 73.99
  L 125.66 74.00
  A 0.66 0.65 -0.4 0 0 125.01 74.65
  L 125.00 81.34
  A 0.66 0.65 -89.6 0 1 124.35 81.99
  L 117.66 82.00
  A 0.66 0.65 -0.4 0 0 117.01 82.65
  L 117.00 89.27
  A 0.71 0.71 0.0 0 1 116.30 89.97
  L 109.65 90.02
  A 0.64 0.64 0.0 0 0 109.01 90.66
  L 109.00 97.27
  A 0.71 0.71 0.0 0 1 108.30 97.97
  L 101.65 98.02
  A 0.64 0.64 0.0 0 0 101.01 98.66
  L 101.00 105.27
  A 0.71 0.71 0.0 0 1 100.30 105.97
  L 93.65 106.02
  A 0.64 0.64 0.0 0 0 93.01 106.66
  L 93.00 113.34
  A 0.66 0.65 -89.6 0 1 92.35 113.99
  L 85.66 114.00
  A 0.66 0.65 -0.4 0 0 85.01 114.65
  L 85.00 121.34
  A 0.66 0.65 -89.6 0 1 84.35 121.99
  L 77.66 122.00
  A 0.66 0.65 -0.4 0 0 77.01 122.65
  L 77.00 129.27
  A 0.71 0.71 0.0 0 1 76.30 129.97
  L 69.65 130.02
  A 0.64 0.64 0.0 0 0 69.01 130.66
  L 69.00 137.35
  A 0.60 0.60 0.0 0 1 68.41 137.94
  L 61.64 138.03
  A 0.64 0.64 0.0 0 0 61.01 138.67
  L 61.00 145.29
  Q 61.00 145.84 60.45 145.84
  L 53.07 145.86
  L 53.04 130.93
  A 0.93 0.92 90.0 0 1 53.96 130.00
  L 60.25 130.00
  Q 61.00 130.00 61.00 129.25
  L 61.00 115.00
  A 1.00 1.00 0.0 0 1 62.00 114.00
  L 68.30 114.00
  Q 68.94 114.00 68.94 113.37
  L 68.96 106.10
  L 68.99 98.93
  A 0.93 0.93 0.0 0 0 68.06 98.00
  L 28.90 97.99
  L 22.59 97.89
  A 0.60 0.60 0.0 0 1 22.00 97.29
  L 22.00 82.75
  A 0.75 0.75 0.0 0 1 22.75 82.00
  L 28.25 82.00
  Q 29.00 82.00 29.00 81.25
  L 29.00 67.25
  Q 29.00 66.00 30.25 66.00
  L 36.37 66.00
  Q 37.00 66.00 37.00 65.37
  L 37.00 51.25
  Q 37.00 50.00 38.25 50.00
  L 44.37 50.00
  Q 45.00 50.00 45.00 49.37
  L 45.00 35.25
  Q 45.00 34.00 46.25 34.00
  L 52.37 34.00
  Q 53.00 34.00 53.00 33.37
  L 53.00 18.63
  Q 53.00 18.00 53.62 18.00
  L 148.30 18.00
  Q 148.90 18.00 148.90 18.59
  L 148.94 25.89
  Z
  M 53.01 66.04
  L 45.68 66.07
  Q 45.08 66.07 45.08 66.67
  L 45.13 74.14
  L 45.04 81.30
  Q 45.03 81.88 45.62 81.88
  L 52.86 81.85
  L 61.03 81.89
  L 68.86 81.85
  L 77.03 81.91
  L 85.01 81.96
  L 85.03 97.49
  Q 85.03 98.00 85.54 98.00
  L 92.38 98.00
  Q 93.00 98.00 93.00 97.37
  L 93.00 91.00
  A 1.00 1.00 0.0 0 1 94.00 90.00
  L 100.49 90.00
  A 0.50 0.50 0.0 0 0 100.99 89.51
  L 101.07 81.97
  L 108.37 81.94
  Q 109.00 81.93 109.00 81.30
  L 109.00 74.71
  Q 109.00 74.04 108.33 74.04
  L 101.02 74.03
  L 92.96 73.99
  L 92.89 66.03
  L 93.01 58.49
  A 0.50 0.50 0.0 0 1 93.51 58.00
  L 100.35 57.99
  A 0.65 0.65 0.0 0 0 101.00 57.34
  L 101.00 50.75
  Q 101.00 50.00 101.75 50.00
  L 108.50 50.00
  A 0.50 0.50 0.0 0 0 109.00 49.50
  L 109.00 42.63
  Q 109.00 42.01 109.62 42.00
  L 116.35 41.99
  A 0.65 0.65 0.0 0 0 117.00 41.34
  L 117.00 34.75
  Q 117.00 34.00 116.25 34.00
  L 61.75 34.00
  Q 61.00 34.00 61.00 34.75
  L 61.00 49.37
  Q 61.00 50.00 60.37 50.00
  L 53.99 50.00
  Q 53.00 50.00 53.00 50.99
  L 53.01 66.04
  Z"
/>
<path fill="#000000" d="
  M 148.94 25.89
  L 156.94 25.97
  A 1.07 1.07 0.0 0 1 158.00 27.04
  L 158.00 33.26
  A 0.71 0.70 -90.0 0 1 157.30 33.97
  L 150.49 34.01
  A 1.50 1.50 0.0 0 0 149.00 35.51
  L 149.00 41.08
  Q 149.00 41.67 148.42 41.70
  L 141.99 42.06
  A 0.99 0.98 -0.6 0 0 141.06 43.01
  L 140.86 49.09
  A 0.95 0.94 0.6 0 1 139.92 50.00
  L 133.60 50.01
  A 0.59 0.59 0.0 0 0 133.01 50.60
  L 133.01 58.01
  L 117.68 57.99
  Q 117.00 57.99 117.00 57.31
  L 117.00 50.75
  Q 117.00 50.00 117.75 50.00
  L 124.50 50.00
  A 0.50 0.50 0.0 0 0 125.00 49.50
  L 125.00 42.75
  Q 125.00 42.00 125.75 42.00
  L 132.00 42.00
  A 1.00 1.00 0.0 0 0 133.00 41.00
  L 133.00 35.25
  A 1.26 1.25 -0.2 0 1 134.25 34.00
  L 140.35 33.99
  A 0.65 0.65 0.0 0 0 141.00 33.34
  L 141.00 27.04
  Q 141.00 25.97 142.07 25.96
  L 148.94 25.89
  Z"
/>
<path fill="#2f7f6f" d="
  M 92.89 66.03
  L 85.49 66.04
  Q 85.00 66.04 85.00 66.53
  L 85.00 73.46
  Q 85.00 73.95 85.49 73.95
  L 92.96 73.99
  L 92.93 81.32
  Q 92.93 81.93 92.32 81.93
  L 85.01 81.96
  L 84.99 74.50
  Q 84.99 74.00 84.49 74.00
  L 77.51 74.00
  Q 77.02 74.00 77.02 74.49
  L 77.03 81.91
  L 68.86 81.85
  L 68.96 74.47
  Q 68.96 74.00 68.49 74.00
  L 61.51 74.00
  Q 61.02 74.00 61.02 74.49
  L 61.03 81.89
  L 52.86 81.85
  L 52.96 74.54
  Q 52.97 74.03 52.46 74.04
  L 45.13 74.14
  L 45.08 66.67
  Q 45.08 66.07 45.68 66.07
  L 53.01 66.04
  L 53.05 73.51
  Q 53.05 74.00 53.54 74.00
  L 60.37 74.00
  Q 61.00 74.00 61.00 73.37
  L 61.00 66.54
  Q 61.00 66.05 60.51 66.05
  L 53.01 66.04
  L 53.00 50.99
  Q 53.00 50.00 53.99 50.00
  L 60.37 50.00
  Q 61.00 50.00 61.00 49.37
  L 61.00 34.75
  Q 61.00 34.00 61.75 34.00
  L 116.25 34.00
  Q 117.00 34.00 117.00 34.75
  L 117.00 41.34
  A 0.65 0.65 0.0 0 1 116.35 41.99
  L 109.62 42.00
  Q 109.00 42.01 109.00 42.63
  L 109.00 49.50
  A 0.50 0.50 0.0 0 1 108.50 50.00
  L 101.75 50.00
  Q 101.00 50.00 101.00 50.75
  L 101.00 57.34
  A 0.65 0.65 0.0 0 1 100.35 57.99
  L 93.51 58.00
  A 0.50 0.50 0.0 0 0 93.01 58.49
  L 92.89 66.03
  Z
  M 76.9881 66.5861
  A 0.60 0.60 0.0 0 0 76.3860 65.9882
  L 69.5861 66.0119
  A 0.60 0.60 0.0 0 0 68.9882 66.6140
  L 69.0119 73.4139
  A 0.60 0.60 0.0 0 0 69.6140 74.0118
  L 76.4139 73.9881
  A 0.60 0.60 0.0 0 0 77.0118 73.3860
  L 76.9881 66.5861
  Z"
/>
<path fill="#000000" d="
  M 140.90 65.85
  L 147.72 65.98
  A 1.30 1.30 0.0 0 1 149.00 67.28
  L 149.00 73.00
  A 1.01 1.00 -0.3 0 1 148.00 74.00
  L 141.65 74.01
  A 0.65 0.65 0.0 0 0 141.00 74.66
  L 141.00 80.87
  A 1.13 1.13 0.0 0 1 139.88 82.00
  L 133.65 82.01
  A 0.65 0.65 0.0 0 0 133.00 82.66
  L 133.00 89.07
  Q 133.00 89.88 132.19 89.90
  L 126.58 90.05
  Q 125.00 90.09 125.00 91.67
  L 125.00 97.15
  Q 125.00 97.81 124.35 97.83
  L 118.19 98.07
  A 1.24 1.24 0.0 0 0 117.00 99.31
  L 117.00 105.26
  A 0.71 0.71 0.0 0 1 116.30 105.97
  L 109.72 106.01
  A 0.71 0.70 -90.0 0 0 109.03 106.71
  L 108.99 113.27
  A 0.71 0.71 0.0 0 1 108.29 113.97
  L 101.72 114.01
  A 0.71 0.70 -90.0 0 0 101.03 114.71
  L 100.98 121.10
  A 0.89 0.89 0.0 0 1 100.09 121.99
  L 94.12 122.00
  A 1.13 1.13 0.0 0 0 93.00 123.13
  L 93.00 129.33
  A 0.58 0.58 0.0 0 1 92.43 129.91
  L 86.22 130.04
  A 1.25 1.24 -0.7 0 0 85.00 131.28
  L 85.00 137.15
  Q 85.00 137.81 84.35 137.83
  L 78.19 138.07
  A 1.24 1.24 0.0 0 0 77.00 139.31
  L 77.00 145.02
  Q 77.00 145.79 76.23 145.82
  L 70.19 146.07
  A 1.24 1.24 0.0 0 0 69.00 147.31
  L 69.00 153.18
  Q 69.00 153.86 68.32 153.88
  L 62.33 154.06
  A 1.37 1.36 -0.9 0 0 61.00 155.42
  L 61.00 160.57
  A 1.31 1.31 0.0 0 1 59.68 161.88
  L 54.14 161.85
  A 1.15 1.15 0.0 0 1 53.00 160.76
  L 52.67 153.95
  L 52.84 146.08
  Q 53.36 145.53 53.07 145.86
  L 60.45 145.84
  Q 61.00 145.84 61.00 145.29
  L 61.01 138.67
  A 0.64 0.64 0.0 0 1 61.64 138.03
  L 68.41 137.94
  A 0.60 0.60 0.0 0 0 69.00 137.35
  L 69.01 130.66
  A 0.64 0.64 0.0 0 1 69.65 130.02
  L 76.30 129.97
  A 0.71 0.71 0.0 0 0 77.00 129.27
  L 77.01 122.65
  A 0.66 0.65 -0.4 0 1 77.66 122.00
  L 84.35 121.99
  A 0.66 0.65 -89.6 0 0 85.00 121.34
  L 85.01 114.65
  A 0.66 0.65 -0.4 0 1 85.66 114.00
  L 92.35 113.99
  A 0.66 0.65 -89.6 0 0 93.00 113.34
  L 93.01 106.66
  A 0.64 0.64 0.0 0 1 93.65 106.02
  L 100.30 105.97
  A 0.71 0.71 0.0 0 0 101.00 105.27
  L 101.01 98.66
  A 0.64 0.64 0.0 0 1 101.65 98.02
  L 108.30 97.97
  A 0.71 0.71 0.0 0 0 109.00 97.27
  L 109.01 90.66
  A 0.64 0.64 0.0 0 1 109.65 90.02
  L 116.30 89.97
  A 0.71 0.71 0.0 0 0 117.00 89.27
  L 117.01 82.65
  A 0.66 0.65 -0.4 0 1 117.66 82.00
  L 124.35 81.99
  A 0.66 0.65 -89.6 0 0 125.00 81.34
  L 125.01 74.65
  A 0.66 0.65 -0.4 0 1 125.66 74.00
  L 132.35 73.99
  A 0.65 0.65 0.0 0 0 133.00 73.34
  L 133.00 67.27
  A 1.30 1.30 0.0 0 1 134.28 65.97
  L 140.90 65.85
  Z"
/>
<path fill="#ccff00" d="
  M 53.01 66.04
  L 60.51 66.05
  Q 61.00 66.05 61.00 66.54
  L 61.00 73.37
  Q 61.00 74.00 60.37 74.00
  L 53.54 74.00
  Q 53.05 74.00 53.05 73.51
  L 53.01 66.04
  Z"
/>
<rect fill="#ccff00" x="-4.00" y="-4.00" transform="translate(73.00,70.00) rotate(-0.2)" width="8.00" height="8.00" rx="0.60"/>
<path fill="#ccff00" d="
  M 92.89 66.03
  L 92.96 73.99
  L 85.49 73.95
  Q 85.00 73.95 85.00 73.46
  L 85.00 66.53
  Q 85.00 66.04 85.49 66.04
  L 92.89 66.03
  Z"
/>
<path fill="#ccff00" d="
  M 52.86 81.85
  L 45.62 81.88
  Q 45.03 81.88 45.04 81.30
  L 45.13 74.14
  L 52.46 74.04
  Q 52.97 74.03 52.96 74.54
  L 52.86 81.85
  Z"
/>
<path fill="#ccff00" d="
  M 68.86 81.85
  L 61.03 81.89
  L 61.02 74.49
  Q 61.02 74.00 61.51 74.00
  L 68.49 74.00
  Q 68.96 74.00 68.96 74.47
  L 68.86 81.85
  Z"
/>
<path fill="#ccff00" d="
  M 85.01 81.96
  L 77.03 81.91
  L 77.02 74.49
  Q 77.02 74.00 77.51 74.00
  L 84.49 74.00
  Q 84.99 74.00 84.99 74.50
  L 85.01 81.96
  Z"
/>
<path fill="#ccff00" d="
  M 92.96 73.99
  L 101.02 74.03
  L 101.07 81.97
  L 100.99 89.51
  A 0.50 0.50 0.0 0 1 100.49 90.00
  L 94.00 90.00
  A 1.00 1.00 0.0 0 0 93.00 91.00
  L 93.00 97.37
  Q 93.00 98.00 92.38 98.00
  L 85.54 98.00
  Q 85.03 98.00 85.03 97.49
  L 85.01 81.96
  L 92.32 81.93
  Q 92.93 81.93 92.93 81.32
  L 92.96 73.99
  Z"
/>
<path fill="#2f7f6f" d="
  M 101.02 74.03
  L 108.33 74.04
  Q 109.00 74.04 109.00 74.71
  L 109.00 81.30
  Q 109.00 81.93 108.37 81.94
  L 101.07 81.97
  L 101.02 74.03
  Z"
/>
<path fill="#000000" d="
  M 28.90 97.99
  L 68.06 98.00
  A 0.93 0.93 0.0 0 1 68.99 98.93
  L 68.96 106.10
  L 29.60 105.88
  Q 29.05 105.88 29.04 105.32
  L 28.90 97.99
  Z"
/>
<path fill="#ffffff" d="
  M 52.84 146.08
  L 52.67 153.95
  L 45.58 153.97
  A 0.57 0.57 0.0 0 1 45.01 153.40
  L 45.00 146.74
  Q 44.99 146.15 45.58 146.15
  L 52.84 146.08
  Z"
/>
</svg>
