<?xml version="1.0" encoding="UTF-8"?>
<!DOCTYPE svg PUBLIC "-//W3C//DTD SVG 1.1//EN" "http://www.w3.org/Graphics/SVG/1.1/DTD/svg11.dtd">
<svg xmlns="http://www.w3.org/2000/svg" version="1.1" width="1024px" height="1024px" style="shape-rendering:geometricPrecision; text-rendering:geometricPrecision; image-rendering:optimizeQuality; fill-rule:evenodd; clip-rule:evenodd" xmlns:xlink="http://www.w3.org/1999/xlink">
<g><path style="opacity:1" fill="#29263a" d="M 361.5,71.5 C 461.501,71.3333 561.501,71.5 661.5,72C 679.712,71.8687 697.379,74.8687 714.5,81C 736.506,91.5056 752.173,108.006 761.5,130.5C 778.511,131.184 795.511,132.017 812.5,133C 836.512,135.344 849.345,148.511 851,172.5C 851.667,199.167 851.667,225.833 851,252.5C 849.549,284.593 835.383,309.093 808.5,326C 796.595,330.651 784.262,332.484 771.5,331.5C 771.334,338.508 771.5,345.508 772,352.5C 796.029,361.838 814.696,377.505 828,399.5C 854.203,442.448 868.537,489.115 871,539.5C 871.667,598.833 871.667,658.167 871,717.5C 872.075,758.562 861.075,795.895 838,829.5C 818.452,855.857 794.952,878.024 767.5,896C 750.054,905.862 731.387,912.028 711.5,914.5C 710.729,929.22 704.395,940.72 692.5,949C 690.5,949.667 688.5,950.333 686.5,951C 649.833,951.667 613.167,951.667 576.5,951C 566.354,948.189 559.354,941.855 555.5,932C 526.167,931.333 496.833,931.333 467.5,932C 463.646,941.855 456.646,948.189 446.5,951C 409.833,951.667 373.167,951.667 336.5,951C 323.973,946.517 316.139,937.683 313,924.5C 312.39,921.173 311.89,917.839 311.5,914.5C 281.742,910.616 255.408,899.116 232.5,880C 205.437,857.945 183.937,831.445 168,800.5C 157.181,773.926 151.848,746.26 152,717.5C 151.333,658.167 151.333,598.833 152,539.5C 154.811,483.398 172.144,432.398 204,386.5C 216.565,370.943 232.232,359.61 251,352.5C 251.5,345.508 251.666,338.508 251.5,331.5C 227.321,333.947 207.488,325.947 192,307.5C 179.608,291.33 172.941,272.997 172,252.5C 171.333,225.833 171.333,199.167 172,172.5C 172.476,153.015 181.976,140.515 200.5,135C 207.394,133.282 214.394,132.282 221.5,132C 234.846,131.833 248.179,131.333 261.5,130.5C 273.383,101.783 294.383,83.6159 324.5,76C 336.875,73.5776 349.208,72.0776 361.5,71.5 Z M 459.5,712.5 C 461.455,711.07 463.121,711.403 464.5,713.5C 462.883,712.962 461.216,712.629 459.5,712.5 Z M 563.5,712.5 C 561.784,712.629 560.117,712.962 558.5,713.5C 559.879,711.403 561.545,711.07 563.5,712.5 Z"/></g>
<g><path style="opacity:1" fill="#a1acbb" d="M 751.5,335.5 C 737.5,342.167 723.5,348.833 709.5,355.5C 707.398,353.115 704.731,351.782 701.5,351.5C 688.083,355.456 676.25,362.123 666,371.5C 659.569,379.367 655.569,388.367 654,398.5C 651.624,420.441 650.958,442.441 652,464.5C 653.406,468.613 656.239,470.947 660.5,471.5C 661.411,489.469 659.577,507.136 655,524.5C 650.099,534.209 644.265,543.209 637.5,551.5C 626.281,556.943 614.948,562.11 603.5,567C 581.052,573.171 558.719,572.838 536.5,566C 530.001,563.166 524.335,559.166 519.5,554C 514.167,550.667 508.833,550.667 503.5,554C 494.5,563.333 483.5,568.666 470.5,570C 453.327,572.064 436.327,571.064 419.5,567C 408.052,562.11 396.719,556.943 385.5,551.5C 378.735,543.209 372.901,534.209 368,524.5C 363.423,507.136 361.589,489.469 362.5,471.5C 366.761,470.947 369.594,468.613 371,464.5C 372.042,442.441 371.376,420.441 369,398.5C 366.31,380.923 357.143,368.09 341.5,360C 335.16,356.328 328.493,353.495 321.5,351.5C 318.269,351.782 315.602,353.115 313.5,355.5C 299.5,348.833 285.5,342.167 271.5,335.5C 271.062,280.483 271.562,225.483 273,170.5C 273.845,151.296 279.845,133.963 291,118.5C 305.233,102.635 323.067,94.1348 344.5,93C 400.155,91.8736 455.821,91.3736 511.5,91.5C 567.179,91.3736 622.845,91.8736 678.5,93C 715.487,95.9912 738.321,115.491 747,151.5C 748.325,157.782 749.325,164.115 750,170.5C 751.438,225.483 751.938,280.483 751.5,335.5 Z"/></g>
<g><path style="opacity:1" fill="#cfd2d7" d="M 251.5,291.5 C 232.113,293.874 215.946,287.874 203,273.5C 199.589,269.601 196.422,265.601 193.5,261.5C 192.839,258.213 192.339,254.88 192,251.5C 191.5,228.836 191.333,206.169 191.5,183.5C 193.375,176.716 195.875,170.049 199,163.5C 201.383,160.727 204.217,158.561 207.5,157C 212.311,155.552 216.977,154.052 221.5,152.5C 232.654,151.505 243.988,151.172 255.5,151.5C 253.786,162.093 252.619,172.759 252,183.5C 251.5,219.498 251.333,255.498 251.5,291.5 Z"/></g>
<g><path style="opacity:1" fill="#cfd2d7" d="M 801.5,152.5 C 806.023,154.052 810.689,155.552 815.5,157C 818.783,158.561 821.617,160.727 824,163.5C 827.125,170.049 829.625,176.716 831.5,183.5C 831.667,206.169 831.5,228.836 831,251.5C 830.661,254.88 830.161,258.213 829.5,261.5C 823.404,270.764 815.737,278.597 806.5,285C 795.496,290.567 783.829,292.734 771.5,291.5C 771.667,255.498 771.5,219.498 771,183.5C 770.381,172.759 769.214,162.093 767.5,151.5C 779.012,151.172 790.346,151.505 801.5,152.5 Z"/></g>
<g><path style="opacity:1" fill="#aaafb4" d="M 221.5,152.5 C 216.977,154.052 212.311,155.552 207.5,157C 204.217,158.561 201.383,160.727 199,163.5C 195.875,170.049 193.375,176.716 191.5,183.5C 191.102,175.11 192.602,167.11 196,159.5C 198.875,156.537 202.375,154.704 206.5,154C 211.448,152.95 216.448,152.45 221.5,152.5 Z"/></g>
<g><path style="opacity:1" fill="#aaafb4" d="M 801.5,152.5 C 809.515,152.28 817.182,153.78 824.5,157C 827.231,159.626 829.064,162.793 830,166.5C 831.029,172.123 831.529,177.79 831.5,183.5C 829.625,176.716 827.125,170.049 824,163.5C 821.617,160.727 818.783,158.561 815.5,157C 810.689,155.552 806.023,154.052 801.5,152.5 Z"/></g>
<g><path style="opacity:1" fill="#7c7f9a" d="M 420.5,171.5 C 481.168,171.333 541.834,171.5 602.5,172C 611.657,174.481 614.157,179.981 610,188.5C 609.097,189.701 607.931,190.535 606.5,191C 543.167,191.667 479.833,191.667 416.5,191C 409.457,186.112 408.79,180.445 414.5,174C 416.611,173.155 418.611,172.322 420.5,171.5 Z"/></g>
<g><path style="opacity:1" fill="#29263a" d="M 462.5,251.5 C 459.575,251.54 456.909,250.707 454.5,249C 445.761,240.599 435.428,235.266 423.5,233C 399.529,231.596 375.529,231.096 351.5,231.5C 343.774,233.008 337.274,231.008 332,225.5C 330.142,219.419 331.975,214.919 337.5,212C 366.857,211.086 396.19,211.419 425.5,213C 442.958,215.978 457.791,223.811 470,236.5C 472.826,244.181 470.326,249.181 462.5,251.5 Z"/></g>
<g><path style="opacity:1" fill="#29263a" d="M 671.5,231.5 C 647.471,231.096 623.471,231.596 599.5,233C 587.572,235.266 577.239,240.599 568.5,249C 566.091,250.707 563.425,251.54 560.5,251.5C 552.674,249.181 550.174,244.181 553,236.5C 565.209,223.811 580.042,215.978 597.5,213C 626.81,211.419 656.143,211.086 685.5,212C 691.025,214.919 692.858,219.419 691,225.5C 685.726,231.008 679.226,233.008 671.5,231.5 Z"/></g>
<g><path style="opacity:1" fill="#7c7f9a" d="M 351.5,231.5 C 375.529,231.096 399.529,231.596 423.5,233C 435.428,235.266 445.761,240.599 454.5,249C 456.909,250.707 459.575,251.54 462.5,251.5C 462.667,262.838 462.5,274.172 462,285.5C 460.52,288.817 458.02,290.817 454.5,291.5C 454.003,283.671 450.336,277.838 443.5,274C 428.5,270.667 413.5,270.667 398.5,274C 391.664,277.838 387.997,283.671 387.5,291.5C 365.964,291.136 354.131,280.136 352,258.5C 351.5,249.506 351.334,240.506 351.5,231.5 Z"/></g>
<g><path style="opacity:1" fill="#7c7f9a" d="M 671.5,231.5 C 671.666,240.506 671.5,249.506 671,258.5C 668.869,280.136 657.036,291.136 635.5,291.5C 635.003,283.671 631.336,277.838 624.5,274C 609.5,270.667 594.5,270.667 579.5,274C 572.664,277.838 568.997,283.671 568.5,291.5C 564.98,290.817 562.48,288.817 561,285.5C 560.5,274.172 560.333,262.838 560.5,251.5C 563.425,251.54 566.091,250.707 568.5,249C 577.239,240.599 587.572,235.266 599.5,233C 623.471,231.596 647.471,231.096 671.5,231.5 Z"/></g>
<g><path style="opacity:1" fill="#aaafb4" d="M 193.5,261.5 C 196.422,265.601 199.589,269.601 203,273.5C 215.946,287.874 232.113,293.874 251.5,291.5C 251.5,298.167 251.5,304.833 251.5,311.5C 230.176,314.419 214.009,306.752 203,288.5C 197.74,280.218 194.573,271.218 193.5,261.5 Z"/></g>
<g><path style="opacity:1" fill="#aaafb4" d="M 829.5,261.5 C 827.03,277.941 819.697,291.775 807.5,303C 796.66,310.338 784.66,313.171 771.5,311.5C 771.5,304.833 771.5,298.167 771.5,291.5C 783.829,292.734 795.496,290.567 806.5,285C 815.737,278.597 823.404,270.764 829.5,261.5 Z"/></g>
<g><path style="opacity:1" fill="#29263a" d="M 454.5,291.5 C 454.299,299.736 450.633,305.903 443.5,310C 436.074,311.115 428.574,311.615 421,311.5C 413.426,311.615 405.926,311.115 398.5,310C 391.367,305.903 387.701,299.736 387.5,291.5C 387.997,283.671 391.664,277.838 398.5,274C 413.5,270.667 428.5,270.667 443.5,274C 450.336,277.838 454.003,283.671 454.5,291.5 Z"/></g>
<g><path style="opacity:1" fill="#29263a" d="M 478.5,353.5 C 475.155,354.68 472.989,357.013 472,360.5C 471.501,364.152 471.335,367.818 471.5,371.5C 478.167,371.5 484.833,371.5 491.5,371.5C 504.833,371.5 518.167,371.5 531.5,371.5C 538.167,371.5 544.833,371.5 551.5,371.5C 551.275,366.752 551.775,362.085 553,357.5C 554.494,354.686 556.66,352.686 559.5,351.5C 563.587,351.294 567.087,352.627 570,355.5C 571.121,365.752 571.954,376.085 572.5,386.5C 589.043,394.545 600.543,407.211 607,424.5C 613.533,437.233 612.867,449.566 605,461.5C 592.09,480.717 573.924,490.551 550.5,491C 524.5,491.667 498.5,491.667 472.5,491C 442.909,490.054 422.743,475.887 412,448.5C 412.757,426.813 421.257,408.647 437.5,394C 441.506,390.995 445.84,388.495 450.5,386.5C 451.332,377.184 451.832,367.851 452,358.5C 453.952,347.387 460.118,339.721 470.5,335.5C 471.333,323.18 471.833,310.847 472,298.5C 475.09,277.608 487.257,268.608 508.5,271.5C 514.246,271.406 519.913,271.906 525.5,273C 533.485,278.951 533.485,284.951 525.5,291C 515.833,291.333 506.167,291.667 496.5,292C 493.323,293.849 491.823,296.682 492,300.5C 491.667,316.167 491.333,331.833 491,347.5C 487.811,351.508 483.645,353.508 478.5,353.5 Z"/></g>
<g><path style="opacity:1" fill="#29263a" d="M 635.5,291.5 C 635.299,299.736 631.633,305.903 624.5,310C 617.074,311.115 609.574,311.615 602,311.5C 594.426,311.615 586.926,311.115 579.5,310C 572.367,305.903 568.701,299.736 568.5,291.5C 568.997,283.671 572.664,277.838 579.5,274C 594.5,270.667 609.5,270.667 624.5,274C 631.336,277.838 635.003,283.671 635.5,291.5 Z"/></g>
<g><path style="opacity:1" fill="#7c7f9a" d="M 271.5,335.5 C 285.5,342.167 299.5,348.833 313.5,355.5C 310.251,361.162 311.251,365.996 316.5,370C 326.937,373.961 336.103,379.794 344,387.5C 348.824,397.582 351.157,408.249 351,419.5C 351.333,434.5 351.667,449.5 352,464.5C 353.926,469.212 357.426,471.545 362.5,471.5C 361.589,489.469 363.423,507.136 368,524.5C 372.901,534.209 378.735,543.209 385.5,551.5C 346.131,526.637 312.631,495.304 285,457.5C 277.866,445.431 273.532,432.431 272,418.5C 271.5,390.835 271.333,363.169 271.5,335.5 Z"/></g>
<g><path style="opacity:1" fill="#7c7f9a" d="M 751.5,335.5 C 751.667,363.169 751.5,390.835 751,418.5C 749.468,432.431 745.134,445.431 738,457.5C 710.369,495.304 676.869,526.637 637.5,551.5C 644.265,543.209 650.099,534.209 655,524.5C 659.577,507.136 661.411,489.469 660.5,471.5C 665.574,471.545 669.074,469.212 671,464.5C 671.333,449.5 671.667,434.5 672,419.5C 671.843,408.249 674.176,397.582 679,387.5C 686.897,379.794 696.063,373.961 706.5,370C 711.749,365.996 712.749,361.162 709.5,355.5C 723.5,348.833 737.5,342.167 751.5,335.5 Z"/></g>
<g><path style="opacity:1" fill="#29263a" d="M 362.5,471.5 C 357.426,471.545 353.926,469.212 352,464.5C 351.667,449.5 351.333,434.5 351,419.5C 351.157,408.249 348.824,397.582 344,387.5C 336.103,379.794 326.937,373.961 316.5,370C 311.251,365.996 310.251,361.162 313.5,355.5C 315.602,353.115 318.269,351.782 321.5,351.5C 328.493,353.495 335.16,356.328 341.5,360C 357.143,368.09 366.31,380.923 369,398.5C 371.376,420.441 372.042,442.441 371,464.5C 369.594,468.613 366.761,470.947 362.5,471.5 Z"/></g>
<g><path style="opacity:1" fill="#7c7f9a" d="M 559.5,351.5 C 556.66,352.686 554.494,354.686 553,357.5C 551.775,362.085 551.275,366.752 551.5,371.5C 544.833,371.5 538.167,371.5 531.5,371.5C 532.632,359.536 539.299,353.036 551.5,352C 554.146,351.503 556.813,351.336 559.5,351.5 Z"/></g>
<g><path style="opacity:1" fill="#29263a" d="M 709.5,355.5 C 712.749,361.162 711.749,365.996 706.5,370C 696.063,373.961 686.897,379.794 679,387.5C 674.176,397.582 671.843,408.249 672,419.5C 671.667,434.5 671.333,449.5 671,464.5C 669.074,469.212 665.574,471.545 660.5,471.5C 656.239,470.947 653.406,468.613 652,464.5C 650.958,442.441 651.624,420.441 654,398.5C 655.569,388.367 659.569,379.367 666,371.5C 676.25,362.123 688.083,355.456 701.5,351.5C 704.731,351.782 707.398,353.115 709.5,355.5 Z"/></g>
<g><path style="opacity:1" fill="#7c7f9a" d="M 478.5,353.5 C 486.633,356.649 490.966,362.649 491.5,371.5C 484.833,371.5 478.167,371.5 471.5,371.5C 471.335,367.818 471.501,364.152 472,360.5C 472.989,357.013 475.155,354.68 478.5,353.5 Z"/></g>
<g><path style="opacity:1" fill="#a1acbb" d="M 367.5,564.5 C 344.932,567.954 324.265,576.121 305.5,589C 297.469,595.574 291.802,603.74 288.5,613.5C 279.697,609.401 274.03,612.068 271.5,621.5C 284.308,653.815 305.641,678.981 335.5,697C 353.651,706.432 372.984,711.432 393.5,712C 390.27,725.316 391.27,738.316 396.5,751C 369.056,754.093 343.056,749.427 318.5,737C 307.268,729.769 296.601,721.769 286.5,713C 280.991,710.78 276.324,711.947 272.5,716.5C 261.228,705.729 250.062,694.729 239,683.5C 211.909,647.626 194.909,607.292 188,562.5C 184.328,537.279 181.828,511.945 180.5,486.5C 185.261,465.548 192.595,445.548 202.5,426.5C 210.373,410.265 221.04,396.098 234.5,384C 239.755,380.454 245.255,377.288 251,374.5C 251.104,391.867 251.771,409.201 253,426.5C 255.375,441.961 260.708,456.294 269,469.5C 296.855,506.525 329.688,538.192 367.5,564.5 Z"/></g>
<g><path style="opacity:1" fill="#a1acbb" d="M 820.5,426.5 C 830.405,445.548 837.739,465.548 842.5,486.5C 841.264,524.39 836.097,561.723 827,598.5C 818.188,629.791 803.855,658.125 784,683.5C 772.938,694.729 761.772,705.729 750.5,716.5C 746.676,711.947 742.009,710.78 736.5,713C 726.399,721.769 715.732,729.769 704.5,737C 679.944,749.427 653.944,754.093 626.5,751C 631.73,738.316 632.73,725.316 629.5,712C 659.083,711.588 685.083,701.921 707.5,683C 727.221,666.037 741.887,645.537 751.5,621.5C 748.97,612.068 743.303,609.401 734.5,613.5C 729.643,600.139 720.977,589.972 708.5,583C 691.894,573.743 674.227,567.576 655.5,564.5C 693.312,538.192 726.145,506.525 754,469.5C 762.292,456.294 767.625,441.961 770,426.5C 771.229,409.201 771.896,391.867 772,374.5C 785.761,380.932 797.095,390.265 806,402.5C 811.11,410.397 815.944,418.397 820.5,426.5 Z"/></g>
<g><path style="opacity:1" fill="#7c7f9a" d="M 471.5,400.5 C 477.245,400.211 482.912,400.711 488.5,402C 496.673,404.657 504.34,408.157 511.5,412.5C 517.256,409.927 522.923,407.093 528.5,404C 548.355,397.104 565.521,401.271 580,416.5C 582.769,421.039 585.269,425.706 587.5,430.5C 536.833,431.833 486.167,431.833 435.5,430.5C 441.783,413.543 453.783,403.543 471.5,400.5 Z"/></g>
<g><path style="opacity:1" fill="#7c7f9a" d="M 435.5,452.5 C 485.998,451.335 536.665,451.168 587.5,452C 578.399,464.383 566.066,470.716 550.5,471C 524.5,471.667 498.5,471.667 472.5,471C 457.103,470.611 444.769,464.444 435.5,452.5 Z"/></g>
<g><path style="opacity:1" fill="#7c7f9a" d="M 180.5,486.5 C 181.828,511.945 184.328,537.279 188,562.5C 194.909,607.292 211.909,647.626 239,683.5C 250.062,694.729 261.228,705.729 272.5,716.5C 272.007,718.806 271.674,721.139 271.5,723.5C 262.365,760.011 255.865,797.011 252,834.5C 251.5,845.828 251.333,857.162 251.5,868.5C 221.138,846.638 198.305,818.638 183,784.5C 175.66,762.789 171.994,740.455 172,717.5C 171.333,658.167 171.333,598.833 172,539.5C 173.314,521.449 176.148,503.783 180.5,486.5 Z"/></g>
<g><path style="opacity:1" fill="#7c7f9a" d="M 842.5,486.5 C 846.852,503.783 849.686,521.449 851,539.5C 851.667,598.833 851.667,658.167 851,717.5C 851.697,750.035 844.03,780.369 828,808.5C 812.772,831.895 793.939,851.895 771.5,868.5C 771.9,849.775 771.067,831.109 769,812.5C 764.249,782.58 758.416,752.914 751.5,723.5C 751.326,721.139 750.993,718.806 750.5,716.5C 761.772,705.729 772.938,694.729 784,683.5C 803.855,658.125 818.188,629.791 827,598.5C 836.097,561.723 841.264,524.39 842.5,486.5 Z"/></g>
<g><path style="opacity:1" fill="#7c7f9a" d="M 481.5,511.5 C 501.503,511.333 521.503,511.5 541.5,512C 550.657,514.481 553.157,519.981 549,528.5C 548.097,529.701 546.931,530.535 545.5,531C 522.833,531.667 500.167,531.667 477.5,531C 470.457,526.112 469.79,520.445 475.5,514C 477.611,513.155 479.611,512.322 481.5,511.5 Z"/></g>
<g><path style="opacity:1" fill="#cfd3d7" d="M 367.5,564.5 C 383.272,573.05 399.606,580.55 416.5,587C 440.171,592.934 463.838,592.934 487.5,587C 496.261,584.121 504.261,579.954 511.5,574.5C 529.084,586.818 548.751,592.485 570.5,591.5C 587.812,591.588 604.479,588.421 620.5,582C 632.251,576.125 643.918,570.291 655.5,564.5C 674.227,567.576 691.894,573.743 708.5,583C 720.977,589.972 729.643,600.139 734.5,613.5C 725.056,633.874 712.056,651.707 695.5,667C 674.036,685.598 649.036,693.598 620.5,691C 610.272,680.044 598.939,678.711 586.5,687C 583.135,690.261 580.135,693.761 577.5,697.5C 558.095,687.026 543.928,692.026 535,712.5C 528.962,729.475 530.795,745.475 540.5,760.5C 521.167,760.5 501.833,760.5 482.5,760.5C 493.929,742.196 494.429,723.53 484,704.5C 473.309,690.15 460.475,687.817 445.5,697.5C 441.13,689.967 434.797,684.8 426.5,682C 416.822,680.505 408.822,683.505 402.5,691C 373.964,693.598 348.964,685.598 327.5,667C 310.944,651.707 297.944,633.874 288.5,613.5C 291.802,603.74 297.469,595.574 305.5,589C 324.265,576.121 344.932,567.954 367.5,564.5 Z"/></g>
<g><path style="opacity:1" fill="#29263a" d="M 288.5,613.5 C 297.944,633.874 310.944,651.707 327.5,667C 348.964,685.598 373.964,693.598 402.5,691C 408.822,683.505 416.822,680.505 426.5,682C 434.797,684.8 441.13,689.967 445.5,697.5C 460.475,687.817 473.309,690.15 484,704.5C 494.429,723.53 493.929,742.196 482.5,760.5C 478.408,765.736 473.074,769.236 466.5,771C 432.5,771.667 398.5,771.667 364.5,771C 326.855,767.375 295.855,751.542 271.5,723.5C 271.674,721.139 272.007,718.806 272.5,716.5C 276.324,711.947 280.991,710.78 286.5,713C 296.601,721.769 307.268,729.769 318.5,737C 343.056,749.427 369.056,754.093 396.5,751C 391.27,738.316 390.27,725.316 393.5,712C 372.984,711.432 353.651,706.432 335.5,697C 305.641,678.981 284.308,653.815 271.5,621.5C 274.03,612.068 279.697,609.401 288.5,613.5 Z M 459.5,712.5 C 461.455,711.07 463.121,711.403 464.5,713.5C 462.883,712.962 461.216,712.629 459.5,712.5 Z"/></g>
<g><path style="opacity:1" fill="#29263a" d="M 750.5,716.5 C 750.993,718.806 751.326,721.139 751.5,723.5C 727.145,751.542 696.145,767.375 658.5,771C 624.5,771.667 590.5,771.667 556.5,771C 549.926,769.236 544.592,765.736 540.5,760.5C 530.795,745.475 528.962,729.475 535,712.5C 543.928,692.026 558.095,687.026 577.5,697.5C 580.135,693.761 583.135,690.261 586.5,687C 598.939,678.711 610.272,680.044 620.5,691C 649.036,693.598 674.036,685.598 695.5,667C 712.056,651.707 725.056,633.874 734.5,613.5C 743.303,609.401 748.97,612.068 751.5,621.5C 741.887,645.537 727.221,666.037 707.5,683C 685.083,701.921 659.083,711.588 629.5,712C 632.73,725.316 631.73,738.316 626.5,751C 653.944,754.093 679.944,749.427 704.5,737C 715.732,729.769 726.399,721.769 736.5,713C 742.009,710.78 746.676,711.947 750.5,716.5 Z M 563.5,712.5 C 561.784,712.629 560.117,712.962 558.5,713.5C 559.879,711.403 561.545,711.07 563.5,712.5 Z"/></g>
<g><path style="opacity:1" fill="#cfd3d7" d="M 419.5,750.5 C 413.88,743.64 411.213,735.64 411.5,726.5C 411.344,718.14 413.511,710.473 418,703.5C 420.333,700.833 422.667,700.833 425,703.5C 433.8,719.118 433.633,734.618 424.5,750C 422.866,750.494 421.199,750.66 419.5,750.5 Z"/></g>
<g><path style="opacity:1" fill="#cfd3d7" d="M 603.5,750.5 C 599.818,751.275 597.318,749.941 596,746.5C 589.505,731.784 590.171,717.45 598,703.5C 600.333,700.833 602.667,700.833 605,703.5C 612.829,717.45 613.495,731.784 607,746.5C 605.968,748.027 604.801,749.36 603.5,750.5 Z"/></g>
<g><path style="opacity:1" fill="#cfd3d7" d="M 459.5,712.5 C 461.216,712.629 462.883,712.962 464.5,713.5C 464.5,714.167 464.833,714.5 465.5,714.5C 465.5,715.167 465.833,715.5 466.5,715.5C 472.569,725.384 473.069,735.718 468,746.5C 462.462,753.459 457.795,752.793 454,744.5C 450.667,735.833 450.667,727.167 454,718.5C 455.331,716.004 457.164,714.004 459.5,712.5 Z"/></g>
<g><path style="opacity:1" fill="#cfd3d7" d="M 563.5,712.5 C 569.25,717.386 571.917,723.72 571.5,731.5C 571.847,739.304 569.18,745.804 563.5,751C 559.835,751.387 557.002,749.887 555,746.5C 549.931,735.718 550.431,725.384 556.5,715.5C 557.167,715.5 557.5,715.167 557.5,714.5C 558.167,714.5 558.5,714.167 558.5,713.5C 560.117,712.962 561.784,712.629 563.5,712.5 Z"/></g>
<g><path style="opacity:1" fill="#aaafb4" d="M 271.5,723.5 C 295.855,751.542 326.855,767.375 364.5,771C 398.5,771.667 432.5,771.667 466.5,771C 473.074,769.236 478.408,765.736 482.5,760.5C 501.833,760.5 521.167,760.5 540.5,760.5C 544.592,765.736 549.926,769.236 556.5,771C 590.5,771.667 624.5,771.667 658.5,771C 696.145,767.375 727.145,751.542 751.5,723.5C 758.416,752.914 764.249,782.58 769,812.5C 771.067,831.109 771.9,849.775 771.5,868.5C 753.252,883.695 732.252,892.029 708.5,893.5C 700.333,872.897 686.333,867.23 666.5,876.5C 656.668,855.75 640.668,848.25 618.5,854C 608.304,858.696 600.971,866.196 596.5,876.5C 577.233,867.316 563.4,872.649 555,892.5C 552.755,898.634 551.589,904.968 551.5,911.5C 524.833,911.5 498.167,911.5 471.5,911.5C 471.616,895.564 465.283,883.064 452.5,874C 443.358,870.148 434.692,870.981 426.5,876.5C 420.781,863.643 411.115,855.477 397.5,852C 384.671,850.276 373.837,854.109 365,863.5C 361.97,867.698 359.137,872.032 356.5,876.5C 336.667,867.23 322.667,872.897 314.5,893.5C 290.748,892.029 269.748,883.695 251.5,868.5C 251.333,857.162 251.5,845.828 252,834.5C 255.865,797.011 262.365,760.011 271.5,723.5 Z"/></g>
<g><path style="opacity:1" fill="#cfd3d7" d="M 387.5,871.5 C 399.624,872.109 407.124,878.443 410,890.5C 413.891,905.443 410.391,918.276 399.5,929C 390.797,933.509 383.63,931.675 378,923.5C 370.172,910.224 369.505,896.558 376,882.5C 379.07,877.927 382.904,874.261 387.5,871.5 Z"/></g>
<g><path style="opacity:1" fill="#cfd3d7" d="M 627.5,871.5 C 639.624,872.109 647.124,878.443 650,890.5C 653.891,905.443 650.391,918.276 639.5,929C 630.797,933.509 623.63,931.675 618,923.5C 610.172,910.224 609.505,896.558 616,882.5C 619.07,877.927 622.904,874.261 627.5,871.5 Z"/></g>
<g><path style="opacity:1" fill="#cfd3d7" d="M 339.5,891.5 C 343.147,891.622 345.981,893.288 348,896.5C 352.21,905.688 352.543,915.021 349,924.5C 345.205,932.793 340.538,933.459 335,926.5C 329.196,913.736 330.696,902.07 339.5,891.5 Z"/></g>
<g><path style="opacity:1" fill="#cfd3d7" d="M 439.5,891.5 C 443.147,891.622 445.981,893.288 448,896.5C 452.21,905.688 452.543,915.021 449,924.5C 445.205,932.793 440.538,933.459 435,926.5C 429.196,913.736 430.696,902.07 439.5,891.5 Z"/></g>
<g><path style="opacity:1" fill="#cfd3d7" d="M 579.5,891.5 C 583.147,891.622 585.981,893.288 588,896.5C 592.21,905.688 592.543,915.021 589,924.5C 585.205,932.793 580.538,933.459 575,926.5C 569.196,913.736 570.696,902.07 579.5,891.5 Z"/></g>
<g><path style="opacity:1" fill="#cfd3d7" d="M 679.5,891.5 C 683.147,891.622 685.981,893.288 688,896.5C 692.21,905.688 692.543,915.021 689,924.5C 685.205,932.793 680.538,933.459 675,926.5C 669.196,913.736 670.696,902.07 679.5,891.5 Z"/></g>
</svg>
