<?xml version="1.0" encoding="UTF-8" standalone="no"?>
<!DOCTYPE svg PUBLIC "-//W3C//DTD SVG 1.1//EN" "http://www.w3.org/Graphics/SVG/1.1/DTD/svg11.dtd">
<svg xmlns="http://www.w3.org/2000/svg" version="1.1" viewBox="0.00 0.00 680.00 680.00">
<path fill="#ffffff" d="
  M 676.63 0.00
  L 678.99 0.00
  L 678.97 323.48
  Q 678.97 324.06 678.40 324.06
  Q 589.36 323.72 501.55 324.85
  Q 492.04 324.98 481.53 324.98
  Q 394.03 325.00 311.50 325.17
  Q 311.28 325.17 311.28 324.95
  L 311.28 54.78
  Q 311.28 54.08 311.97 54.17
  Q 313.74 54.39 315.51 53.67
  C 317.80 52.74 320.18 53.46 322.54 52.68
  Q 324.79 51.94 327.20 52.03
  C 329.16 52.11 330.85 51.01 332.81 51.07
  Q 335.11 51.13 337.19 50.49
  C 339.72 49.72 342.10 50.26 344.61 49.38
  C 346.43 48.75 348.21 49.17 350.02 48.74
  Q 352.65 48.13 355.97 47.64
  Q 389.45 42.71 424.59 37.39
  C 426.48 37.11 428.31 37.34 430.16 36.75
  C 432.89 35.88 435.44 36.36 438.20 35.51
  Q 440.15 34.92 442.20 35.03
  C 444.15 35.14 445.82 34.00 447.76 34.07
  Q 450.11 34.14 452.20 33.49
  C 454.42 32.79 456.58 33.36 458.62 32.66
  Q 460.75 31.93 462.91 31.94
  C 464.97 31.95 466.83 31.25 468.84 30.95
  Q 502.89 25.95 539.20 20.47
  C 541.34 20.15 543.48 20.30 545.49 19.65
  C 547.93 18.86 550.30 19.41 552.73 18.63
  Q 554.81 17.95 557.04 18.03
  C 559.14 18.10 560.89 16.94 562.93 17.04
  C 565.82 17.19 568.10 15.92 570.91 15.97
  C 572.76 16.00 574.33 15.43 576.14 15.16
  Q 615.36 9.33 654.58 3.50
  Q 656.27 3.25 657.96 3.17
  C 660.00 3.09 661.64 2.10 663.75 2.13
  Q 665.67 2.15 667.65 1.68
  Q 669.52 1.24 672.14 1.08
  Q 674.47 0.93 676.63 0.00
  Z"
/>
<path fill="#ffffff" d="
  M 221.76 67.60
  Q 223.76 66.96 225.67 66.99
  C 227.98 67.02 229.98 66.17 232.35 65.92
  Q 233.91 65.76 235.36 65.54
  Q 255.25 62.48 277.25 59.35
  Q 278.29 59.21 278.29 60.26
  L 278.27 325.25
  Q 278.27 325.59 277.93 325.59
  Q 247.19 325.87 220.00 325.93
  Q 148.65 326.10 76.50 326.33
  Q 43.00 326.44 1.91 326.84
  A 0.88 0.88 0.0 0 1 1.03 325.96
  L 1.03 100.51
  Q 1.03 99.78 1.75 99.88
  Q 3.99 100.19 6.15 99.52
  C 8.65 98.75 11.20 98.86 13.85 98.34
  Q 15.48 98.02 17.13 97.77
  Q 49.50 92.91 79.78 88.35
  C 81.63 88.07 83.53 88.25 85.32 87.66
  C 87.72 86.88 89.99 87.42 92.34 86.69
  Q 94.69 85.97 97.21 86.00
  C 99.00 86.03 100.57 85.11 102.30 85.11
  Q 104.84 85.10 107.34 84.46
  C 109.61 83.87 111.71 84.19 113.92 83.55
  C 116.31 82.87 118.52 83.11 120.88 82.55
  Q 122.23 82.23 123.64 82.02
  Q 161.81 76.35 194.25 71.45
  Q 195.75 71.23 197.26 71.17
  C 199.79 71.08 201.79 70.07 204.30 70.12
  C 206.65 70.16 208.58 69.03 210.87 69.09
  Q 213.09 69.16 215.13 68.49
  C 217.41 67.74 219.54 68.30 221.76 67.60
  Z"
/>
<path fill="#ffffff" d="
  M 220.48 615.83
  Q 153.71 606.56 90.27 597.53
  Q 80.19 596.10 70.46 594.80
  Q 37.50 590.40 4.66 585.48
  C 3.65 585.33 2.65 585.38 1.63 585.40
  Q 1.03 585.41 1.03 584.81
  L 1.03 356.52
  Q 1.03 355.97 1.58 355.97
  C 34.91 356.02 68.82 355.68 102.75 356.06
  Q 190.34 357.06 277.77 357.03
  Q 278.28 357.03 278.28 357.54
  L 278.28 623.20
  Q 278.28 623.98 277.51 623.87
  Q 248.53 619.73 220.48 615.83
  Z"
/>
<path fill="#ffffff" d="
  M 678.99 680.00
  L 676.76 680.00
  Q 671.18 678.89 665.48 678.18
  Q 663.90 677.98 662.32 677.86
  C 660.14 677.68 658.28 676.91 656.11 676.79
  Q 654.53 676.69 652.95 676.47
  Q 607.26 669.96 565.61 664.19
  Q 507.06 656.10 446.21 647.38
  C 444.05 647.07 441.91 647.04 439.80 646.56
  C 437.18 645.98 434.59 646.05 431.93 645.49
  Q 430.40 645.17 428.78 644.96
  Q 420.12 643.85 412.50 642.78
  Q 372.38 637.16 332.23 631.42
  Q 330.40 631.15 328.91 631.05
  Q 327.20 630.93 325.70 630.47
  C 323.07 629.66 320.56 630.33 317.91 629.41
  C 316.13 628.78 314.26 629.04 312.41 628.96
  Q 311.28 628.92 311.28 627.79
  L 311.28 357.54
  Q 311.28 357.10 311.75 357.10
  L 678.43 358.64
  A 0.57 0.57 0.0 0 1 679.00 359.21
  L 678.99 680.00
  Z"
/>
</svg>
