<?xml version="1.0" encoding="UTF-8" standalone="no"?>
<!DOCTYPE svg PUBLIC "-//W3C//DTD SVG 1.1//EN" "http://www.w3.org/Graphics/SVG/1.1/DTD/svg11.dtd">
<svg xmlns="http://www.w3.org/2000/svg" version="1.1" viewBox="0.00 0.00 680.00 680.00">
<path fill="#ffffff" d="
  M 336.33 0.00
  L 343.75 0.00
  Q 367.36 2.44 380.88 22.29
  Q 388.05 32.83 388.05 45.00
  Q 387.97 192.36 388.01 339.54
  A 0.38 0.38 0.0 0 0 388.66 339.81
  Q 438.73 289.74 488.52 239.91
  Q 500.55 227.88 502.96 226.12
  C 526.98 208.52 561.11 217.88 573.75 243.64
  C 582.83 262.17 579.89 283.72 565.04 298.54
  Q 474.09 389.33 383.44 480.43
  C 378.96 484.94 374.02 490.55 369.64 493.99
  C 351.81 508.04 324.61 507.75 307.76 491.77
  C 303.51 487.74 298.93 482.49 294.97 478.52
  Q 183.11 366.46 116.45 300.05
  Q 96.74 280.41 102.31 255.00
  C 106.49 235.87 121.19 221.46 140.61 217.85
  Q 158.42 214.54 173.20 223.57
  Q 178.37 226.74 188.24 236.63
  Q 239.67 288.19 291.40 339.84
  A 0.26 0.26 0.0 0 0 291.84 339.71
  Q 291.93 339.22 291.93 338.50
  Q 292.07 144.10 291.96 45.00
  C 291.95 38.95 293.00 33.93 295.71 28.37
  Q 307.93 3.36 336.33 0.00
  Z"
/>
<path fill="#ffffff" d="
  M 637.88 680.00
  L 41.48 680.00
  C 16.06 675.74 -1.71 652.05 1.44 626.73
  C 3.57 609.51 14.48 595.42 30.21 588.31
  C 37.96 584.81 48.08 584.00 56.50 584.00
  Q 337.63 584.01 618.75 583.99
  C 628.27 583.99 639.10 584.19 647.65 587.43
  C 670.91 596.25 684.28 621.82 677.17 645.71
  C 671.94 663.25 656.25 677.75 637.88 680.00
  Z"
/>
</svg>
