<?xml version="1.0" encoding="UTF-8"?>
<!DOCTYPE svg PUBLIC "-//W3C//DTD SVG 1.1//EN" "http://www.w3.org/Graphics/SVG/1.1/DTD/svg11.dtd">
<svg xmlns="http://www.w3.org/2000/svg" version="1.1" width="1280px" height="1600px" style="shape-rendering:geometricPrecision; text-rendering:geometricPrecision; image-rendering:optimizeQuality; fill-rule:evenodd; clip-rule:evenodd" xmlns:xlink="http://www.w3.org/1999/xlink">
<g><path style="opacity:0.004" fill="#fdfefd" d="M -0.5,-0.5 C 426.167,-0.5 852.833,-0.5 1279.5,-0.5C 1279.5,532.833 1279.5,1066.17 1279.5,1599.5C 852.833,1599.5 426.167,1599.5 -0.5,1599.5C -0.5,1066.17 -0.5,532.833 -0.5,-0.5 Z M 45.5,32.5 C 49.3421,31.4608 53.3421,31.4608 57.5,32.5C 57.5,125.5 57.5,218.5 57.5,311.5C 54.8333,311.5 52.1667,311.5 49.5,311.5C 49.5,218.5 49.5,125.5 49.5,32.5C 48.1667,32.5 46.8333,32.5 45.5,32.5 Z M 45.5,32.5 C 45.5,138.5 45.5,244.5 45.5,350.5C 44.1667,350.5 42.8333,350.5 41.5,350.5C 41.5,244.5 41.5,138.5 41.5,32.5C 42.8333,32.5 44.1667,32.5 45.5,32.5 Z M 1141.5,272.5 C 1141.5,231.5 1141.5,190.5 1141.5,149.5C 1141.5,141.167 1141.5,132.833 1141.5,124.5C 1153.83,124.5 1166.17,124.5 1178.5,124.5C 1178.5,186.833 1178.5,249.167 1178.5,311.5C 1166.17,311.5 1153.83,311.5 1141.5,311.5C 1141.5,298.5 1141.5,285.5 1141.5,272.5 Z M 189.5,1251.5 C 191.5,1251.5 193.5,1251.5 195.5,1251.5C 195.5,1354.83 195.5,1458.17 195.5,1561.5C 193.5,1561.5 191.5,1561.5 189.5,1561.5C 189.5,1458.17 189.5,1354.83 189.5,1251.5 Z M 219.5,1259.5 C 222.833,1259.5 226.167,1259.5 229.5,1259.5C 229.5,1362.5 229.5,1465.5 229.5,1568.5C 226.167,1568.5 222.833,1568.5 219.5,1568.5C 219.5,1465.5 219.5,1362.5 219.5,1259.5 Z M 1038.5,1278.5 C 1045.17,1278.5 1051.83,1278.5 1058.5,1278.5C 1058.5,1371.83 1058.5,1465.17 1058.5,1558.5C 1051.83,1558.5 1045.17,1558.5 1038.5,1558.5C 1038.5,1465.17 1038.5,1371.83 1038.5,1278.5 Z M 1006.5,1471.5 C 1006.5,1430.5 1006.5,1389.5 1006.5,1348.5C 1006.5,1342.83 1006.5,1337.17 1006.5,1331.5C 1015.5,1331.5 1024.5,1331.5 1033.5,1331.5C 1033.5,1381.83 1033.5,1432.17 1033.5,1482.5C 1024.5,1482.5 1015.5,1482.5 1006.5,1482.5C 1006.5,1478.83 1006.5,1475.17 1006.5,1471.5 Z"/></g>
<g><path style="opacity:1" fill="#201d33" d="M 1141.5,149.5 C 1141.5,190.5 1141.5,231.5 1141.5,272.5C 1137.39,283.744 1129.39,290.577 1117.5,293C 1089.17,293.667 1060.83,293.667 1032.5,293C 1028.99,292.33 1025.66,291.163 1022.5,289.5C 1019.34,291.163 1016.01,292.33 1012.5,293C 999.167,293.667 985.833,293.667 972.5,293C 968.989,292.33 965.656,291.163 962.5,289.5C 959.344,291.163 956.011,292.33 952.5,293C 939.167,293.667 925.833,293.667 912.5,293C 908.989,292.33 905.656,291.163 902.5,289.5C 899.344,291.163 896.011,292.33 892.5,293C 869.167,293.667 845.833,293.667 822.5,293C 818.989,292.33 815.656,291.163 812.5,289.5C 809.344,291.163 806.011,292.33 802.5,293C 789.167,293.667 775.833,293.667 762.5,293C 758.989,292.33 755.656,291.163 752.5,289.5C 749.344,291.163 746.011,292.33 742.5,293C 729.167,293.667 715.833,293.667 702.5,293C 687.034,289.247 678.701,279.414 677.5,263.5C 672.5,263.5 667.5,263.5 662.5,263.5C 661.299,279.414 652.966,289.247 637.5,293C 624.167,293.667 610.833,293.667 597.5,293C 593.989,292.33 590.656,291.163 587.5,289.5C 584.344,291.163 581.011,292.33 577.5,293C 554.167,293.667 530.833,293.667 507.5,293C 500.722,291.552 494.889,288.385 490,283.5C 485.111,288.385 479.278,291.552 472.5,293C 444.167,293.667 415.833,293.667 387.5,293C 383.989,292.33 380.656,291.163 377.5,289.5C 374.344,291.163 371.011,292.33 367.5,293C 344.167,293.667 320.833,293.667 297.5,293C 293.989,292.33 290.656,291.163 287.5,289.5C 284.344,291.163 281.011,292.33 277.5,293C 239.167,293.667 200.833,293.667 162.5,293C 149,290.167 140.833,282 138,268.5C 137.333,215.167 137.333,161.833 138,108.5C 140.833,95 149,86.8333 162.5,84C 195.833,83.3333 229.167,83.3333 262.5,84C 272.286,86.2928 279.619,91.7928 284.5,100.5C 289.908,103.365 294.241,107.365 297.5,112.5C 319.156,113.5 340.823,113.833 362.5,113.5C 363.701,97.5861 372.034,87.7528 387.5,84C 400.833,83.3333 414.167,83.3333 427.5,84C 441,86.8333 449.167,95 452,108.5C 452.5,115.158 452.666,121.825 452.5,128.5C 459.175,128.334 465.842,128.5 472.5,129C 476.011,129.67 479.344,130.837 482.5,132.5C 486.167,129.028 489.501,125.195 492.5,121C 496.847,117.327 501.847,114.994 507.5,114C 530.833,113.333 554.167,113.333 577.5,114C 581.011,114.67 584.344,115.837 587.5,117.5C 590.656,115.837 593.989,114.67 597.5,114C 625.833,113.333 654.167,113.333 682.5,114C 686.011,114.67 689.344,115.837 692.5,117.5C 695.656,115.837 698.989,114.67 702.5,114C 715.833,113.333 729.167,113.333 742.5,114C 756,116.833 764.167,125 767,138.5C 767.5,145.158 767.666,151.825 767.5,158.5C 772.5,158.5 777.5,158.5 782.5,158.5C 783.366,146.426 789.033,137.426 799.5,131.5C 804.574,122.293 812.241,116.459 822.5,114C 845.833,113.333 869.167,113.333 892.5,114C 896.011,114.67 899.344,115.837 902.5,117.5C 905.656,115.837 908.989,114.67 912.5,114C 940.833,113.333 969.167,113.333 997.5,114C 1004.28,115.448 1010.11,118.615 1015,123.5C 1019.89,118.615 1025.72,115.448 1032.5,114C 1055.83,113.333 1079.17,113.333 1102.5,114C 1112.29,116.293 1119.62,121.793 1124.5,130.5C 1128.14,132.975 1131.64,135.642 1135,138.5C 1137.46,142.096 1139.63,145.763 1141.5,149.5 Z"/></g>
<g><path style="opacity:1" fill="#a1acbb" d="M 257.5,203.5 C 252.5,203.5 247.5,203.5 242.5,203.5C 227.5,203.5 212.5,203.5 197.5,203.5C 187.5,203.5 177.5,203.5 167.5,203.5C 167.5,173.5 167.5,143.5 167.5,113.5C 197.5,113.5 227.5,113.5 257.5,113.5C 257.5,118.5 257.5,123.5 257.5,128.5C 262.5,128.5 267.5,128.5 272.5,128.5C 272.5,143.5 272.5,158.5 272.5,173.5C 267.5,173.5 262.5,173.5 257.5,173.5C 257.5,183.5 257.5,193.5 257.5,203.5 Z"/></g>
<g><path style="opacity:1" fill="#a1acbb" d="M 482.5,203.5 C 472.5,203.5 462.5,203.5 452.5,203.5C 452.5,198.5 452.5,193.5 452.5,188.5C 442.5,188.5 432.5,188.5 422.5,188.5C 422.5,193.5 422.5,198.5 422.5,203.5C 412.5,203.5 402.5,203.5 392.5,203.5C 392.5,173.5 392.5,143.5 392.5,113.5C 402.5,113.5 412.5,113.5 422.5,113.5C 422.5,128.5 422.5,143.5 422.5,158.5C 437.5,158.5 452.5,158.5 467.5,158.5C 467.5,163.5 467.5,168.5 467.5,173.5C 472.5,173.5 477.5,173.5 482.5,173.5C 482.5,183.5 482.5,193.5 482.5,203.5 Z"/></g>
<g><path style="opacity:1" fill="#201d33" d="M 197.5,143.5 C 212.5,143.5 227.5,143.5 242.5,143.5C 242.5,153.5 242.5,163.5 242.5,173.5C 227.5,173.5 212.5,173.5 197.5,173.5C 197.5,163.5 197.5,153.5 197.5,143.5 Z"/></g>
<g><path style="opacity:1" fill="#a1acbb" d="M 377.5,203.5 C 367.5,203.5 357.5,203.5 347.5,203.5C 347.5,193.5 347.5,183.5 347.5,173.5C 337.5,173.5 327.5,173.5 317.5,173.5C 317.5,183.5 317.5,193.5 317.5,203.5C 307.5,203.5 297.5,203.5 287.5,203.5C 287.5,188.5 287.5,173.5 287.5,158.5C 292.5,158.5 297.5,158.5 302.5,158.5C 302.5,153.5 302.5,148.5 302.5,143.5C 322.5,143.5 342.5,143.5 362.5,143.5C 362.5,148.5 362.5,153.5 362.5,158.5C 367.5,158.5 372.5,158.5 377.5,158.5C 377.5,173.5 377.5,188.5 377.5,203.5 Z"/></g>
<g><path style="opacity:1" fill="#a1acbb" d="M 587.5,203.5 C 577.5,203.5 567.5,203.5 557.5,203.5C 557.5,193.5 557.5,183.5 557.5,173.5C 547.5,173.5 537.5,173.5 527.5,173.5C 527.5,183.5 527.5,193.5 527.5,203.5C 517.5,203.5 507.5,203.5 497.5,203.5C 497.5,188.5 497.5,173.5 497.5,158.5C 502.5,158.5 507.5,158.5 512.5,158.5C 512.5,153.5 512.5,148.5 512.5,143.5C 532.5,143.5 552.5,143.5 572.5,143.5C 572.5,148.5 572.5,153.5 572.5,158.5C 577.5,158.5 582.5,158.5 587.5,158.5C 587.5,173.5 587.5,188.5 587.5,203.5 Z"/></g>
<g><path style="opacity:1" fill="#a1acbb" d="M 692.5,203.5 C 682.5,203.5 672.5,203.5 662.5,203.5C 662.5,193.5 662.5,183.5 662.5,173.5C 652.5,173.5 642.5,173.5 632.5,173.5C 632.5,183.5 632.5,193.5 632.5,203.5C 622.5,203.5 612.5,203.5 602.5,203.5C 602.5,183.5 602.5,163.5 602.5,143.5C 627.5,143.5 652.5,143.5 677.5,143.5C 677.5,148.5 677.5,153.5 677.5,158.5C 682.5,158.5 687.5,158.5 692.5,158.5C 692.5,173.5 692.5,188.5 692.5,203.5 Z"/></g>
<g><path style="opacity:1" fill="#a1acbb" d="M 782.5,203.5 C 757.5,203.5 732.5,203.5 707.5,203.5C 707.5,183.5 707.5,163.5 707.5,143.5C 717.5,143.5 727.5,143.5 737.5,143.5C 737.5,158.5 737.5,173.5 737.5,188.5C 752.5,188.5 767.5,188.5 782.5,188.5C 782.5,193.5 782.5,198.5 782.5,203.5 Z"/></g>
<g><path style="opacity:1" fill="#a1acbb" d="M 902.5,203.5 C 892.5,203.5 882.5,203.5 872.5,203.5C 872.5,193.5 872.5,183.5 872.5,173.5C 862.5,173.5 852.5,173.5 842.5,173.5C 842.5,183.5 842.5,193.5 842.5,203.5C 832.5,203.5 822.5,203.5 812.5,203.5C 812.5,188.5 812.5,173.5 812.5,158.5C 817.5,158.5 822.5,158.5 827.5,158.5C 827.5,153.5 827.5,148.5 827.5,143.5C 847.5,143.5 867.5,143.5 887.5,143.5C 887.5,148.5 887.5,153.5 887.5,158.5C 892.5,158.5 897.5,158.5 902.5,158.5C 902.5,173.5 902.5,188.5 902.5,203.5 Z"/></g>
<g><path style="opacity:1" fill="#a1acbb" d="M 1007.5,203.5 C 997.5,203.5 987.5,203.5 977.5,203.5C 977.5,193.5 977.5,183.5 977.5,173.5C 967.5,173.5 957.5,173.5 947.5,173.5C 947.5,183.5 947.5,193.5 947.5,203.5C 937.5,203.5 927.5,203.5 917.5,203.5C 917.5,183.5 917.5,163.5 917.5,143.5C 942.5,143.5 967.5,143.5 992.5,143.5C 992.5,148.5 992.5,153.5 992.5,158.5C 997.5,158.5 1002.5,158.5 1007.5,158.5C 1007.5,173.5 1007.5,188.5 1007.5,203.5 Z"/></g>
<g><path style="opacity:1" fill="#a1acbb" d="M 1112.5,203.5 C 1082.5,203.5 1052.5,203.5 1022.5,203.5C 1022.5,188.5 1022.5,173.5 1022.5,158.5C 1027.5,158.5 1032.5,158.5 1037.5,158.5C 1037.5,153.5 1037.5,148.5 1037.5,143.5C 1057.5,143.5 1077.5,143.5 1097.5,143.5C 1097.5,148.5 1097.5,153.5 1097.5,158.5C 1102.5,158.5 1107.5,158.5 1112.5,158.5C 1112.5,173.5 1112.5,188.5 1112.5,203.5 Z"/></g>
<g><path style="opacity:1" fill="#201d33" d="M 347.5,203.5 C 347.5,213.5 347.5,223.5 347.5,233.5C 337.5,233.5 327.5,233.5 317.5,233.5C 317.5,223.5 317.5,213.5 317.5,203.5C 317.5,193.5 317.5,183.5 317.5,173.5C 327.5,173.5 337.5,173.5 347.5,173.5C 347.5,183.5 347.5,193.5 347.5,203.5 Z"/></g>
<g><path style="opacity:1" fill="#201d33" d="M 557.5,203.5 C 557.5,213.5 557.5,223.5 557.5,233.5C 547.5,233.5 537.5,233.5 527.5,233.5C 527.5,223.5 527.5,213.5 527.5,203.5C 527.5,193.5 527.5,183.5 527.5,173.5C 537.5,173.5 547.5,173.5 557.5,173.5C 557.5,183.5 557.5,193.5 557.5,203.5 Z"/></g>
<g><path style="opacity:1" fill="#201d33" d="M 662.5,203.5 C 652.5,203.5 642.5,203.5 632.5,203.5C 632.5,193.5 632.5,183.5 632.5,173.5C 642.5,173.5 652.5,173.5 662.5,173.5C 662.5,183.5 662.5,193.5 662.5,203.5 Z"/></g>
<g><path style="opacity:1" fill="#201d33" d="M 872.5,203.5 C 872.5,213.5 872.5,223.5 872.5,233.5C 862.5,233.5 852.5,233.5 842.5,233.5C 842.5,223.5 842.5,213.5 842.5,203.5C 842.5,193.5 842.5,183.5 842.5,173.5C 852.5,173.5 862.5,173.5 872.5,173.5C 872.5,183.5 872.5,193.5 872.5,203.5 Z"/></g>
<g><path style="opacity:1" fill="#201d33" d="M 1052.5,173.5 C 1062.5,173.5 1072.5,173.5 1082.5,173.5C 1082.5,178.5 1082.5,183.5 1082.5,188.5C 1072.5,188.5 1062.5,188.5 1052.5,188.5C 1052.5,183.5 1052.5,178.5 1052.5,173.5 Z"/></g>
<g><path style="opacity:1" fill="#201d33" d="M 452.5,203.5 C 452.5,213.5 452.5,223.5 452.5,233.5C 442.5,233.5 432.5,233.5 422.5,233.5C 422.5,223.5 422.5,213.5 422.5,203.5C 422.5,198.5 422.5,193.5 422.5,188.5C 432.5,188.5 442.5,188.5 452.5,188.5C 452.5,193.5 452.5,198.5 452.5,203.5 Z"/></g>
<g><path style="opacity:1" fill="#7c7f9a" d="M 167.5,203.5 C 177.5,203.5 187.5,203.5 197.5,203.5C 197.5,213.5 197.5,223.5 197.5,233.5C 212.5,233.5 227.5,233.5 242.5,233.5C 242.5,223.5 242.5,213.5 242.5,203.5C 247.5,203.5 252.5,203.5 257.5,203.5C 262.5,203.5 267.5,203.5 272.5,203.5C 272.5,223.5 272.5,243.5 272.5,263.5C 237.5,263.5 202.5,263.5 167.5,263.5C 167.5,243.5 167.5,223.5 167.5,203.5 Z"/></g>
<g><path style="opacity:1" fill="#201d33" d="M 197.5,203.5 C 212.5,203.5 227.5,203.5 242.5,203.5C 242.5,213.5 242.5,223.5 242.5,233.5C 227.5,233.5 212.5,233.5 197.5,233.5C 197.5,223.5 197.5,213.5 197.5,203.5 Z"/></g>
<g><path style="opacity:1" fill="#7c7f9a" d="M 287.5,203.5 C 297.5,203.5 307.5,203.5 317.5,203.5C 317.5,213.5 317.5,223.5 317.5,233.5C 327.5,233.5 337.5,233.5 347.5,233.5C 347.5,223.5 347.5,213.5 347.5,203.5C 357.5,203.5 367.5,203.5 377.5,203.5C 377.5,218.5 377.5,233.5 377.5,248.5C 372.5,248.5 367.5,248.5 362.5,248.5C 362.5,253.5 362.5,258.5 362.5,263.5C 342.5,263.5 322.5,263.5 302.5,263.5C 302.5,258.5 302.5,253.5 302.5,248.5C 297.5,248.5 292.5,248.5 287.5,248.5C 287.5,233.5 287.5,218.5 287.5,203.5 Z"/></g>
<g><path style="opacity:1" fill="#7c7f9a" d="M 392.5,203.5 C 402.5,203.5 412.5,203.5 422.5,203.5C 422.5,213.5 422.5,223.5 422.5,233.5C 432.5,233.5 442.5,233.5 452.5,233.5C 452.5,223.5 452.5,213.5 452.5,203.5C 462.5,203.5 472.5,203.5 482.5,203.5C 482.5,218.5 482.5,233.5 482.5,248.5C 477.5,248.5 472.5,248.5 467.5,248.5C 467.5,253.5 467.5,258.5 467.5,263.5C 442.5,263.5 417.5,263.5 392.5,263.5C 392.5,243.5 392.5,223.5 392.5,203.5 Z"/></g>
<g><path style="opacity:1" fill="#7c7f9a" d="M 497.5,203.5 C 507.5,203.5 517.5,203.5 527.5,203.5C 527.5,213.5 527.5,223.5 527.5,233.5C 537.5,233.5 547.5,233.5 557.5,233.5C 557.5,223.5 557.5,213.5 557.5,203.5C 567.5,203.5 577.5,203.5 587.5,203.5C 587.5,218.5 587.5,233.5 587.5,248.5C 582.5,248.5 577.5,248.5 572.5,248.5C 572.5,253.5 572.5,258.5 572.5,263.5C 552.5,263.5 532.5,263.5 512.5,263.5C 512.5,258.5 512.5,253.5 512.5,248.5C 507.5,248.5 502.5,248.5 497.5,248.5C 497.5,233.5 497.5,218.5 497.5,203.5 Z"/></g>
<g><path style="opacity:1" fill="#7c7f9a" d="M 602.5,203.5 C 612.5,203.5 622.5,203.5 632.5,203.5C 642.5,203.5 652.5,203.5 662.5,203.5C 672.5,203.5 682.5,203.5 692.5,203.5C 692.5,208.5 692.5,213.5 692.5,218.5C 687.5,218.5 682.5,218.5 677.5,218.5C 677.5,223.5 677.5,228.5 677.5,233.5C 662.5,233.5 647.5,233.5 632.5,233.5C 632.5,243.5 632.5,253.5 632.5,263.5C 622.5,263.5 612.5,263.5 602.5,263.5C 602.5,243.5 602.5,223.5 602.5,203.5 Z"/></g>
<g><path style="opacity:1" fill="#7c7f9a" d="M 707.5,203.5 C 732.5,203.5 757.5,203.5 782.5,203.5C 787.5,203.5 792.5,203.5 797.5,203.5C 797.5,223.5 797.5,243.5 797.5,263.5C 787.5,263.5 777.5,263.5 767.5,263.5C 767.5,248.5 767.5,233.5 767.5,218.5C 757.5,218.5 747.5,218.5 737.5,218.5C 737.5,233.5 737.5,248.5 737.5,263.5C 727.5,263.5 717.5,263.5 707.5,263.5C 707.5,243.5 707.5,223.5 707.5,203.5 Z"/></g>
<g><path style="opacity:1" fill="#7c7f9a" d="M 812.5,203.5 C 822.5,203.5 832.5,203.5 842.5,203.5C 842.5,213.5 842.5,223.5 842.5,233.5C 852.5,233.5 862.5,233.5 872.5,233.5C 872.5,223.5 872.5,213.5 872.5,203.5C 882.5,203.5 892.5,203.5 902.5,203.5C 902.5,218.5 902.5,233.5 902.5,248.5C 897.5,248.5 892.5,248.5 887.5,248.5C 887.5,253.5 887.5,258.5 887.5,263.5C 867.5,263.5 847.5,263.5 827.5,263.5C 827.5,258.5 827.5,253.5 827.5,248.5C 822.5,248.5 817.5,248.5 812.5,248.5C 812.5,233.5 812.5,218.5 812.5,203.5 Z"/></g>
<g><path style="opacity:1" fill="#7c7f9a" d="M 917.5,203.5 C 927.5,203.5 937.5,203.5 947.5,203.5C 947.5,223.5 947.5,243.5 947.5,263.5C 937.5,263.5 927.5,263.5 917.5,263.5C 917.5,243.5 917.5,223.5 917.5,203.5 Z"/></g>
<g><path style="opacity:1" fill="#7c7f9a" d="M 977.5,203.5 C 987.5,203.5 997.5,203.5 1007.5,203.5C 1007.5,223.5 1007.5,243.5 1007.5,263.5C 997.5,263.5 987.5,263.5 977.5,263.5C 977.5,243.5 977.5,223.5 977.5,203.5 Z"/></g>
<g><path style="opacity:1" fill="#7c7f9a" d="M 1022.5,203.5 C 1052.5,203.5 1082.5,203.5 1112.5,203.5C 1112.5,208.5 1112.5,213.5 1112.5,218.5C 1092.5,218.5 1072.5,218.5 1052.5,218.5C 1052.5,223.5 1052.5,228.5 1052.5,233.5C 1072.5,233.5 1092.5,233.5 1112.5,233.5C 1112.5,243.5 1112.5,253.5 1112.5,263.5C 1087.5,263.5 1062.5,263.5 1037.5,263.5C 1037.5,258.5 1037.5,253.5 1037.5,248.5C 1032.5,248.5 1027.5,248.5 1022.5,248.5C 1022.5,233.5 1022.5,218.5 1022.5,203.5 Z"/></g>
<g><path style="opacity:1" fill="#201d33" d="M 489.5,359.5 C 589.501,359.333 689.501,359.5 789.5,360C 807.712,359.869 825.379,362.869 842.5,369C 864.506,379.506 880.173,396.006 889.5,418.5C 906.511,419.184 923.511,420.017 940.5,421C 964.512,423.344 977.345,436.511 979,460.5C 979.667,487.167 979.667,513.833 979,540.5C 977.549,572.593 963.383,597.093 936.5,614C 924.595,618.651 912.262,620.484 899.5,619.5C 899.334,626.508 899.5,633.508 900,640.5C 924.029,649.838 942.696,665.505 956,687.5C 982.203,730.448 996.537,777.115 999,827.5C 999.667,886.833 999.667,946.167 999,1005.5C 1000.07,1046.56 989.075,1083.89 966,1117.5C 946.452,1143.86 922.952,1166.02 895.5,1184C 878.054,1193.86 859.387,1200.03 839.5,1202.5C 838.729,1217.22 832.395,1228.72 820.5,1237C 818.5,1237.67 816.5,1238.33 814.5,1239C 777.833,1239.67 741.167,1239.67 704.5,1239C 694.354,1236.19 687.354,1229.86 683.5,1220C 654.167,1219.33 624.833,1219.33 595.5,1220C 591.646,1229.86 584.646,1236.19 574.5,1239C 537.833,1239.67 501.167,1239.67 464.5,1239C 451.973,1234.52 444.139,1225.68 441,1212.5C 440.39,1209.17 439.89,1205.84 439.5,1202.5C 409.742,1198.62 383.408,1187.12 360.5,1168C 333.437,1145.95 311.937,1119.45 296,1088.5C 285.181,1061.93 279.848,1034.26 280,1005.5C 279.333,946.167 279.333,886.833 280,827.5C 282.811,771.398 300.144,720.398 332,674.5C 344.565,658.943 360.232,647.61 379,640.5C 379.5,633.508 379.666,626.508 379.5,619.5C 355.321,621.947 335.488,613.947 320,595.5C 307.608,579.33 300.941,560.997 300,540.5C 299.333,513.833 299.333,487.167 300,460.5C 300.476,441.015 309.976,428.515 328.5,423C 335.394,421.282 342.394,420.282 349.5,420C 362.846,419.833 376.179,419.333 389.5,418.5C 401.383,389.783 422.383,371.616 452.5,364C 464.875,361.578 477.208,360.078 489.5,359.5 Z"/></g>
<g><path style="opacity:1" fill="#a1acbb" d="M 879.5,623.5 C 865.5,630.167 851.5,636.833 837.5,643.5C 835.398,641.115 832.731,639.782 829.5,639.5C 816.083,643.456 804.25,650.123 794,659.5C 787.569,667.367 783.569,676.367 782,686.5C 779.624,708.441 778.958,730.441 780,752.5C 781.406,756.613 784.239,758.947 788.5,759.5C 789.411,777.469 787.577,795.136 783,812.5C 778.099,822.209 772.265,831.209 765.5,839.5C 754.281,844.943 742.948,850.11 731.5,855C 709.052,861.171 686.719,860.838 664.5,854C 658.001,851.166 652.335,847.166 647.5,842C 642.167,838.667 636.833,838.667 631.5,842C 622.5,851.333 611.5,856.666 598.5,858C 581.327,860.064 564.327,859.064 547.5,855C 536.052,850.11 524.719,844.943 513.5,839.5C 506.735,831.209 500.901,822.209 496,812.5C 491.423,795.136 489.589,777.469 490.5,759.5C 494.761,758.947 497.594,756.613 499,752.5C 500.042,730.441 499.376,708.441 497,686.5C 494.31,668.923 485.143,656.09 469.5,648C 463.16,644.328 456.493,641.495 449.5,639.5C 446.269,639.782 443.602,641.115 441.5,643.5C 427.5,636.833 413.5,630.167 399.5,623.5C 399.062,568.483 399.562,513.483 401,458.5C 401.845,439.296 407.845,421.963 419,406.5C 433.233,390.635 451.067,382.135 472.5,381C 528.155,379.874 583.821,379.374 639.5,379.5C 695.179,379.374 750.845,379.874 806.5,381C 843.487,383.991 866.321,403.491 875,439.5C 876.325,445.782 877.325,452.115 878,458.5C 879.438,513.483 879.938,568.483 879.5,623.5 Z"/></g>
<g><path style="opacity:1" fill="#cfd2d7" d="M 379.5,579.5 C 360.113,581.874 343.946,575.874 331,561.5C 327.589,557.601 324.422,553.601 321.5,549.5C 320.839,546.213 320.339,542.88 320,539.5C 319.5,516.836 319.333,494.169 319.5,471.5C 321.375,464.716 323.875,458.049 327,451.5C 329.383,448.727 332.217,446.561 335.5,445C 340.311,443.552 344.977,442.052 349.5,440.5C 360.654,439.505 371.988,439.172 383.5,439.5C 381.786,450.093 380.619,460.759 380,471.5C 379.5,507.498 379.333,543.498 379.5,579.5 Z"/></g>
<g><path style="opacity:1" fill="#cfd2d7" d="M 929.5,440.5 C 934.023,442.052 938.689,443.552 943.5,445C 946.783,446.561 949.617,448.727 952,451.5C 955.125,458.049 957.625,464.716 959.5,471.5C 959.667,494.169 959.5,516.836 959,539.5C 958.661,542.88 958.161,546.213 957.5,549.5C 951.404,558.764 943.737,566.597 934.5,573C 923.496,578.567 911.829,580.734 899.5,579.5C 899.667,543.498 899.5,507.498 899,471.5C 898.381,460.759 897.214,450.093 895.5,439.5C 907.012,439.172 918.346,439.505 929.5,440.5 Z"/></g>
<g><path style="opacity:1" fill="#aaafb4" d="M 349.5,440.5 C 344.977,442.052 340.311,443.552 335.5,445C 332.217,446.561 329.383,448.727 327,451.5C 323.875,458.049 321.375,464.716 319.5,471.5C 319.102,463.11 320.602,455.11 324,447.5C 326.875,444.537 330.375,442.704 334.5,442C 339.448,440.95 344.448,440.45 349.5,440.5 Z"/></g>
<g><path style="opacity:1" fill="#aaafb4" d="M 929.5,440.5 C 937.515,440.28 945.182,441.78 952.5,445C 955.231,447.626 957.064,450.793 958,454.5C 959.029,460.123 959.529,465.79 959.5,471.5C 957.625,464.716 955.125,458.049 952,451.5C 949.617,448.727 946.783,446.561 943.5,445C 938.689,443.552 934.023,442.052 929.5,440.5 Z"/></g>
<g><path style="opacity:1" fill="#7c7f9a" d="M 548.5,459.5 C 609.168,459.333 669.834,459.5 730.5,460C 739.657,462.481 742.157,467.981 738,476.5C 737.097,477.701 735.931,478.535 734.5,479C 671.167,479.667 607.833,479.667 544.5,479C 537.457,474.112 536.79,468.445 542.5,462C 544.611,461.155 546.611,460.322 548.5,459.5 Z"/></g>
<g><path style="opacity:1" fill="#201d33" d="M 590.5,539.5 C 587.575,539.54 584.909,538.707 582.5,537C 573.761,528.599 563.428,523.266 551.5,521C 527.529,519.596 503.529,519.096 479.5,519.5C 471.774,521.008 465.274,519.008 460,513.5C 458.142,507.419 459.975,502.919 465.5,500C 494.857,499.086 524.19,499.419 553.5,501C 570.958,503.978 585.791,511.811 598,524.5C 600.826,532.181 598.326,537.181 590.5,539.5 Z"/></g>
<g><path style="opacity:1" fill="#201d33" d="M 799.5,519.5 C 775.471,519.096 751.471,519.596 727.5,521C 715.572,523.266 705.239,528.599 696.5,537C 694.091,538.707 691.425,539.54 688.5,539.5C 680.674,537.181 678.174,532.181 681,524.5C 693.209,511.811 708.042,503.978 725.5,501C 754.81,499.419 784.143,499.086 813.5,500C 819.025,502.919 820.858,507.419 819,513.5C 813.726,519.008 807.226,521.008 799.5,519.5 Z"/></g>
<g><path style="opacity:1" fill="#7c7f9a" d="M 479.5,519.5 C 503.529,519.096 527.529,519.596 551.5,521C 563.428,523.266 573.761,528.599 582.5,537C 584.909,538.707 587.575,539.54 590.5,539.5C 590.667,550.838 590.5,562.172 590,573.5C 588.52,576.817 586.02,578.817 582.5,579.5C 582.003,571.671 578.336,565.838 571.5,562C 556.5,558.667 541.5,558.667 526.5,562C 519.664,565.838 515.997,571.671 515.5,579.5C 493.964,579.136 482.131,568.136 480,546.5C 479.5,537.506 479.334,528.506 479.5,519.5 Z"/></g>
<g><path style="opacity:1" fill="#7c7f9a" d="M 799.5,519.5 C 799.666,528.506 799.5,537.506 799,546.5C 796.869,568.136 785.036,579.136 763.5,579.5C 763.003,571.671 759.336,565.838 752.5,562C 737.5,558.667 722.5,558.667 707.5,562C 700.664,565.838 696.997,571.671 696.5,579.5C 692.98,578.817 690.48,576.817 689,573.5C 688.5,562.172 688.333,550.838 688.5,539.5C 691.425,539.54 694.091,538.707 696.5,537C 705.239,528.599 715.572,523.266 727.5,521C 751.471,519.596 775.471,519.096 799.5,519.5 Z"/></g>
<g><path style="opacity:1" fill="#aaafb4" d="M 321.5,549.5 C 324.422,553.601 327.589,557.601 331,561.5C 343.946,575.874 360.113,581.874 379.5,579.5C 379.5,586.167 379.5,592.833 379.5,599.5C 358.176,602.419 342.009,594.752 331,576.5C 325.74,568.218 322.573,559.218 321.5,549.5 Z"/></g>
<g><path style="opacity:1" fill="#aaafb4" d="M 957.5,549.5 C 955.03,565.941 947.697,579.775 935.5,591C 924.66,598.338 912.66,601.171 899.5,599.5C 899.5,592.833 899.5,586.167 899.5,579.5C 911.829,580.734 923.496,578.567 934.5,573C 943.737,566.597 951.404,558.764 957.5,549.5 Z"/></g>
<g><path style="opacity:1" fill="#201d33" d="M 582.5,579.5 C 582.299,587.736 578.633,593.903 571.5,598C 564.074,599.115 556.574,599.615 549,599.5C 541.426,599.615 533.926,599.115 526.5,598C 519.367,593.903 515.701,587.736 515.5,579.5C 515.997,571.671 519.664,565.838 526.5,562C 541.5,558.667 556.5,558.667 571.5,562C 578.336,565.838 582.003,571.671 582.5,579.5 Z"/></g>
<g><path style="opacity:1" fill="#201d33" d="M 606.5,641.5 C 603.155,642.68 600.989,645.013 600,648.5C 599.501,652.152 599.335,655.818 599.5,659.5C 606.167,659.5 612.833,659.5 619.5,659.5C 632.833,659.5 646.167,659.5 659.5,659.5C 666.167,659.5 672.833,659.5 679.5,659.5C 679.275,654.752 679.775,650.085 681,645.5C 682.494,642.686 684.66,640.686 687.5,639.5C 691.587,639.294 695.087,640.627 698,643.5C 699.121,653.752 699.954,664.085 700.5,674.5C 717.043,682.545 728.543,695.211 735,712.5C 741.533,725.233 740.867,737.566 733,749.5C 720.09,768.717 701.924,778.551 678.5,779C 652.5,779.667 626.5,779.667 600.5,779C 570.909,778.054 550.743,763.887 540,736.5C 540.757,714.813 549.257,696.647 565.5,682C 569.506,678.995 573.84,676.495 578.5,674.5C 579.332,665.184 579.832,655.851 580,646.5C 581.952,635.387 588.118,627.721 598.5,623.5C 599.333,611.18 599.833,598.847 600,586.5C 603.09,565.608 615.257,556.608 636.5,559.5C 642.246,559.406 647.913,559.906 653.5,561C 661.485,566.951 661.485,572.951 653.5,579C 643.833,579.333 634.167,579.667 624.5,580C 621.323,581.849 619.823,584.682 620,588.5C 619.667,604.167 619.333,619.833 619,635.5C 615.811,639.508 611.645,641.508 606.5,641.5 Z"/></g>
<g><path style="opacity:1" fill="#201d33" d="M 763.5,579.5 C 763.299,587.736 759.633,593.903 752.5,598C 745.074,599.115 737.574,599.615 730,599.5C 722.426,599.615 714.926,599.115 707.5,598C 700.367,593.903 696.701,587.736 696.5,579.5C 696.997,571.671 700.664,565.838 707.5,562C 722.5,558.667 737.5,558.667 752.5,562C 759.336,565.838 763.003,571.671 763.5,579.5 Z"/></g>
<g><path style="opacity:1" fill="#7c7f9a" d="M 399.5,623.5 C 413.5,630.167 427.5,636.833 441.5,643.5C 438.251,649.162 439.251,653.996 444.5,658C 454.937,661.961 464.103,667.794 472,675.5C 476.824,685.582 479.157,696.249 479,707.5C 479.333,722.5 479.667,737.5 480,752.5C 481.926,757.212 485.426,759.545 490.5,759.5C 489.589,777.469 491.423,795.136 496,812.5C 500.901,822.209 506.735,831.209 513.5,839.5C 474.131,814.637 440.631,783.304 413,745.5C 405.866,733.431 401.532,720.431 400,706.5C 399.5,678.835 399.333,651.169 399.5,623.5 Z"/></g>
<g><path style="opacity:1" fill="#7c7f9a" d="M 879.5,623.5 C 879.667,651.169 879.5,678.835 879,706.5C 877.468,720.431 873.134,733.431 866,745.5C 838.369,783.304 804.869,814.637 765.5,839.5C 772.265,831.209 778.099,822.209 783,812.5C 787.577,795.136 789.411,777.469 788.5,759.5C 793.574,759.545 797.074,757.212 799,752.5C 799.333,737.5 799.667,722.5 800,707.5C 799.843,696.249 802.176,685.582 807,675.5C 814.897,667.794 824.063,661.961 834.5,658C 839.749,653.996 840.749,649.162 837.5,643.5C 851.5,636.833 865.5,630.167 879.5,623.5 Z"/></g>
<g><path style="opacity:1" fill="#201d33" d="M 490.5,759.5 C 485.426,759.545 481.926,757.212 480,752.5C 479.667,737.5 479.333,722.5 479,707.5C 479.157,696.249 476.824,685.582 472,675.5C 464.103,667.794 454.937,661.961 444.5,658C 439.251,653.996 438.251,649.162 441.5,643.5C 443.602,641.115 446.269,639.782 449.5,639.5C 456.493,641.495 463.16,644.328 469.5,648C 485.143,656.09 494.31,668.923 497,686.5C 499.376,708.441 500.042,730.441 499,752.5C 497.594,756.613 494.761,758.947 490.5,759.5 Z"/></g>
<g><path style="opacity:1" fill="#7c7f9a" d="M 687.5,639.5 C 684.66,640.686 682.494,642.686 681,645.5C 679.775,650.085 679.275,654.752 679.5,659.5C 672.833,659.5 666.167,659.5 659.5,659.5C 660.632,647.536 667.299,641.036 679.5,640C 682.146,639.503 684.813,639.336 687.5,639.5 Z"/></g>
<g><path style="opacity:1" fill="#201d33" d="M 837.5,643.5 C 840.749,649.162 839.749,653.996 834.5,658C 824.063,661.961 814.897,667.794 807,675.5C 802.176,685.582 799.843,696.249 800,707.5C 799.667,722.5 799.333,737.5 799,752.5C 797.074,757.212 793.574,759.545 788.5,759.5C 784.239,758.947 781.406,756.613 780,752.5C 778.958,730.441 779.624,708.441 782,686.5C 783.569,676.367 787.569,667.367 794,659.5C 804.25,650.123 816.083,643.456 829.5,639.5C 832.731,639.782 835.398,641.115 837.5,643.5 Z"/></g>
<g><path style="opacity:1" fill="#7c7f9a" d="M 606.5,641.5 C 614.633,644.649 618.966,650.649 619.5,659.5C 612.833,659.5 606.167,659.5 599.5,659.5C 599.335,655.818 599.501,652.152 600,648.5C 600.989,645.013 603.155,642.68 606.5,641.5 Z"/></g>
<g><path style="opacity:1" fill="#a2acbc" d="M 495.5,852.5 C 472.932,855.954 452.265,864.121 433.5,877C 425.469,883.574 419.802,891.74 416.5,901.5C 407.697,897.401 402.03,900.068 399.5,909.5C 412.308,941.815 433.641,966.981 463.5,985C 481.651,994.432 500.984,999.432 521.5,1000C 518.27,1013.32 519.27,1026.32 524.5,1039C 497.056,1042.09 471.056,1037.43 446.5,1025C 435.268,1017.77 424.601,1009.77 414.5,1001C 408.991,998.78 404.324,999.947 400.5,1004.5C 389.228,993.729 378.062,982.729 367,971.5C 339.909,935.626 322.909,895.292 316,850.5C 312.328,825.279 309.828,799.945 308.5,774.5C 316.57,737.397 332.903,704.564 357.5,676C 364.134,670.709 371.301,666.209 379,662.5C 379.104,679.867 379.771,697.201 381,714.5C 383.375,729.961 388.708,744.294 397,757.5C 424.855,794.525 457.688,826.192 495.5,852.5 Z"/></g>
<g><path style="opacity:1" fill="#a2acbc" d="M 970.5,774.5 C 969.264,812.39 964.097,849.723 955,886.5C 946.188,917.791 931.855,946.125 912,971.5C 900.938,982.729 889.772,993.729 878.5,1004.5C 874.676,999.947 870.009,998.78 864.5,1001C 854.399,1009.77 843.732,1017.77 832.5,1025C 807.944,1037.43 781.944,1042.09 754.5,1039C 759.73,1026.32 760.73,1013.32 757.5,1000C 787.083,999.588 813.083,989.921 835.5,971C 855.221,954.037 869.887,933.537 879.5,909.5C 876.97,900.068 871.303,897.401 862.5,901.5C 857.643,888.139 848.977,877.972 836.5,871C 819.894,861.743 802.227,855.576 783.5,852.5C 821.312,826.192 854.145,794.525 882,757.5C 890.292,744.294 895.625,729.961 898,714.5C 899.229,697.201 899.896,679.867 900,662.5C 907.699,666.209 914.866,670.709 921.5,676C 946.097,704.564 962.43,737.397 970.5,774.5 Z"/></g>
<g><path style="opacity:1" fill="#7c7f9a" d="M 599.5,688.5 C 605.245,688.211 610.912,688.711 616.5,690C 624.673,692.657 632.34,696.157 639.5,700.5C 645.256,697.927 650.923,695.093 656.5,692C 676.355,685.104 693.521,689.271 708,704.5C 710.769,709.039 713.269,713.706 715.5,718.5C 664.833,719.833 614.167,719.833 563.5,718.5C 569.783,701.543 581.783,691.543 599.5,688.5 Z"/></g>
<g><path style="opacity:1" fill="#7c7f9a" d="M 563.5,740.5 C 613.998,739.335 664.665,739.168 715.5,740C 706.399,752.383 694.066,758.716 678.5,759C 652.5,759.667 626.5,759.667 600.5,759C 585.103,758.611 572.769,752.444 563.5,740.5 Z"/></g>
<g><path style="opacity:1" fill="#7c7f9a" d="M 308.5,774.5 C 309.828,799.945 312.328,825.279 316,850.5C 322.909,895.292 339.909,935.626 367,971.5C 378.062,982.729 389.228,993.729 400.5,1004.5C 400.007,1006.81 399.674,1009.14 399.5,1011.5C 390.365,1048.01 383.865,1085.01 380,1122.5C 379.5,1133.83 379.333,1145.16 379.5,1156.5C 349.138,1134.64 326.305,1106.64 311,1072.5C 303.66,1050.79 299.994,1028.46 300,1005.5C 299.333,946.167 299.333,886.833 300,827.5C 301.314,809.449 304.148,791.783 308.5,774.5 Z"/></g>
<g><path style="opacity:1" fill="#7c7f9a" d="M 970.5,774.5 C 974.852,791.783 977.686,809.449 979,827.5C 979.667,886.833 979.667,946.167 979,1005.5C 979.697,1038.04 972.03,1068.37 956,1096.5C 940.772,1119.89 921.939,1139.89 899.5,1156.5C 899.9,1137.78 899.067,1119.11 897,1100.5C 892.249,1070.58 886.416,1040.91 879.5,1011.5C 879.326,1009.14 878.993,1006.81 878.5,1004.5C 889.772,993.729 900.938,982.729 912,971.5C 931.855,946.125 946.188,917.791 955,886.5C 964.097,849.723 969.264,812.39 970.5,774.5 Z"/></g>
<g><path style="opacity:1" fill="#7c7f9a" d="M 609.5,799.5 C 629.503,799.333 649.503,799.5 669.5,800C 678.657,802.481 681.157,807.981 677,816.5C 676.097,817.701 674.931,818.535 673.5,819C 650.833,819.667 628.167,819.667 605.5,819C 598.457,814.112 597.79,808.445 603.5,802C 605.611,801.155 607.611,800.322 609.5,799.5 Z"/></g>
<g><path style="opacity:1" fill="#d0d3d8" d="M 495.5,852.5 C 511.272,861.05 527.606,868.55 544.5,875C 568.171,880.934 591.838,880.934 615.5,875C 624.261,872.121 632.261,867.954 639.5,862.5C 657.084,874.818 676.751,880.485 698.5,879.5C 715.812,879.588 732.479,876.421 748.5,870C 760.251,864.125 771.918,858.291 783.5,852.5C 802.227,855.576 819.894,861.743 836.5,871C 848.977,877.972 857.643,888.139 862.5,901.5C 853.056,921.874 840.056,939.707 823.5,955C 802.036,973.598 777.036,981.598 748.5,979C 738.272,968.044 726.939,966.711 714.5,975C 711.135,978.261 708.135,981.761 705.5,985.5C 686.095,975.026 671.928,980.026 663,1000.5C 656.962,1017.47 658.795,1033.47 668.5,1048.5C 649.167,1049.83 629.833,1049.83 610.5,1048.5C 621.929,1030.2 622.429,1011.53 612,992.5C 601.309,978.15 588.475,975.817 573.5,985.5C 569.13,977.967 562.797,972.8 554.5,970C 544.822,968.505 536.822,971.505 530.5,979C 501.964,981.598 476.964,973.598 455.5,955C 438.944,939.707 425.944,921.874 416.5,901.5C 419.802,891.74 425.469,883.574 433.5,877C 452.265,864.121 472.932,855.954 495.5,852.5 Z"/></g>
<g><path style="opacity:1" fill="#201d33" d="M 416.5,901.5 C 425.944,921.874 438.944,939.707 455.5,955C 476.964,973.598 501.964,981.598 530.5,979C 536.822,971.505 544.822,968.505 554.5,970C 562.797,972.8 569.13,977.967 573.5,985.5C 588.475,975.817 601.309,978.15 612,992.5C 622.429,1011.53 621.929,1030.2 610.5,1048.5C 606.408,1053.74 601.074,1057.24 594.5,1059C 560.5,1059.67 526.5,1059.67 492.5,1059C 454.855,1055.38 423.855,1039.54 399.5,1011.5C 399.674,1009.14 400.007,1006.81 400.5,1004.5C 404.324,999.947 408.991,998.78 414.5,1001C 424.601,1009.77 435.268,1017.77 446.5,1025C 471.056,1037.43 497.056,1042.09 524.5,1039C 519.27,1026.32 518.27,1013.32 521.5,1000C 500.984,999.432 481.651,994.432 463.5,985C 433.641,966.981 412.308,941.815 399.5,909.5C 402.03,900.068 407.697,897.401 416.5,901.5 Z"/></g>
<g><path style="opacity:1" fill="#201d33" d="M 878.5,1004.5 C 878.993,1006.81 879.326,1009.14 879.5,1011.5C 855.145,1039.54 824.145,1055.38 786.5,1059C 752.5,1059.67 718.5,1059.67 684.5,1059C 677.926,1057.24 672.592,1053.74 668.5,1048.5C 658.795,1033.47 656.962,1017.47 663,1000.5C 671.928,980.026 686.095,975.026 705.5,985.5C 708.135,981.761 711.135,978.261 714.5,975C 726.939,966.711 738.272,968.044 748.5,979C 777.036,981.598 802.036,973.598 823.5,955C 840.056,939.707 853.056,921.874 862.5,901.5C 871.303,897.401 876.97,900.068 879.5,909.5C 869.887,933.537 855.221,954.037 835.5,971C 813.083,989.921 787.083,999.588 757.5,1000C 760.73,1013.32 759.73,1026.32 754.5,1039C 781.944,1042.09 807.944,1037.43 832.5,1025C 843.732,1017.77 854.399,1009.77 864.5,1001C 870.009,998.78 874.676,999.947 878.5,1004.5 Z"/></g>
<g><path style="opacity:1" fill="#d0d3d8" d="M 548.5,989.5 C 552.286,990.362 554.786,992.696 556,996.5C 561.391,1010.69 560.391,1024.36 553,1037.5C 550.667,1040.17 548.333,1040.17 546,1037.5C 538.609,1024.36 537.609,1010.69 543,996.5C 544.382,993.695 546.216,991.361 548.5,989.5 Z"/></g>
<g><path style="opacity:1" fill="#d0d3d8" d="M 728.5,989.5 C 732.286,990.362 734.786,992.696 736,996.5C 741.391,1010.69 740.391,1024.36 733,1037.5C 730.667,1040.17 728.333,1040.17 726,1037.5C 718.609,1024.36 717.609,1010.69 723,996.5C 724.382,993.695 726.216,991.361 728.5,989.5 Z"/></g>
<g><path style="opacity:1" fill="#d0d3d8" d="M 587.5,999.5 C 591.147,999.622 593.981,1001.29 596,1004.5C 600.21,1013.69 600.543,1023.02 597,1032.5C 593.205,1040.79 588.538,1041.46 583,1034.5C 577.196,1021.74 578.696,1010.07 587.5,999.5 Z"/></g>
<g><path style="opacity:1" fill="#d0d3d8" d="M 687.5,999.5 C 691.147,999.622 693.981,1001.29 696,1004.5C 700.21,1013.69 700.543,1023.02 697,1032.5C 693.205,1040.79 688.538,1041.46 683,1034.5C 677.196,1021.74 678.696,1010.07 687.5,999.5 Z"/></g>
<g><path style="opacity:1" fill="#aaafb4" d="M 399.5,1011.5 C 423.855,1039.54 454.855,1055.38 492.5,1059C 526.5,1059.67 560.5,1059.67 594.5,1059C 601.074,1057.24 606.408,1053.74 610.5,1048.5C 629.833,1049.83 649.167,1049.83 668.5,1048.5C 672.592,1053.74 677.926,1057.24 684.5,1059C 718.5,1059.67 752.5,1059.67 786.5,1059C 824.145,1055.38 855.145,1039.54 879.5,1011.5C 886.416,1040.91 892.249,1070.58 897,1100.5C 899.067,1119.11 899.9,1137.78 899.5,1156.5C 881.252,1171.7 860.252,1180.03 836.5,1181.5C 828.333,1160.9 814.333,1155.23 794.5,1164.5C 784.668,1143.75 768.668,1136.25 746.5,1142C 736.304,1146.7 728.971,1154.2 724.5,1164.5C 705.233,1155.32 691.4,1160.65 683,1180.5C 680.755,1186.63 679.589,1192.97 679.5,1199.5C 652.833,1199.5 626.167,1199.5 599.5,1199.5C 599.616,1183.56 593.283,1171.06 580.5,1162C 571.358,1158.15 562.692,1158.98 554.5,1164.5C 548.781,1151.64 539.115,1143.48 525.5,1140C 512.671,1138.28 501.837,1142.11 493,1151.5C 489.97,1155.7 487.137,1160.03 484.5,1164.5C 464.667,1155.23 450.667,1160.9 442.5,1181.5C 418.748,1180.03 397.748,1171.7 379.5,1156.5C 379.333,1145.16 379.5,1133.83 380,1122.5C 383.865,1085.01 390.365,1048.01 399.5,1011.5 Z"/></g>
<g><path style="opacity:1" fill="#cfd3d7" d="M 515.5,1159.5 C 527.624,1160.11 535.124,1166.44 538,1178.5C 541.891,1193.44 538.391,1206.28 527.5,1217C 518.797,1221.51 511.63,1219.68 506,1211.5C 498.172,1198.22 497.505,1184.56 504,1170.5C 507.07,1165.93 510.904,1162.26 515.5,1159.5 Z"/></g>
<g><path style="opacity:1" fill="#cfd3d7" d="M 755.5,1159.5 C 767.624,1160.11 775.124,1166.44 778,1178.5C 781.891,1193.44 778.391,1206.28 767.5,1217C 758.797,1221.51 751.63,1219.68 746,1211.5C 738.172,1198.22 737.505,1184.56 744,1170.5C 747.07,1165.93 750.904,1162.26 755.5,1159.5 Z"/></g>
<g><path style="opacity:1" fill="#cfd3d7" d="M 467.5,1179.5 C 471.147,1179.62 473.981,1181.29 476,1184.5C 480.21,1193.69 480.543,1203.02 477,1212.5C 473.205,1220.79 468.538,1221.46 463,1214.5C 457.196,1201.74 458.696,1190.07 467.5,1179.5 Z"/></g>
<g><path style="opacity:1" fill="#cfd3d7" d="M 567.5,1179.5 C 571.147,1179.62 573.981,1181.29 576,1184.5C 580.21,1193.69 580.543,1203.02 577,1212.5C 573.205,1220.79 568.538,1221.46 563,1214.5C 557.196,1201.74 558.696,1190.07 567.5,1179.5 Z"/></g>
<g><path style="opacity:1" fill="#cfd3d7" d="M 707.5,1179.5 C 711.147,1179.62 713.981,1181.29 716,1184.5C 720.21,1193.69 720.543,1203.02 717,1212.5C 713.205,1220.79 708.538,1221.46 703,1214.5C 697.196,1201.74 698.696,1190.07 707.5,1179.5 Z"/></g>
<g><path style="opacity:1" fill="#cfd3d7" d="M 807.5,1179.5 C 811.147,1179.62 813.981,1181.29 816,1184.5C 820.21,1193.69 820.543,1203.02 817,1212.5C 813.205,1220.79 808.538,1221.46 803,1214.5C 797.196,1201.74 798.696,1190.07 807.5,1179.5 Z"/></g>
<g><path style="opacity:1" fill="#201d33" d="M 1006.5,1348.5 C 1006.5,1389.5 1006.5,1430.5 1006.5,1471.5C 1003.49,1479.47 998.161,1485.47 990.5,1489.5C 985.426,1498.71 977.759,1504.54 967.5,1507C 939.167,1507.67 910.833,1507.67 882.5,1507C 878.989,1506.33 875.656,1505.16 872.5,1503.5C 869.344,1505.16 866.011,1506.33 862.5,1507C 839.167,1507.67 815.833,1507.67 792.5,1507C 788.989,1506.33 785.656,1505.16 782.5,1503.5C 779.344,1505.16 776.011,1506.33 772.5,1507C 765.833,1507.17 759.167,1507.33 752.5,1507.5C 715.868,1507.47 679.201,1507.3 642.5,1507C 638.989,1506.33 635.656,1505.16 632.5,1503.5C 629.344,1505.16 626.011,1506.33 622.5,1507C 594.167,1507.67 565.833,1507.67 537.5,1507C 530.722,1505.55 524.889,1502.38 520,1497.5C 515.111,1502.38 509.278,1505.55 502.5,1507C 489.167,1507.67 475.833,1507.67 462.5,1507C 452.714,1504.71 445.381,1499.21 440.5,1490.5C 436.858,1488.03 433.358,1485.36 430,1482.5C 426.974,1485.03 423.807,1487.36 420.5,1489.5C 415.426,1498.71 407.759,1504.54 397.5,1507C 364.167,1507.67 330.833,1507.67 297.5,1507C 284,1504.17 275.833,1496 273,1482.5C 272.333,1469.17 272.333,1455.83 273,1442.5C 273.67,1438.99 274.837,1435.66 276.5,1432.5C 274.837,1429.34 273.67,1426.01 273,1422.5C 272.333,1394.17 272.333,1365.83 273,1337.5C 275.293,1327.71 280.793,1320.38 289.5,1315.5C 294.574,1306.29 302.241,1300.46 312.5,1298C 345.833,1297.33 379.167,1297.33 412.5,1298C 423.774,1300.47 431.774,1306.97 436.5,1317.5C 439.782,1315.13 443.448,1313.63 447.5,1313C 460.833,1312.33 474.167,1312.33 487.5,1313C 496.068,1314.78 502.734,1319.28 507.5,1326.5C 509.167,1326.83 510.833,1327.17 512.5,1327.5C 529.127,1327.5 545.794,1327.67 562.5,1328C 566.011,1328.67 569.344,1329.84 572.5,1331.5C 575.656,1329.84 578.989,1328.67 582.5,1328C 595.833,1327.33 609.167,1327.33 622.5,1328C 631.068,1329.78 637.734,1334.28 642.5,1341.5C 649.134,1342.5 655.8,1342.83 662.5,1342.5C 659.165,1309.17 674.165,1294.17 707.5,1297.5C 714.167,1297.67 720.833,1297.83 727.5,1298C 736.068,1299.78 742.734,1304.28 747.5,1311.5C 755.813,1312.33 764.147,1312.83 772.5,1313C 781.068,1314.78 787.734,1319.28 792.5,1326.5C 815.826,1327.33 839.16,1327.83 862.5,1328C 869.278,1329.45 875.111,1332.62 880,1337.5C 884.889,1332.62 890.722,1329.45 897.5,1328C 925.833,1327.33 954.167,1327.33 982.5,1328C 994.388,1330.42 1002.39,1337.26 1006.5,1348.5 Z"/></g>
<g><path style="opacity:1" fill="#a1acbb" d="M 407.5,1417.5 C 397.5,1417.5 387.5,1417.5 377.5,1417.5C 352.5,1417.5 327.5,1417.5 302.5,1417.5C 302.5,1392.5 302.5,1367.5 302.5,1342.5C 307.5,1342.5 312.5,1342.5 317.5,1342.5C 317.5,1337.5 317.5,1332.5 317.5,1327.5C 347.5,1327.5 377.5,1327.5 407.5,1327.5C 407.5,1337.5 407.5,1347.5 407.5,1357.5C 382.5,1357.5 357.5,1357.5 332.5,1357.5C 332.5,1367.5 332.5,1377.5 332.5,1387.5C 357.5,1387.5 382.5,1387.5 407.5,1387.5C 407.5,1397.5 407.5,1407.5 407.5,1417.5 Z"/></g>
<g><path style="opacity:1" fill="#a1acbb" d="M 722.5,1417.5 C 712.5,1417.5 702.5,1417.5 692.5,1417.5C 692.5,1412.5 692.5,1407.5 692.5,1402.5C 682.5,1402.5 672.5,1402.5 662.5,1402.5C 662.5,1407.5 662.5,1412.5 662.5,1417.5C 652.5,1417.5 642.5,1417.5 632.5,1417.5C 632.5,1407.5 632.5,1397.5 632.5,1387.5C 637.5,1387.5 642.5,1387.5 647.5,1387.5C 647.5,1382.5 647.5,1377.5 647.5,1372.5C 662.5,1372.5 677.5,1372.5 692.5,1372.5C 692.5,1357.5 692.5,1342.5 692.5,1327.5C 702.5,1327.5 712.5,1327.5 722.5,1327.5C 722.5,1357.5 722.5,1387.5 722.5,1417.5 Z"/></g>
<g><path style="opacity:1" fill="#a1acbb" d="M 482.5,1417.5 C 472.5,1417.5 462.5,1417.5 452.5,1417.5C 452.5,1407.5 452.5,1397.5 452.5,1387.5C 442.5,1387.5 432.5,1387.5 422.5,1387.5C 422.5,1377.5 422.5,1367.5 422.5,1357.5C 432.5,1357.5 442.5,1357.5 452.5,1357.5C 452.5,1352.5 452.5,1347.5 452.5,1342.5C 462.5,1342.5 472.5,1342.5 482.5,1342.5C 482.5,1347.5 482.5,1352.5 482.5,1357.5C 492.5,1357.5 502.5,1357.5 512.5,1357.5C 512.5,1367.5 512.5,1377.5 512.5,1387.5C 502.5,1387.5 492.5,1387.5 482.5,1387.5C 482.5,1397.5 482.5,1407.5 482.5,1417.5 Z"/></g>
<g><path style="opacity:1" fill="#a1acbb" d="M 737.5,1342.5 C 747.5,1342.5 757.5,1342.5 767.5,1342.5C 767.5,1352.5 767.5,1362.5 767.5,1372.5C 757.5,1372.5 747.5,1372.5 737.5,1372.5C 737.5,1362.5 737.5,1352.5 737.5,1342.5 Z"/></g>
<g><path style="opacity:1" fill="#a1acbb" d="M 557.5,1417.5 C 547.5,1417.5 537.5,1417.5 527.5,1417.5C 527.5,1397.5 527.5,1377.5 527.5,1357.5C 537.5,1357.5 547.5,1357.5 557.5,1357.5C 557.5,1377.5 557.5,1397.5 557.5,1417.5 Z"/></g>
<g><path style="opacity:1" fill="#a1acbb" d="M 617.5,1417.5 C 607.5,1417.5 597.5,1417.5 587.5,1417.5C 587.5,1397.5 587.5,1377.5 587.5,1357.5C 597.5,1357.5 607.5,1357.5 617.5,1357.5C 617.5,1377.5 617.5,1397.5 617.5,1417.5 Z"/></g>
<g><path style="opacity:1" fill="#a1acbb" d="M 872.5,1417.5 C 862.5,1417.5 852.5,1417.5 842.5,1417.5C 842.5,1407.5 842.5,1397.5 842.5,1387.5C 832.5,1387.5 822.5,1387.5 812.5,1387.5C 812.5,1397.5 812.5,1407.5 812.5,1417.5C 802.5,1417.5 792.5,1417.5 782.5,1417.5C 782.5,1402.5 782.5,1387.5 782.5,1372.5C 787.5,1372.5 792.5,1372.5 797.5,1372.5C 797.5,1367.5 797.5,1362.5 797.5,1357.5C 817.5,1357.5 837.5,1357.5 857.5,1357.5C 857.5,1362.5 857.5,1367.5 857.5,1372.5C 862.5,1372.5 867.5,1372.5 872.5,1372.5C 872.5,1387.5 872.5,1402.5 872.5,1417.5 Z"/></g>
<g><path style="opacity:1" fill="#a1acbb" d="M 977.5,1417.5 C 947.5,1417.5 917.5,1417.5 887.5,1417.5C 887.5,1402.5 887.5,1387.5 887.5,1372.5C 892.5,1372.5 897.5,1372.5 902.5,1372.5C 902.5,1367.5 902.5,1362.5 902.5,1357.5C 927.5,1357.5 952.5,1357.5 977.5,1357.5C 977.5,1367.5 977.5,1377.5 977.5,1387.5C 957.5,1387.5 937.5,1387.5 917.5,1387.5C 917.5,1392.5 917.5,1397.5 917.5,1402.5C 937.5,1402.5 957.5,1402.5 977.5,1402.5C 977.5,1407.5 977.5,1412.5 977.5,1417.5 Z"/></g>
<g><path style="opacity:1" fill="#a1acbb" d="M 767.5,1417.5 C 757.5,1417.5 747.5,1417.5 737.5,1417.5C 737.5,1407.5 737.5,1397.5 737.5,1387.5C 747.5,1387.5 757.5,1387.5 767.5,1387.5C 767.5,1397.5 767.5,1407.5 767.5,1417.5 Z"/></g>
<g><path style="opacity:1" fill="#201d33" d="M 842.5,1417.5 C 842.5,1427.5 842.5,1437.5 842.5,1447.5C 832.5,1447.5 822.5,1447.5 812.5,1447.5C 812.5,1437.5 812.5,1427.5 812.5,1417.5C 812.5,1407.5 812.5,1397.5 812.5,1387.5C 822.5,1387.5 832.5,1387.5 842.5,1387.5C 842.5,1397.5 842.5,1407.5 842.5,1417.5 Z"/></g>
<g><path style="opacity:1" fill="#201d33" d="M 692.5,1417.5 C 692.5,1427.5 692.5,1437.5 692.5,1447.5C 682.5,1447.5 672.5,1447.5 662.5,1447.5C 662.5,1437.5 662.5,1427.5 662.5,1417.5C 662.5,1412.5 662.5,1407.5 662.5,1402.5C 672.5,1402.5 682.5,1402.5 692.5,1402.5C 692.5,1407.5 692.5,1412.5 692.5,1417.5 Z"/></g>
<g><path style="opacity:1" fill="#7c7f9a" d="M 377.5,1417.5 C 387.5,1417.5 397.5,1417.5 407.5,1417.5C 407.5,1432.5 407.5,1447.5 407.5,1462.5C 402.5,1462.5 397.5,1462.5 392.5,1462.5C 392.5,1467.5 392.5,1472.5 392.5,1477.5C 362.5,1477.5 332.5,1477.5 302.5,1477.5C 302.5,1467.5 302.5,1457.5 302.5,1447.5C 327.5,1447.5 352.5,1447.5 377.5,1447.5C 377.5,1437.5 377.5,1427.5 377.5,1417.5 Z"/></g>
<g><path style="opacity:1" fill="#7c7f9a" d="M 452.5,1417.5 C 462.5,1417.5 472.5,1417.5 482.5,1417.5C 482.5,1427.5 482.5,1437.5 482.5,1447.5C 487.5,1447.5 492.5,1447.5 497.5,1447.5C 497.5,1457.5 497.5,1467.5 497.5,1477.5C 487.5,1477.5 477.5,1477.5 467.5,1477.5C 467.5,1472.5 467.5,1467.5 467.5,1462.5C 462.5,1462.5 457.5,1462.5 452.5,1462.5C 452.5,1447.5 452.5,1432.5 452.5,1417.5 Z"/></g>
<g><path style="opacity:1" fill="#7c7f9a" d="M 527.5,1417.5 C 537.5,1417.5 547.5,1417.5 557.5,1417.5C 557.5,1427.5 557.5,1437.5 557.5,1447.5C 567.5,1447.5 577.5,1447.5 587.5,1447.5C 587.5,1437.5 587.5,1427.5 587.5,1417.5C 597.5,1417.5 607.5,1417.5 617.5,1417.5C 617.5,1437.5 617.5,1457.5 617.5,1477.5C 592.5,1477.5 567.5,1477.5 542.5,1477.5C 542.5,1472.5 542.5,1467.5 542.5,1462.5C 537.5,1462.5 532.5,1462.5 527.5,1462.5C 527.5,1447.5 527.5,1432.5 527.5,1417.5 Z"/></g>
<g><path style="opacity:1" fill="#7c7f9a" d="M 632.5,1417.5 C 642.5,1417.5 652.5,1417.5 662.5,1417.5C 662.5,1427.5 662.5,1437.5 662.5,1447.5C 672.5,1447.5 682.5,1447.5 692.5,1447.5C 692.5,1437.5 692.5,1427.5 692.5,1417.5C 702.5,1417.5 712.5,1417.5 722.5,1417.5C 722.5,1437.5 722.5,1457.5 722.5,1477.5C 697.5,1477.5 672.5,1477.5 647.5,1477.5C 647.5,1472.5 647.5,1467.5 647.5,1462.5C 642.5,1462.5 637.5,1462.5 632.5,1462.5C 632.5,1447.5 632.5,1432.5 632.5,1417.5 Z"/></g>
<g><path style="opacity:1" fill="#7c7f9a" d="M 737.5,1417.5 C 747.5,1417.5 757.5,1417.5 767.5,1417.5C 767.5,1437.5 767.5,1457.5 767.5,1477.5C 757.5,1477.5 747.5,1477.5 737.5,1477.5C 737.5,1457.5 737.5,1437.5 737.5,1417.5 Z"/></g>
<g><path style="opacity:1" fill="#7c7f9a" d="M 782.5,1417.5 C 792.5,1417.5 802.5,1417.5 812.5,1417.5C 812.5,1427.5 812.5,1437.5 812.5,1447.5C 822.5,1447.5 832.5,1447.5 842.5,1447.5C 842.5,1437.5 842.5,1427.5 842.5,1417.5C 852.5,1417.5 862.5,1417.5 872.5,1417.5C 872.5,1432.5 872.5,1447.5 872.5,1462.5C 867.5,1462.5 862.5,1462.5 857.5,1462.5C 857.5,1467.5 857.5,1472.5 857.5,1477.5C 837.5,1477.5 817.5,1477.5 797.5,1477.5C 797.5,1472.5 797.5,1467.5 797.5,1462.5C 792.5,1462.5 787.5,1462.5 782.5,1462.5C 782.5,1447.5 782.5,1432.5 782.5,1417.5 Z"/></g>
<g><path style="opacity:1" fill="#7c7f9a" d="M 887.5,1417.5 C 917.5,1417.5 947.5,1417.5 977.5,1417.5C 977.5,1432.5 977.5,1447.5 977.5,1462.5C 972.5,1462.5 967.5,1462.5 962.5,1462.5C 962.5,1467.5 962.5,1472.5 962.5,1477.5C 937.5,1477.5 912.5,1477.5 887.5,1477.5C 887.5,1467.5 887.5,1457.5 887.5,1447.5C 907.5,1447.5 927.5,1447.5 947.5,1447.5C 947.5,1442.5 947.5,1437.5 947.5,1432.5C 927.5,1432.5 907.5,1432.5 887.5,1432.5C 887.5,1427.5 887.5,1422.5 887.5,1417.5 Z"/></g>
</svg>
