<?xml version="1.0"?>
<svg width="1090" height="1103" xmlns="http://www.w3.org/2000/svg" xmlns:svg="http://www.w3.org/2000/svg" clip-rule="evenodd" fill-rule="evenodd" version="1.1">
 <g class="layer">
  <title>Layer 1</title>
  <g id="svg_1">
   <path d="m15.5,-0.5c32.67,0 65.33,0 98,0c7.74,2.74 12.74,8.07 15,16c8.65,2.48 14.15,8.15 16.5,17c1.65,-1.22 3.48,-2.05 5.5,-2.5c22.67,-0.67 45.33,-0.67 68,0c2.02,0.45 3.85,1.28 5.5,2.5c-2.89,-15.56 2.61,-26.56 16.5,-33c12.67,0 25.33,0 38,0c6.5,2.33 11.34,6.66 14.5,13c1.43,10.59 1.93,21.26 1.5,32c9.67,-0.17 19.34,0 29,0.5c4.29,1.15 7.96,3.31 11,6.5c2.96,-3.31 6.63,-5.31 11,-6c2.08,-7.91 7.08,-13.08 15,-15.5c22.67,-0.67 45.33,-0.67 68,0c4.29,1.15 7.96,3.31 11,6.5c3.04,-3.19 6.71,-5.35 11,-6.5c27.67,-0.67 55.33,-0.67 83,0c4.29,1.15 7.96,3.31 11,6.5c3.04,-3.19 6.71,-5.35 11,-6.5c12.67,-0.67 25.33,-0.67 38,0c6.68,2.01 11.51,6.18 14.5,12.5c1.43,10.59 1.93,21.26 1.5,32c9.67,-0.17 19.34,0 29,0.5c2.02,0.45 3.85,1.28 5.5,2.5c0.33,-5.67 0.67,-11.33 1,-17c2.42,-7.92 7.59,-12.92 15.5,-15c2.08,-7.91 7.08,-13.08 15,-15.5c22.67,-0.67 45.33,-0.67 68,0c4.29,1.15 7.96,3.31 11,6.5c3.04,-3.19 6.71,-5.35 11,-6.5c27.67,-0.67 55.33,-0.67 83,0c7.92,2.42 12.92,7.59 15,15.5c2.33,1.33 4.67,1.33 7,0c2.08,-7.91 7.08,-13.08 15,-15.5c22.67,-0.67 45.33,-0.67 68,0c7.92,2.42 12.92,7.59 15,15.5c2.33,1.33 4.67,1.33 7,0c2.08,-7.91 7.08,-13.08 15,-15.5c27.67,-0.67 55.33,-0.67 83,0c7.85,2.69 13.18,7.85 16,15.5c0,12.67 0,25.33 0,38c-0.75,1.03 -1.42,2.2 -2,3.5c0.58,1.3 1.25,2.47 2,3.5c0,22.67 0,45.33 0,68c-2.74,7.74 -8.07,12.74 -16,15c-2.08,7.91 -7.08,13.08 -15,15.5c-27.67,0.67 -55.33,0.67 -83,0c-1.27,-0.31 -2.43,-0.81 -3.5,-1.5c-1.07,0.69 -2.23,1.19 -3.5,1.5c-27.67,0.67 -55.33,0.67 -83,0c-4.29,-1.15 -7.96,-3.31 -11,-6.5c-3.04,3.19 -6.71,5.35 -11,6.5c-12.67,0.67 -25.33,0.67 -38,0c-4.29,-1.15 -7.96,-3.31 -11,-6.5c-3.04,3.19 -6.71,5.35 -11,6.5c-12.67,0.67 -25.33,0.67 -38,0c-4.29,-1.15 -7.96,-3.31 -11,-6.5c-3.04,3.19 -6.71,5.35 -11,6.5c-22.67,0.67 -45.33,0.67 -68,0c-4.29,-1.15 -7.96,-3.31 -11,-6.5c-3.04,3.19 -6.71,5.35 -11,6.5c-12.67,0.67 -25.33,0.67 -38,0c-4.29,-1.15 -7.96,-3.31 -11,-6.5c-3.04,3.19 -6.71,5.35 -11,6.5c-12.67,0.67 -25.33,0.67 -38,0c-7.83,-2.5 -13,-7.67 -15.5,-15.5c-0.33,-5.67 -0.67,-11.33 -1,-17c-1.65,1.22 -3.48,2.05 -5.5,2.5c-9.66,0.5 -19.33,0.67 -29,0.5c2.59,14.33 -2.74,24.16 -16,29.5c-12.67,0.67 -25.33,0.67 -38,0c-4.29,-1.15 -7.96,-3.31 -11,-6.5c-3.04,3.19 -6.71,5.35 -11,6.5c-22.67,0.67 -45.33,0.67 -68,0c-7.92,-2.42 -12.92,-7.59 -15,-15.5c-2.33,-1.33 -4.67,-1.33 -7,0c-2.08,7.91 -7.08,13.08 -15,15.5c-27.67,0.67 -55.33,0.67 -83,0c-4.29,-1.15 -7.96,-3.31 -11,-6.5c-3.04,3.19 -6.71,5.35 -11,6.5c-22.67,0.67 -45.33,0.67 -68,0c-4.29,-1.15 -7.96,-3.31 -11,-6.5c-3.04,3.19 -6.71,5.35 -11,6.5c-37.67,0.67 -75.33,0.67 -113,0c-7.85,-2.69 -13.18,-7.85 -16,-15.5c0,-52.67 0,-105.33 0,-158c3,-7.67 8.33,-13 16,-16z" fill="#201d33" id="svg_2"/>
  </g>
  <g id="svg_3">
   <path d="m109.5,109.5c-5,0 -10,0 -15,0c-15,0 -30,0 -45,0c-10,0 -20,0 -30,0c0,-30 0,-60 0,-90c30,0 60,0 90,0c0,5 0,10 0,15c5,0 10,0 15,0c0,15 0,30 0,45c-5,0 -10,0 -15,0c0,10 0,20 0,30z" fill="#a1acbb" id="svg_4"/>
  </g>
  <g id="svg_5">
   <path d="m334.5,109.5c-10,0 -20,0 -30,0c0,-5 0,-10 0,-15c-10,0 -20,0 -30,0c0,5 0,10 0,15c-10,0 -20,0 -30,0c0,-30 0,-60 0,-90c10,0 20,0 30,0c0,15 0,30 0,45c15,0 30,0 45,0c0,5 0,10 0,15c5,0 10,0 15,0c0,10 0,20 0,30z" fill="#a1acbb" id="svg_6"/>
  </g>
  <g id="svg_7">
   <path d="m49.5,49.5c15,0 30,0 45,0c0,10 0,20 0,30c-15,0 -30,0 -45,0c0,-10 0,-20 0,-30z" fill="#201d33" id="svg_8"/>
  </g>
  <g id="svg_9">
   <path d="m229.5,109.5c-10,0 -20,0 -30,0c0,-10 0,-20 0,-30c-10,0 -20,0 -30,0c0,10 0,20 0,30c-10,0 -20,0 -30,0c0,-15 0,-30 0,-45c5,0 10,0 15,0c0,-5 0,-10 0,-15c20,0 40,0 60,0c0,5 0,10 0,15c5,0 10,0 15,0c0,15 0,30 0,45z" fill="#a1acbb" id="svg_10"/>
  </g>
  <g id="svg_11">
   <path d="m439.5,109.5c-10,0 -20,0 -30,0c0,-10 0,-20 0,-30c-10,0 -20,0 -30,0c0,10 0,20 0,30c-10,0 -20,0 -30,0c0,-15 0,-30 0,-45c5,0 10,0 15,0c0,-5 0,-10 0,-15c20,0 40,0 60,0c0,5 0,10 0,15c5,0 10,0 15,0c0,15 0,30 0,45z" fill="#a1acbb" id="svg_12"/>
  </g>
  <g id="svg_13">
   <path d="m544.5,109.5c-10,0 -20,0 -30,0c0,-10 0,-20 0,-30c-10,0 -20,0 -30,0c0,10 0,20 0,30c-10,0 -20,0 -30,0c0,-20 0,-40 0,-60c25,0 50,0 75,0c0,5 0,10 0,15c5,0 10,0 15,0c0,15 0,30 0,45z" fill="#a1acbb" id="svg_14"/>
  </g>
  <g id="svg_15">
   <path d="m634.5,109.5c-25,0 -50,0 -75,0c0,-20 0,-40 0,-60c10,0 20,0 30,0c0,15 0,30 0,45c15,0 30,0 45,0c0,5 0,10 0,15z" fill="#a1acbb" id="svg_16"/>
  </g>
  <g id="svg_17">
   <path d="m754.5,109.5c-10,0 -20,0 -30,0c0,-10 0,-20 0,-30c-10,0 -20,0 -30,0c0,10 0,20 0,30c-10,0 -20,0 -30,0c0,-15 0,-30 0,-45c5,0 10,0 15,0c0,-5 0,-10 0,-15c20,0 40,0 60,0c0,5 0,10 0,15c5,0 10,0 15,0c0,15 0,30 0,45z" fill="#a1acbb" id="svg_18"/>
  </g>
  <g id="svg_19">
   <path d="m859.5,109.5c-10,0 -20,0 -30,0c0,-10 0,-20 0,-30c-10,0 -20,0 -30,0c0,10 0,20 0,30c-10,0 -20,0 -30,0c0,-20 0,-40 0,-60c25,0 50,0 75,0c0,5 0,10 0,15c5,0 10,0 15,0c0,15 0,30 0,45z" fill="#a1acbb" id="svg_20"/>
  </g>
  <g id="svg_21">
   <path d="m964.5,109.5c-30,0 -60,0 -90,0c0,-15 0,-30 0,-45c5,0 10,0 15,0c0,-5 0,-10 0,-15c20,0 40,0 60,0c0,5 0,10 0,15c5,0 10,0 15,0c0,15 0,30 0,45z" fill="#a1acbb" id="svg_22"/>
  </g>
  <g id="svg_23">
   <path d="m1069.5,109.5c-30,0 -60,0 -90,0c0,-15 0,-30 0,-45c5,0 10,0 15,0c0,-5 0,-10 0,-15c25,0 50,0 75,0c0,10 0,20 0,30c-20,0 -40,0 -60,0c0,5 0,10 0,15c20,0 40,0 60,0c0,5 0,10 0,15z" fill="#a1acbb" id="svg_24"/>
  </g>
  <g id="svg_25">
   <path d="m199.5,109.5c0,10 0,20 0,30c-10,0 -20,0 -30,0c0,-10 0,-20 0,-30c0,-10 0,-20 0,-30c10,0 20,0 30,0c0,10 0,20 0,30z" fill="#201d33" id="svg_26"/>
  </g>
  <g id="svg_27">
   <path d="m409.5,109.5c0,10 0,20 0,30c-10,0 -20,0 -30,0c0,-10 0,-20 0,-30c0,-10 0,-20 0,-30c10,0 20,0 30,0c0,10 0,20 0,30z" fill="#201d33" id="svg_28"/>
  </g>
  <g id="svg_29">
   <path d="m514.5,109.5c-10,0 -20,0 -30,0c0,-10 0,-20 0,-30c10,0 20,0 30,0c0,10 0,20 0,30z" fill="#201d33" id="svg_30"/>
  </g>
  <g id="svg_31">
   <path d="m724.5,109.5c0,10 0,20 0,30c-10,0 -20,0 -30,0c0,-10 0,-20 0,-30c0,-10 0,-20 0,-30c10,0 20,0 30,0c0,10 0,20 0,30z" fill="#201d33" id="svg_32"/>
  </g>
  <g id="svg_33">
   <path d="m904.5,79.5c10,0 20,0 30,0c0,5 0,10 0,15c-10,0 -20,0 -30,0c0,-5 0,-10 0,-15z" fill="#201d33" id="svg_34"/>
  </g>
  <g id="svg_35">
   <path d="m304.5,109.5c0,10 0,20 0,30c-10,0 -20,0 -30,0c0,-10 0,-20 0,-30c0,-5 0,-10 0,-15c10,0 20,0 30,0c0,5 0,10 0,15z" fill="#201d33" id="svg_36"/>
  </g>
  <g id="svg_37">
   <path d="m19.5,109.5c10,0 20,0 30,0c0,10 0,20 0,30c15,0 30,0 45,0c0,-10 0,-20 0,-30c5,0 10,0 15,0c5,0 10,0 15,0c0,20 0,40 0,60c-35,0 -70,0 -105,0c0,-20 0,-40 0,-60z" fill="#7c7f9a" id="svg_38"/>
  </g>
  <g id="svg_39">
   <path d="m49.5,109.5c15,0 30,0 45,0c0,10 0,20 0,30c-15,0 -30,0 -45,0c0,-10 0,-20 0,-30z" fill="#201d33" id="svg_40"/>
  </g>
  <g id="svg_41">
   <path d="m139.5,109.5c10,0 20,0 30,0c0,10 0,20 0,30c10,0 20,0 30,0c0,-10 0,-20 0,-30c10,0 20,0 30,0c0,15 0,30 0,45c-5,0 -10,0 -15,0c0,5 0,10 0,15c-20,0 -40,0 -60,0c0,-5 0,-10 0,-15c-5,0 -10,0 -15,0c0,-15 0,-30 0,-45z" fill="#7c7f9a" id="svg_42"/>
  </g>
  <g id="svg_43">
   <path d="m244.5,109.5c10,0 20,0 30,0c0,10 0,20 0,30c10,0 20,0 30,0c0,-10 0,-20 0,-30c10,0 20,0 30,0c0,15 0,30 0,45c-5,0 -10,0 -15,0c0,5 0,10 0,15c-25,0 -50,0 -75,0c0,-20 0,-40 0,-60z" fill="#7c7f9a" id="svg_44"/>
  </g>
  <g id="svg_45">
   <path d="m349.5,109.5c10,0 20,0 30,0c0,10 0,20 0,30c10,0 20,0 30,0c0,-10 0,-20 0,-30c10,0 20,0 30,0c0,15 0,30 0,45c-5,0 -10,0 -15,0c0,5 0,10 0,15c-20,0 -40,0 -60,0c0,-5 0,-10 0,-15c-5,0 -10,0 -15,0c0,-15 0,-30 0,-45z" fill="#7c7f9a" id="svg_46"/>
  </g>
  <g id="svg_47">
   <path d="m454.5,109.5c10,0 20,0 30,0c10,0 20,0 30,0c10,0 20,0 30,0c0,5 0,10 0,15c-5,0 -10,0 -15,0c0,5 0,10 0,15c-15,0 -30,0 -45,0c0,10 0,20 0,30c-10,0 -20,0 -30,0c0,-20 0,-40 0,-60z" fill="#7c7f9a" id="svg_48"/>
  </g>
  <g id="svg_49">
   <path d="m559.5,109.5c25,0 50,0 75,0c5,0 10,0 15,0c0,20 0,40 0,60c-10,0 -20,0 -30,0c0,-15 0,-30 0,-45c-10,0 -20,0 -30,0c0,15 0,30 0,45c-10,0 -20,0 -30,0c0,-20 0,-40 0,-60z" fill="#7c7f9a" id="svg_50"/>
  </g>
  <g id="svg_51">
   <path d="m664.5,109.5c10,0 20,0 30,0c0,10 0,20 0,30c10,0 20,0 30,0c0,-10 0,-20 0,-30c10,0 20,0 30,0c0,15 0,30 0,45c-5,0 -10,0 -15,0c0,5 0,10 0,15c-20,0 -40,0 -60,0c0,-5 0,-10 0,-15c-5,0 -10,0 -15,0c0,-15 0,-30 0,-45z" fill="#7c7f9a" id="svg_52"/>
  </g>
  <g id="svg_53">
   <path d="m769.5,109.5c10,0 20,0 30,0c0,20 0,40 0,60c-10,0 -20,0 -30,0c0,-20 0,-40 0,-60z" fill="#7c7f9a" id="svg_54"/>
  </g>
  <g id="svg_55">
   <path d="m829.5,109.5c10,0 20,0 30,0c0,20 0,40 0,60c-10,0 -20,0 -30,0c0,-20 0,-40 0,-60z" fill="#7c7f9a" id="svg_56"/>
  </g>
  <g id="svg_57">
   <path d="m874.5,109.5c30,0 60,0 90,0c0,5 0,10 0,15c-20,0 -40,0 -60,0c0,5 0,10 0,15c20,0 40,0 60,0c0,10 0,20 0,30c-25,0 -50,0 -75,0c0,-5 0,-10 0,-15c-5,0 -10,0 -15,0c0,-15 0,-30 0,-45z" fill="#7c7f9a" id="svg_58"/>
  </g>
  <g id="svg_59">
   <path d="m979.5,109.5c30,0 60,0 90,0c0,15 0,30 0,45c-5,0 -10,0 -15,0c0,5 0,10 0,15c-25,0 -50,0 -75,0c0,-10 0,-20 0,-30c20,0 40,0 60,0c0,-5 0,-10 0,-15c-20,0 -40,0 -60,0c0,-5 0,-10 0,-15z" fill="#7c7f9a" id="svg_60"/>
  </g>
  <g id="svg_61">
   <path d="m719.5,1102.5c-36.67,0 -73.33,0 -110,0c-9.97,-3.13 -16.97,-9.63 -21,-19.5c-29.33,-0.67 -58.67,-0.67 -88,0c-4.03,9.87 -11.03,16.37 -21,19.5c-36.67,0 -73.33,0 -110,0c-12.42,-4.73 -20.25,-13.73 -23.5,-27c-0.61,-3.33 -1.11,-6.66 -1.5,-10c-29.76,-3.88 -56.09,-15.38 -79,-34.5c-27.06,-22.05 -48.56,-48.55 -64.5,-79.5c-10.82,-26.57 -16.15,-54.24 -16,-83c-0.67,-59.33 -0.67,-118.67 0,-178c2.81,-56.1 20.14,-107.1 52,-153c12.56,-15.56 28.23,-26.89 47,-34c0.5,-6.99 0.67,-13.99 0.5,-21c-26.38,2.72 -47.21,-6.61 -62.5,-28c-10.45,-15.35 -16.12,-32.35 -17,-51c-0.67,-26.67 -0.67,-53.33 0,-80c0.74,-21.4 11.57,-34.24 32.5,-38.5c18.94,-1.88 37.94,-3.05 57,-3.5c11.88,-28.72 32.88,-46.88 63,-54.5c12.2,-2.57 24.53,-3.9 37,-4c100,-0.67 200,-0.67 300,0c18.21,-0.13 35.88,2.87 53,9c22.01,10.51 37.67,27.01 47,49.5c17.01,0.68 34.01,1.52 51,2.5c24.01,2.34 36.85,15.51 38.5,39.5c0.67,26.67 0.67,53.33 0,80c-1.45,32.09 -15.62,56.59 -42.5,73.5c-11.9,4.65 -24.24,6.48 -37,5.5c-0.17,7.01 0,14.01 0.5,21c24.03,9.34 42.7,25 56,47c26.2,42.95 40.54,89.62 43,140c0.67,59.33 0.67,118.67 0,178c1.08,41.06 -9.92,78.39 -33,112c-19.55,26.36 -43.05,48.52 -70.5,66.5c-17.45,9.86 -36.11,16.03 -56,18.5c-0.79,13.75 -6.46,24.92 -17,33.5c-2.81,1.09 -5.48,2.26 -8,3.5zm-227,-239c1.95,-1.43 3.62,-1.1 5,1c-1.62,-0.54 -3.28,-0.87 -5,-1zm104,0c-1.72,0.13 -3.38,0.46 -5,1c1.38,-2.1 3.04,-2.43 5,-1z" fill="#201d33" id="svg_62"/>
  </g>
  <g id="svg_63">
   <path d="m784.5,486.5c-14,6.67 -28,13.33 -42,20c-2.1,-2.38 -4.77,-3.72 -8,-4c-13.42,3.96 -25.25,10.62 -35.5,20c-6.43,7.87 -10.43,16.87 -12,27c-2.38,21.94 -3.04,43.94 -2,66c1.41,4.11 4.24,6.45 8.5,7c0.91,17.97 -0.92,35.64 -5.5,53c-4.9,9.71 -10.74,18.71 -17.5,27c-11.22,5.44 -22.55,10.61 -34,15.5c-22.45,6.17 -44.78,5.84 -67,-1c-6.5,-2.83 -12.16,-6.83 -17,-12c-5.33,-3.33 -10.67,-3.33 -16,0c-9,9.33 -20,14.67 -33,16c-17.17,2.06 -34.17,1.06 -51,-3c-11.45,-4.89 -22.78,-10.06 -34,-15.5c-6.76,-8.29 -12.6,-17.29 -17.5,-27c-4.58,-17.36 -6.41,-35.03 -5.5,-53c4.26,-0.55 7.09,-2.89 8.5,-7c1.04,-22.06 0.38,-44.06 -2,-66c-2.69,-17.58 -11.86,-30.41 -27.5,-38.5c-6.34,-3.67 -13.01,-6.5 -20,-8.5c-3.23,0.28 -5.9,1.62 -8,4c-14,-6.67 -28,-13.33 -42,-20c-0.44,-55.02 0.06,-110.02 1.5,-165c0.85,-19.2 6.85,-36.54 18,-52c14.23,-15.87 32.07,-24.37 53.5,-25.5c55.65,-1.13 111.32,-1.63 167,-1.5c55.68,-0.13 111.35,0.37 167,1.5c36.99,2.99 59.82,22.49 68.5,58.5c1.33,6.28 2.33,12.62 3,19c1.44,54.98 1.94,109.98 1.5,165z" fill="#a1acbb" id="svg_64"/>
  </g>
  <g id="svg_65">
   <path d="m284.5,442.5c-19.39,2.37 -35.55,-3.63 -48.5,-18c-3.41,-3.9 -6.58,-7.9 -9.5,-12c-0.66,-3.29 -1.16,-6.62 -1.5,-10c-0.5,-22.66 -0.67,-45.33 -0.5,-68c1.88,-6.78 4.38,-13.45 7.5,-20c2.38,-2.77 5.22,-4.94 8.5,-6.5c4.81,-1.45 9.48,-2.95 14,-4.5c11.15,-1 22.49,-1.33 34,-1c-1.71,10.59 -2.88,21.26 -3.5,32c-0.5,36 -0.67,72 -0.5,108z" fill="#cfd2d7" id="svg_66"/>
  </g>
  <g id="svg_67">
   <path d="m834.5,303.5c4.52,1.55 9.19,3.05 14,4.5c3.28,1.56 6.12,3.73 8.5,6.5c3.13,6.55 5.63,13.22 7.5,20c0.17,22.67 0,45.34 -0.5,68c-0.34,3.38 -0.84,6.71 -1.5,10c-6.1,9.26 -13.76,17.1 -23,23.5c-11,5.57 -22.67,7.73 -35,6.5c0.17,-36 0,-72 -0.5,-108c-0.62,-10.74 -1.79,-21.41 -3.5,-32c11.51,-0.33 22.85,0 34,1z" fill="#cfd2d7" id="svg_68"/>
  </g>
  <g id="svg_69">
   <path d="m254.5,303.5c-4.52,1.55 -9.19,3.05 -14,4.5c-3.28,1.56 -6.12,3.73 -8.5,6.5c-3.12,6.55 -5.62,13.22 -7.5,20c-0.4,-8.39 1.1,-16.39 4.5,-24c2.88,-2.96 6.38,-4.8 10.5,-5.5c4.95,-1.05 9.95,-1.55 15,-1.5z" fill="#aaafb4" id="svg_70"/>
  </g>
  <g id="svg_71">
   <path d="m834.5,303.5c8.01,-0.22 15.68,1.28 23,4.5c2.73,2.63 4.56,5.79 5.5,9.5c1.03,5.62 1.53,11.29 1.5,17c-1.87,-6.78 -4.37,-13.45 -7.5,-20c-2.38,-2.77 -5.22,-4.94 -8.5,-6.5c-4.81,-1.45 -9.48,-2.95 -14,-4.5z" fill="#aaafb4" id="svg_72"/>
  </g>
  <g id="svg_73">
   <path d="m453.5,322.5c60.67,-0.17 121.33,0 182,0.5c9.16,2.48 11.66,7.98 7.5,16.5c-0.9,1.2 -2.07,2.04 -3.5,2.5c-63.33,0.67 -126.67,0.67 -190,0c-7.04,-4.89 -7.71,-10.56 -2,-17c2.11,-0.85 4.11,-1.68 6,-2.5z" fill="#7c7f9a" id="svg_74"/>
  </g>
  <g id="svg_75">
   <path d="m495.5,402.5c-2.93,0.04 -5.59,-0.79 -8,-2.5c-8.74,-8.4 -19.07,-13.73 -31,-16c-23.97,-1.4 -47.97,-1.9 -72,-1.5c-7.73,1.51 -14.23,-0.49 -19.5,-6c-1.86,-6.08 -0.02,-10.58 5.5,-13.5c29.36,-0.91 58.69,-0.58 88,1c17.46,2.98 32.29,10.81 44.5,23.5c2.83,7.68 0.33,12.68 -7.5,15z" fill="#201d33" id="svg_76"/>
  </g>
  <g id="svg_77">
   <path d="m704.5,382.5c-24.03,-0.4 -48.03,0.1 -72,1.5c-11.93,2.27 -22.26,7.6 -31,16c-2.41,1.71 -5.08,2.54 -8,2.5c-7.83,-2.32 -10.33,-7.32 -7.5,-15c12.21,-12.69 27.04,-20.52 44.5,-23.5c29.31,-1.58 58.64,-1.91 88,-1c5.52,2.92 7.36,7.42 5.5,13.5c-5.27,5.51 -11.77,7.51 -19.5,6z" fill="#201d33" id="svg_78"/>
  </g>
  <g id="svg_79">
   <path d="m384.5,382.5c24.03,-0.4 48.03,0.1 72,1.5c11.93,2.27 22.26,7.6 31,16c2.41,1.71 5.07,2.54 8,2.5c0.17,11.34 0,22.67 -0.5,34c-1.48,3.32 -3.98,5.32 -7.5,6c-0.5,-7.83 -4.16,-13.66 -11,-17.5c-15,-3.33 -30,-3.33 -45,0c-6.84,3.84 -10.5,9.67 -11,17.5c-21.54,-0.36 -33.37,-11.36 -35.5,-33c-0.5,-8.99 -0.67,-17.99 -0.5,-27z" fill="#7c7f9a" id="svg_80"/>
  </g>
  <g id="svg_81">
   <path d="m704.5,382.5c0.17,9.01 0,18.01 -0.5,27c-2.13,21.64 -13.96,32.64 -35.5,33c-0.5,-7.83 -4.16,-13.66 -11,-17.5c-15,-3.33 -30,-3.33 -45,0c-6.84,3.84 -10.5,9.67 -11,17.5c-3.52,-0.68 -6.02,-2.68 -7.5,-6c-0.5,-11.33 -0.67,-22.66 -0.5,-34c2.92,0.04 5.59,-0.79 8,-2.5c8.74,-8.4 19.07,-13.73 31,-16c23.97,-1.4 47.97,-1.9 72,-1.5z" fill="#7c7f9a" id="svg_82"/>
  </g>
  <g id="svg_83">
   <path d="m226.5,412.5c2.92,4.1 6.09,8.1 9.5,12c12.95,14.37 29.11,20.37 48.5,18c0,6.67 0,13.33 0,20c-21.32,2.92 -37.49,-4.75 -48.5,-23c-5.26,-8.28 -8.43,-17.28 -9.5,-27z" fill="#aaafb4" id="svg_84"/>
  </g>
  <g id="svg_85">
   <path d="m862.5,412.5c-2.47,16.44 -9.8,30.27 -22,41.5c-10.84,7.34 -22.84,10.17 -36,8.5c0,-6.67 0,-13.33 0,-20c12.33,1.23 24,-0.93 35,-6.5c9.24,-6.4 16.9,-14.24 23,-23.5z" fill="#aaafb4" id="svg_86"/>
  </g>
  <g id="svg_87">
   <path d="m487.5,442.5c-0.2,8.24 -3.87,14.4 -11,18.5c-7.43,1.12 -14.93,1.62 -22.5,1.5c-7.57,0.12 -15.07,-0.38 -22.5,-1.5c-7.13,-4.1 -10.8,-10.26 -11,-18.5c0.5,-7.83 4.16,-13.66 11,-17.5c15,-3.33 30,-3.33 45,0c6.84,3.84 10.5,9.67 11,17.5z" fill="#201d33" id="svg_88"/>
  </g>
  <g id="svg_89">
   <path d="m511.5,504.5c-3.35,1.18 -5.51,3.51 -6.5,7c-0.5,3.65 -0.67,7.32 -0.5,11c6.67,0 13.33,0 20,0c13.33,0 26.67,0 40,0c6.67,0 13.33,0 20,0c-0.23,-4.75 0.27,-9.41 1.5,-14c1.49,-2.81 3.66,-4.81 6.5,-6c4.09,-0.21 7.59,1.13 10.5,4c1.12,10.25 1.95,20.59 2.5,31c16.54,8.04 28.04,20.71 34.5,38c6.53,12.73 5.87,25.07 -2,37c-12.91,19.22 -31.08,29.05 -54.5,29.5c-26,0.67 -52,0.67 -78,0c-29.59,-0.95 -49.76,-15.11 -60.5,-42.5c0.76,-21.69 9.26,-39.85 25.5,-54.5c4.01,-3 8.34,-5.5 13,-7.5c0.83,-9.32 1.33,-18.65 1.5,-28c1.95,-11.11 8.12,-18.78 18.5,-23c0.83,-12.32 1.33,-24.65 1.5,-37c3.09,-20.89 15.26,-29.89 36.5,-27c5.75,-0.09 11.41,0.41 17,1.5c7.99,5.95 7.99,11.95 0,18c-9.67,0.33 -19.33,0.67 -29,1c-3.18,1.85 -4.68,4.68 -4.5,8.5c-0.33,15.67 -0.67,31.33 -1,47c-3.19,4.01 -7.36,6.01 -12.5,6z" fill="#201d33" id="svg_90"/>
  </g>
  <g id="svg_91">
   <path d="m668.5,442.5c-0.2,8.24 -3.87,14.4 -11,18.5c-7.43,1.12 -14.93,1.62 -22.5,1.5c-7.57,0.12 -15.07,-0.38 -22.5,-1.5c-7.13,-4.1 -10.8,-10.26 -11,-18.5c0.5,-7.83 4.16,-13.66 11,-17.5c15,-3.33 30,-3.33 45,0c6.84,3.84 10.5,9.67 11,17.5z" fill="#201d33" id="svg_92"/>
  </g>
  <g id="svg_93">
   <path d="m304.5,486.5c14,6.67 28,13.33 42,20c-3.25,5.66 -2.25,10.5 3,14.5c10.44,3.96 19.6,9.79 27.5,17.5c4.82,10.08 7.16,20.75 7,32c0.33,15 0.67,30 1,45c1.93,4.71 5.43,7.04 10.5,7c-0.91,17.97 0.92,35.64 5.5,53c4.9,9.71 10.74,18.71 17.5,27c-39.37,-24.86 -72.87,-56.2 -100.5,-94c-7.13,-12.07 -11.47,-25.07 -13,-39c-0.5,-27.66 -0.67,-55.33 -0.5,-83z" fill="#7c7f9a" id="svg_94"/>
  </g>
  <g id="svg_95">
   <path d="m784.5,486.5c0.17,27.67 0,55.34 -0.5,83c-1.53,13.93 -5.87,26.93 -13,39c-27.63,37.8 -61.13,69.14 -100.5,94c6.76,-8.29 12.6,-17.29 17.5,-27c4.58,-17.36 6.41,-35.03 5.5,-53c5.07,0.04 8.57,-2.29 10.5,-7c0.33,-15 0.67,-30 1,-45c-0.16,-11.25 2.18,-21.92 7,-32c7.9,-7.71 17.06,-13.54 27.5,-17.5c5.25,-4 6.25,-8.84 3,-14.5c14,-6.67 28,-13.33 42,-20z" fill="#7c7f9a" id="svg_96"/>
  </g>
  <g id="svg_97">
   <path d="m395.5,622.5c-5.07,0.04 -8.57,-2.29 -10.5,-7c-0.33,-15 -0.67,-30 -1,-45c0.16,-11.25 -2.18,-21.92 -7,-32c-7.9,-7.71 -17.06,-13.54 -27.5,-17.5c-5.25,-4 -6.25,-8.84 -3,-14.5c2.1,-2.38 4.77,-3.72 8,-4c6.99,2 13.66,4.83 20,8.5c15.64,8.09 24.81,20.92 27.5,38.5c2.38,21.94 3.04,43.94 2,66c-1.41,4.11 -4.24,6.45 -8.5,7z" fill="#201d33" id="svg_98"/>
  </g>
  <g id="svg_99">
   <path d="m592.5,502.5c-2.84,1.19 -5.01,3.19 -6.5,6c-1.23,4.59 -1.73,9.25 -1.5,14c-6.67,0 -13.33,0 -20,0c1.13,-11.96 7.8,-18.46 20,-19.5c2.65,-0.5 5.31,-0.66 8,-0.5z" fill="#7c7f9a" id="svg_100"/>
  </g>
  <g id="svg_101">
   <path d="m742.5,506.5c3.25,5.66 2.25,10.5 -3,14.5c-10.44,3.96 -19.6,9.79 -27.5,17.5c-4.82,10.08 -7.16,20.75 -7,32c-0.33,15 -0.67,30 -1,45c-1.93,4.71 -5.43,7.04 -10.5,7c-4.26,-0.55 -7.09,-2.89 -8.5,-7c-1.04,-22.06 -0.38,-44.06 2,-66c1.57,-10.13 5.57,-19.13 12,-27c10.25,-9.38 22.08,-16.04 35.5,-20c3.23,0.28 5.9,1.62 8,4z" fill="#201d33" id="svg_102"/>
  </g>
  <g id="svg_103">
   <path d="m511.5,504.5c8.13,3.15 12.47,9.15 13,18c-6.67,0 -13.33,0 -20,0c-0.17,-3.68 0,-7.35 0.5,-11c0.99,-3.49 3.15,-5.82 6.5,-7z" fill="#7c7f9a" id="svg_104"/>
  </g>
  <g id="svg_105">
   <path d="m400.5,715.5c-22.57,3.45 -43.24,11.62 -62,24.5c-8.03,6.57 -13.7,14.74 -17,24.5c-8.8,-4.1 -14.47,-1.43 -17,8c12.81,32.32 34.14,57.48 64,75.5c18.15,9.43 37.48,14.43 58,15c-3.23,13.32 -2.23,26.32 3,39c-27.44,3.09 -53.44,-1.57 -78,-14c-11.23,-7.23 -21.9,-15.23 -32,-24c-5.51,-2.22 -10.18,-1.05 -14,3.5c-11.27,-10.77 -22.44,-21.77 -33.5,-33c-27.09,-35.87 -44.09,-76.21 -51,-121c-3.67,-25.22 -6.17,-50.55 -7.5,-76c4.76,-20.95 12.09,-40.95 22,-60c7.87,-16.24 18.54,-30.4 32,-42.5c5.25,-3.55 10.75,-6.71 16.5,-9.5c0.1,17.37 0.77,34.7 2,52c2.38,15.46 7.71,29.79 16,43c27.86,37.02 60.69,68.69 98.5,95z" fill="#a1acbb" id="svg_106"/>
  </g>
  <g id="svg_107">
   <path d="m853.5,577.5c9.9,19.05 17.24,39.05 22,60c-1.24,37.89 -6.4,75.22 -15.5,112c-8.81,31.29 -23.14,59.63 -43,85c-11.06,11.23 -22.23,22.23 -33.5,33c-3.82,-4.55 -8.49,-5.72 -14,-3.5c-10.1,8.77 -20.77,16.77 -32,24c-24.56,12.43 -50.56,17.09 -78,14c5.23,-12.68 6.23,-25.68 3,-39c29.58,-0.41 55.58,-10.08 78,-29c19.72,-16.96 34.39,-37.46 44,-61.5c-2.53,-9.43 -8.2,-12.1 -17,-8c-4.86,-13.36 -13.52,-23.53 -26,-30.5c-16.61,-9.26 -34.27,-15.42 -53,-18.5c37.81,-26.31 70.64,-57.98 98.5,-95c8.29,-13.21 13.63,-27.54 16,-43c1.23,-17.3 1.9,-34.63 2,-52c13.76,6.43 25.1,15.76 34,28c5.11,7.9 9.94,15.9 14.5,24z" fill="#a1acbb" id="svg_108"/>
  </g>
  <g id="svg_109">
   <path d="m504.5,551.5c5.75,-0.29 11.41,0.21 17,1.5c8.17,2.66 15.84,6.16 23,10.5c5.76,-2.57 11.42,-5.41 17,-8.5c19.86,-6.9 37.02,-2.73 51.5,12.5c2.77,4.54 5.27,9.21 7.5,14c-50.67,1.33 -101.33,1.33 -152,0c6.28,-16.96 18.28,-26.96 36,-30z" fill="#7c7f9a" id="svg_110"/>
  </g>
  <g id="svg_111">
   <path d="m468.5,603.5c50.5,-1.16 101.16,-1.33 152,-0.5c-9.1,12.38 -21.43,18.72 -37,19c-26,0.67 -52,0.67 -78,0c-15.4,-0.39 -27.73,-6.56 -37,-18.5z" fill="#7c7f9a" id="svg_112"/>
  </g>
  <g id="svg_113">
   <path d="m213.5,637.5c1.33,25.45 3.83,50.78 7.5,76c6.91,44.79 23.91,85.13 51,121c11.06,11.23 22.23,22.23 33.5,33c-0.49,2.31 -0.83,4.64 -1,7c-9.13,36.51 -15.63,73.51 -19.5,111c-0.5,11.33 -0.67,22.66 -0.5,34c-30.36,-21.86 -53.19,-49.86 -68.5,-84c-7.34,-21.71 -11.01,-44.04 -11,-67c-0.67,-59.33 -0.67,-118.67 0,-178c1.31,-18.05 4.15,-35.72 8.5,-53z" fill="#7c7f9a" id="svg_114"/>
  </g>
  <g id="svg_115">
   <path d="m875.5,637.5c4.35,17.28 7.19,34.95 8.5,53c0.67,59.33 0.67,118.67 0,178c0.7,32.53 -6.97,62.87 -23,91c-15.23,23.39 -34.06,43.39 -56.5,60c0.4,-18.72 -0.43,-37.39 -2.5,-56c-4.75,-29.92 -10.58,-59.59 -17.5,-89c-0.17,-2.36 -0.51,-4.69 -1,-7c11.27,-10.77 22.44,-21.77 33.5,-33c19.86,-25.37 34.19,-53.71 43,-85c9.1,-36.78 14.26,-74.11 15.5,-112z" fill="#7c7f9a" id="svg_116"/>
  </g>
  <g id="svg_117">
   <path d="m514.5,662.5c20,-0.17 40,0 60,0.5c9.16,2.48 11.66,7.98 7.5,16.5c-0.9,1.2 -2.07,2.03 -3.5,2.5c-22.67,0.67 -45.33,0.67 -68,0c-7.04,-4.89 -7.71,-10.55 -2,-17c2.11,-0.85 4.11,-1.68 6,-2.5z" fill="#7c7f9a" id="svg_118"/>
  </g>
  <g id="svg_119">
   <path d="m400.5,715.5c15.77,8.55 32.11,16.05 49,22.5c23.67,5.93 47.34,5.93 71,0c8.76,-2.88 16.76,-7.05 24,-12.5c17.58,12.32 37.25,17.99 59,17c17.31,0.09 33.98,-3.08 50,-9.5c11.75,-5.87 23.42,-11.71 35,-17.5c18.73,3.08 36.39,9.24 53,18.5c12.48,6.97 21.14,17.14 26,30.5c-9.44,20.37 -22.44,38.21 -39,53.5c-21.46,18.6 -46.46,26.6 -75,24c-10.23,-10.96 -21.56,-12.29 -34,-4c-3.37,3.26 -6.37,6.76 -9,10.5c-19.4,-10.47 -33.57,-5.47 -42.5,15c-6.04,16.98 -4.21,32.98 5.5,48c-9.33,0 -18.67,0 -28,0c-0.67,0 -1.33,0 -2,0c-9.33,0 -18.67,0 -28,0c11.43,-18.3 11.93,-36.97 1.5,-56c-10.69,-14.35 -23.52,-16.68 -38.5,-7c-4.37,-7.53 -10.7,-12.7 -19,-15.5c-9.68,-1.5 -17.68,1.5 -24,9c-28.54,2.6 -53.54,-5.4 -75,-24c-16.56,-15.29 -29.56,-33.13 -39,-53.5c3.3,-9.76 8.97,-17.93 17,-24.5c18.76,-12.88 39.43,-21.05 62,-24.5z" fill="#cfd3d7" id="svg_120"/>
  </g>
  <g id="svg_121">
   <path d="m321.5,764.5c9.44,20.37 22.44,38.21 39,53.5c21.46,18.6 46.46,26.6 75,24c6.32,-7.5 14.32,-10.5 24,-9c8.3,2.8 14.63,7.97 19,15.5c14.98,-9.68 27.81,-7.35 38.5,7c10.43,19.03 9.93,37.7 -1.5,56c-4.09,5.24 -9.43,8.74 -16,10.5c-34,0.67 -68,0.67 -102,0c-37.64,-3.62 -68.64,-19.46 -93,-47.5c0.17,-2.36 0.51,-4.69 1,-7c3.82,-4.55 8.49,-5.72 14,-3.5c10.1,8.77 20.77,16.77 32,24c24.56,12.43 50.56,17.09 78,14c-5.23,-12.68 -6.23,-25.68 -3,-39c-20.52,-0.57 -39.85,-5.57 -58,-15c-29.86,-18.02 -51.19,-43.18 -64,-75.5c2.53,-9.43 8.2,-12.1 17,-8zm171,99c1.95,-1.43 3.62,-1.1 5,1c-1.62,-0.54 -3.28,-0.87 -5,-1z" fill="#201d33" id="svg_122"/>
  </g>
  <g id="svg_123">
   <path d="m783.5,867.5c0.49,2.31 0.83,4.64 1,7c-24.36,28.04 -55.36,43.88 -93,47.5c-34,0.67 -68,0.67 -102,0c-6.57,-1.76 -11.91,-5.26 -16,-10.5c-9.71,-15.02 -11.54,-31.02 -5.5,-48c8.93,-20.47 23.1,-25.47 42.5,-15c2.63,-3.74 5.63,-7.24 9,-10.5c12.44,-8.29 23.77,-6.96 34,4c28.54,2.6 53.54,-5.4 75,-24c16.56,-15.29 29.56,-33.13 39,-53.5c8.8,-4.1 14.47,-1.43 17,8c-9.61,24.04 -24.28,44.54 -44,61.5c-22.42,18.92 -48.42,28.59 -78,29c3.23,13.32 2.23,26.32 -3,39c27.44,3.09 53.44,-1.57 78,-14c11.23,-7.23 21.9,-15.23 32,-24c5.51,-2.22 10.18,-1.05 14,3.5zm-187,-4c-1.72,0.13 -3.38,0.46 -5,1c1.38,-2.1 3.04,-2.43 5,-1z" fill="#201d33" id="svg_124"/>
  </g>
  <g id="svg_125">
   <path d="m452.5,901.5c-5.62,-6.86 -8.29,-14.86 -8,-24c-0.16,-8.36 2.01,-16.03 6.5,-23c2.33,-2.67 4.67,-2.67 7,0c8.8,15.62 8.63,31.12 -0.5,46.5c-1.63,0.49 -3.3,0.66 -5,0.5z" fill="#cfd3d7" id="svg_126"/>
  </g>
  <g id="svg_127">
   <path d="m636.5,901.5c-3.68,0.77 -6.18,-0.56 -7.5,-4c-6.5,-14.72 -5.83,-29.05 2,-43c2.33,-2.67 4.67,-2.67 7,0c7.83,13.95 8.5,28.28 2,43c-1.03,1.53 -2.2,2.86 -3.5,4z" fill="#cfd3d7" id="svg_128"/>
  </g>
  <g id="svg_129">
   <path d="m492.5,863.5c1.72,0.13 3.38,0.46 5,1c0,0.67 0.33,1 1,1c0,0.67 0.33,1 1,1c6.07,9.88 6.57,20.22 1.5,31c-5.54,6.96 -10.2,6.29 -14,-2c-3.33,-8.67 -3.33,-17.33 0,-26c1.33,-2.5 3.16,-4.5 5.5,-6z" fill="#cfd3d7" id="svg_130"/>
  </g>
  <g id="svg_131">
   <path d="m596.5,863.5c5.75,4.89 8.42,11.22 8,19c0.35,7.8 -2.32,14.3 -8,19.5c-3.66,0.39 -6.5,-1.11 -8.5,-4.5c-5.07,-10.78 -4.57,-21.12 1.5,-31c0.67,0 1,-0.33 1,-1c0.67,0 1,-0.33 1,-1c1.62,-0.54 3.28,-0.87 5,-1z" fill="#cfd3d7" id="svg_132"/>
  </g>
  <g id="svg_133">
   <path d="m304.5,874.5c24.36,28.04 55.36,43.88 93,47.5c34,0.67 68,0.67 102,0c6.57,-1.76 11.91,-5.26 16,-10.5c39.33,0 48.67,0 58,0c4.09,5.24 9.43,8.74 16,10.5c34,0.67 68,0.67 102,0c37.64,-3.62 68.64,-19.46 93,-47.5c6.92,29.41 12.75,59.08 17.5,89c2.07,18.61 2.9,37.28 2.5,56c-18.25,15.2 -39.25,23.53 -63,25c-8.17,-20.6 -22.17,-26.27 -42,-17c-9.83,-20.75 -25.83,-28.25 -48,-22.5c-10.2,4.7 -17.53,12.2 -22,22.5c-19.27,-9.18 -33.1,-3.85 -41.5,16c-2.25,6.13 -3.41,12.47 -3.5,19c-26.67,0 -53.33,0 -80,0c0.12,-15.94 -6.22,-28.44 -19,-37.5c-9.14,-3.85 -17.81,-3.02 -26,2.5c-5.72,-12.86 -15.38,-21.02 -29,-24.5c-12.83,-1.72 -23.66,2.11 -32.5,11.5c-3.03,4.2 -5.86,8.53 -8.5,13c-19.83,-9.27 -33.83,-3.6 -42,17c-23.75,-1.47 -44.75,-9.8 -63,-25c-0.17,-11.34 0,-22.67 0.5,-34c3.87,-37.49 10.37,-74.49 19.5,-111z" fill="#aaafb4" id="svg_134" transform="matrix(1 0 0 1 0 0)"/>
  </g>
  <g id="svg_135">
   <path d="m420.5,1022.5c12.12,0.61 19.62,6.94 22.5,19c3.89,14.94 0.39,27.78 -10.5,38.5c-8.7,4.51 -15.87,2.68 -21.5,-5.5c-7.83,-13.28 -8.5,-26.94 -2,-41c3.07,-4.57 6.9,-8.24 11.5,-11z" fill="#cfd3d7" id="svg_136"/>
  </g>
  <g id="svg_137">
   <path d="m660.5,1022.5c12.12,0.61 19.62,6.94 22.5,19c3.89,14.94 0.39,27.78 -10.5,38.5c-8.7,4.51 -15.87,2.68 -21.5,-5.5c-7.83,-13.28 -8.5,-26.94 -2,-41c3.07,-4.57 6.9,-8.24 11.5,-11z" fill="#cfd3d7" id="svg_138"/>
  </g>
  <g id="svg_139">
   <path d="m372.5,1042.5c3.65,0.12 6.48,1.79 8.5,5c4.21,9.19 4.54,18.52 1,28c-3.8,8.29 -8.46,8.96 -14,2c-5.8,-12.76 -4.3,-24.43 4.5,-35z" fill="#cfd3d7" id="svg_140"/>
  </g>
  <g id="svg_141">
   <path d="m472.5,1042.5c3.65,0.12 6.48,1.79 8.5,5c4.21,9.19 4.54,18.52 1,28c-3.8,8.29 -8.46,8.96 -14,2c-5.8,-12.76 -4.3,-24.43 4.5,-35z" fill="#cfd3d7" id="svg_142"/>
  </g>
  <g id="svg_143">
   <path d="m612.5,1042.5c3.65,0.12 6.48,1.79 8.5,5c4.21,9.19 4.54,18.52 1,28c-3.79,8.29 -8.46,8.96 -14,2c-5.8,-12.76 -4.3,-24.43 4.5,-35z" fill="#cfd3d7" id="svg_144"/>
  </g>
  <g id="svg_145">
   <path d="m712.5,1042.5c3.65,0.12 6.48,1.79 8.5,5c4.21,9.19 4.54,18.52 1,28c-3.79,8.29 -8.46,8.96 -14,2c-5.8,-12.76 -4.3,-24.43 4.5,-35z" fill="#cfd3d7" id="svg_146"/>
  </g>
 </g>
</svg>